{"glyphs":{"0":{"ha":911,"x_min":68,"x_max":843,"o":"m 457 -17 q 249 47 336 -17 q 115 223 163 110 q 68 486 68 336 q 115 749 68 636 q 249 926 163 863 q 457 989 336 989 q 664 926 578 989 q 797 749 750 863 q 843 486 843 636 q 797 223 843 336 q 664 47 750 110 q 457 -17 578 -17 m 457 86 q 593 134 533 86 q 688 272 653 182 q 724 486 724 361 q 688 701 724 613 q 593 838 653 790 q 457 885 533 885 q 318 838 379 885 q 222 701 257 790 q 188 486 188 613 q 222 272 188 361 q 318 134 257 182 q 457 86 379 86 z "},"1":{"ha":475,"x_min":50,"x_max":368,"o":"m 250 0 l 250 842 l 50 778 l 50 869 l 289 972 l 368 972 l 368 0 l 250 0 z "},"2":{"ha":818,"x_min":90,"x_max":749,"o":"m 90 0 l 90 82 q 285 239 193 160 q 447 397 376 318 q 558 550 518 475 q 599 694 599 625 q 580 790 599 746 q 520 861 561 833 q 410 889 479 889 q 299 860 343 889 q 232 785 254 832 q 210 683 210 739 l 97 683 q 139 848 99 779 q 250 953 179 917 q 411 989 321 989 q 568 956 500 989 q 676 859 636 924 q 715 699 715 794 q 687 563 715 631 q 610 430 658 494 q 502 306 561 365 q 381 193 443 246 q 263 97 318 140 l 749 97 l 749 0 l 90 0 z "},"3":{"ha":831,"x_min":76,"x_max":738,"o":"m 413 -17 q 244 17 319 -17 q 124 119 168 51 q 76 289 79 188 l 194 289 q 222 187 196 233 q 296 113 247 140 q 413 85 344 85 q 526 111 481 85 q 596 181 572 138 q 619 279 619 225 q 587 385 619 344 q 499 447 554 426 q 379 467 444 467 l 307 467 l 307 565 l 379 565 q 534 610 478 565 q 590 736 590 656 q 546 844 590 801 q 413 888 501 888 q 275 840 325 888 q 218 719 225 793 l 100 719 q 144 860 104 799 q 252 955 183 921 q 413 989 321 989 q 576 956 510 989 q 675 867 642 922 q 708 743 708 811 q 690 647 708 693 q 633 568 671 601 q 538 521 596 535 q 640 478 594 510 q 711 396 685 446 q 738 279 738 346 q 701 133 738 200 q 592 24 664 65 q 413 -17 519 -17 z "},"4":{"ha":853,"x_min":57,"x_max":810,"o":"m 550 0 l 550 208 l 57 208 l 57 299 l 529 972 l 665 972 l 665 311 l 810 311 l 810 208 l 665 208 l 665 0 l 550 0 m 186 311 l 556 311 l 556 843 l 556 843 l 186 311 z "},"5":{"ha":842,"x_min":96,"x_max":758,"o":"m 428 -17 q 259 18 331 -17 q 147 112 188 53 q 96 247 106 171 l 210 247 q 281 129 225 175 q 429 83 338 83 q 545 115 497 83 q 619 201 593 146 q 646 324 646 256 q 620 444 646 392 q 547 526 594 496 q 436 556 500 556 q 306 525 360 556 q 224 450 253 494 l 108 450 l 182 972 l 704 972 l 704 871 l 272 871 l 222 567 q 315 630 257 606 q 449 654 372 654 q 576 629 519 654 q 674 559 633 604 q 737 454 715 514 q 758 325 758 394 q 735 194 758 256 q 670 85 713 132 q 567 10 628 38 q 428 -17 506 -17 z "},"6":{"ha":867,"x_min":81,"x_max":775,"o":"m 451 -17 q 276 22 347 -17 q 162 127 204 61 q 100 276 119 193 q 81 447 81 360 q 124 730 81 608 q 251 920 168 851 q 453 989 335 989 q 610 954 544 989 q 715 862 676 919 q 763 733 754 804 l 654 733 q 587 847 640 807 q 451 888 533 888 q 320 842 378 888 q 229 703 263 796 q 192 468 196 611 q 192 463 192 465 q 192 457 192 460 q 250 539 211 501 q 344 599 289 576 q 467 622 400 622 q 619 583 549 622 q 732 474 689 544 q 775 310 775 404 q 735 153 775 228 q 624 31 696 78 q 451 -17 551 -17 m 443 86 q 552 114 504 86 q 628 191 600 142 q 657 304 657 240 q 628 418 657 369 q 552 494 600 467 q 443 521 504 521 q 331 492 381 521 q 251 415 281 464 q 222 303 222 365 q 251 190 222 239 q 331 113 281 140 q 443 86 381 86 z "},"7":{"ha":747,"x_min":40,"x_max":693,"o":"m 217 0 l 574 872 l 40 872 l 40 972 l 693 972 l 693 885 l 340 0 l 217 0 z "},"8":{"ha":839,"x_min":93,"x_max":746,"o":"m 419 -17 q 253 19 328 -17 q 136 117 179 54 q 93 264 93 181 q 116 375 93 324 q 179 465 139 426 q 274 518 219 503 q 158 604 200 546 q 117 731 117 663 q 153 861 117 803 q 258 954 190 919 q 419 989 326 989 q 581 954 514 989 q 685 861 649 919 q 721 731 721 803 q 680 604 721 663 q 565 518 639 546 q 660 465 619 503 q 723 375 700 426 q 746 264 746 324 q 703 117 746 181 q 585 19 660 54 q 419 -17 511 -17 m 419 86 q 576 137 524 86 q 629 271 629 188 q 572 414 629 365 q 419 463 514 463 q 267 414 325 463 q 210 271 210 365 q 262 137 210 188 q 419 86 314 86 m 419 560 q 553 606 503 560 q 603 724 603 651 q 553 847 603 806 q 419 889 504 889 q 285 847 335 889 q 236 724 236 806 q 286 606 236 651 q 419 560 336 560 z "},"9":{"ha":867,"x_min":92,"x_max":786,"o":"m 414 -17 q 258 18 324 -17 q 153 111 192 53 q 106 239 115 169 l 214 239 q 282 125 229 165 q 415 85 335 85 q 544 128 489 85 q 634 260 600 172 q 674 483 668 349 q 675 499 675 492 q 675 515 675 507 q 617 433 656 471 q 523 373 578 396 q 400 350 468 350 q 249 389 319 350 q 135 498 178 428 q 92 663 92 568 q 131 819 92 744 q 244 942 171 894 q 415 989 317 989 q 591 950 519 989 q 705 845 663 911 q 767 696 747 779 q 786 525 786 613 q 742 243 786 365 q 616 52 699 121 q 414 -17 533 -17 m 424 451 q 537 480 486 451 q 617 558 588 508 q 646 669 646 607 q 617 783 646 735 q 537 859 588 832 q 424 886 486 886 q 315 858 364 886 q 238 782 267 831 q 210 668 210 733 q 238 554 210 603 q 315 478 267 506 q 424 451 364 451 z "},"A":{"ha":924,"x_min":43,"x_max":882,"o":"m 43 0 l 401 972 l 525 972 l 882 0 l 757 0 l 463 826 l 463 826 l 165 0 l 43 0 m 207 250 l 240 344 l 681 344 l 714 250 l 207 250 z "},"Á":{"ha":924,"x_min":43,"x_max":882,"o":"m 43 0 l 401 972 l 525 972 l 882 0 l 757 0 l 463 826 l 463 826 l 165 0 l 43 0 m 207 250 l 240 344 l 681 344 l 714 250 l 207 250 m 358 1032 l 308 1107 l 551 1285 l 551 1285 l 618 1190 l 358 1032 z "},"Ă":{"ha":924,"x_min":43,"x_max":882,"o":"m 43 0 l 401 972 l 525 972 l 882 0 l 757 0 l 463 826 l 463 826 l 165 0 l 43 0 m 207 250 l 240 344 l 681 344 l 714 250 l 207 250 m 464 1051 q 357 1076 400 1051 q 292 1141 314 1100 q 269 1232 269 1182 l 269 1251 l 339 1251 q 368 1172 339 1200 q 464 1143 397 1143 q 560 1172 531 1143 q 589 1251 589 1200 l 660 1251 l 660 1232 q 637 1141 660 1182 q 571 1076 614 1100 q 464 1051 528 1051 z "},"Â":{"ha":924,"x_min":43,"x_max":882,"o":"m 43 0 l 401 972 l 525 972 l 882 0 l 757 0 l 463 826 l 463 826 l 165 0 l 43 0 m 207 250 l 240 344 l 681 344 l 714 250 l 207 250 m 274 1049 l 274 1140 l 464 1253 l 654 1140 l 654 1049 l 464 1165 l 274 1049 z "},"Ä":{"ha":924,"x_min":43,"x_max":882,"o":"m 43 0 l 401 972 l 525 972 l 882 0 l 757 0 l 463 826 l 463 826 l 165 0 l 43 0 m 207 250 l 240 344 l 681 344 l 714 250 l 207 250 m 354 1076 q 305 1097 325 1076 q 285 1146 285 1117 q 305 1194 285 1174 q 354 1215 325 1215 q 403 1194 382 1215 q 424 1146 424 1174 q 403 1097 424 1117 q 354 1076 382 1076 m 576 1076 q 527 1097 547 1076 q 507 1146 507 1117 q 527 1194 507 1174 q 576 1215 547 1215 q 624 1194 604 1215 q 644 1146 644 1174 q 624 1097 644 1117 q 576 1076 604 1076 z "},"À":{"ha":924,"x_min":43,"x_max":882,"o":"m 43 0 l 401 972 l 525 972 l 882 0 l 757 0 l 463 826 l 463 826 l 165 0 l 43 0 m 207 250 l 240 344 l 681 344 l 714 250 l 207 250 m 568 1032 l 308 1190 l 375 1285 l 375 1285 l 618 1107 l 568 1032 z "},"Ā":{"ha":924,"x_min":43,"x_max":882,"o":"m 43 0 l 401 972 l 525 972 l 882 0 l 757 0 l 463 826 l 463 826 l 165 0 l 43 0 m 207 250 l 240 344 l 681 344 l 714 250 l 207 250 m 222 1106 l 222 1193 l 704 1193 l 704 1106 l 222 1106 z "},"Ą":{"ha":924,"x_min":43,"x_max":886,"o":"m 43 0 l 401 972 l 525 972 l 882 0 l 757 0 l 463 826 l 463 826 l 165 0 l 43 0 m 207 250 l 240 344 l 681 344 l 714 250 l 207 250 m 782 -282 q 703 -269 740 -282 q 642 -226 665 -256 q 618 -150 618 -197 q 633 -87 618 -117 q 684 -28 649 -57 q 779 28 719 1 l 853 60 l 882 0 l 801 -39 q 733 -87 753 -62 q 713 -139 713 -112 q 735 -189 713 -171 q 796 -207 758 -207 q 840 -201 815 -207 q 886 -186 864 -196 l 886 -264 q 837 -277 864 -272 q 782 -282 810 -282 z "},"Å":{"ha":924,"x_min":43,"x_max":882,"o":"m 43 0 l 401 972 l 525 972 l 882 0 l 757 0 l 463 826 l 463 826 l 165 0 l 43 0 m 207 250 l 240 344 l 681 344 l 714 250 l 207 250 m 464 1057 q 361 1095 404 1057 q 318 1200 318 1133 q 361 1305 318 1267 q 464 1343 404 1343 q 567 1305 525 1343 q 610 1200 610 1267 q 567 1095 610 1133 q 464 1057 525 1057 m 464 1117 q 520 1140 497 1117 q 543 1200 543 1163 q 520 1260 543 1239 q 464 1282 497 1282 q 408 1260 432 1282 q 385 1200 385 1239 q 408 1140 385 1163 q 464 1117 432 1117 z "},"Ã":{"ha":924,"x_min":43,"x_max":882,"o":"m 43 0 l 401 972 l 525 972 l 882 0 l 757 0 l 463 826 l 463 826 l 165 0 l 43 0 m 207 250 l 240 344 l 681 344 l 714 250 l 207 250 m 554 1050 q 492 1067 517 1050 q 445 1099 467 1083 q 394 1115 424 1115 q 356 1100 372 1115 q 336 1053 340 1085 l 268 1053 q 313 1158 278 1122 q 400 1193 349 1193 q 462 1177 438 1193 q 508 1144 486 1161 q 560 1128 531 1128 q 599 1144 583 1128 q 619 1190 615 1160 l 688 1190 q 643 1086 679 1122 q 554 1050 607 1050 z "},"Æ":{"ha":1269,"x_min":43,"x_max":1188,"o":"m 43 0 l 597 972 l 1188 972 l 1188 879 l 786 879 l 786 536 l 1146 536 l 1146 444 l 786 444 l 786 93 l 1188 93 l 1188 0 l 669 0 l 669 876 l 669 876 l 171 0 l 43 0 m 232 221 l 281 314 l 724 314 l 724 221 l 232 221 z "},"Ǽ":{"ha":1269,"x_min":43,"x_max":1188,"o":"m 43 0 l 597 972 l 1188 972 l 1188 879 l 786 879 l 786 536 l 1146 536 l 1146 444 l 786 444 l 786 93 l 1188 93 l 1188 0 l 669 0 l 669 876 l 669 876 l 171 0 l 43 0 m 232 221 l 281 314 l 724 314 l 724 221 l 232 221 m 653 1032 l 603 1107 l 846 1285 l 846 1285 l 913 1190 l 653 1032 z "},"B":{"ha":842,"x_min":107,"x_max":775,"o":"m 107 0 l 107 972 l 449 972 q 619 940 551 972 q 719 851 686 907 q 753 725 753 794 q 720 600 753 650 q 635 524 688 550 q 525 492 583 497 l 544 506 q 660 472 607 504 q 744 386 713 440 q 775 265 775 332 q 739 131 775 192 q 633 35 703 71 q 460 0 563 0 l 107 0 m 224 97 l 447 97 q 601 144 546 97 q 656 274 656 190 q 599 405 656 356 q 444 454 543 454 l 224 454 l 224 97 m 224 547 l 440 547 q 584 592 535 547 q 633 713 633 636 q 584 831 633 786 q 436 875 535 875 l 224 875 l 224 547 z "},"C":{"ha":985,"x_min":68,"x_max":917,"o":"m 517 -17 q 278 47 379 -17 q 123 223 178 110 q 68 486 68 336 q 123 749 68 636 q 278 926 178 863 q 517 989 379 989 q 785 910 682 989 q 917 686 888 831 l 790 686 q 699 831 767 776 q 517 886 632 886 q 342 838 417 886 q 228 701 268 790 q 188 486 188 611 q 228 272 188 361 q 342 134 268 182 q 517 86 417 86 q 699 140 632 86 q 790 282 767 193 l 917 282 q 785 63 888 142 q 517 -17 682 -17 z "},"Ć":{"ha":985,"x_min":68,"x_max":917,"o":"m 517 -17 q 278 47 379 -17 q 123 223 178 110 q 68 486 68 336 q 123 749 68 636 q 278 926 178 863 q 517 989 379 989 q 785 910 682 989 q 917 686 888 831 l 790 686 q 699 831 767 776 q 517 886 632 886 q 342 838 417 886 q 228 701 268 790 q 188 486 188 611 q 228 272 188 361 q 342 134 268 182 q 517 86 417 86 q 699 140 632 86 q 790 282 767 193 l 917 282 q 785 63 888 142 q 517 -17 682 -17 m 388 1032 l 338 1107 l 581 1285 l 581 1285 l 647 1190 l 388 1032 z "},"Č":{"ha":985,"x_min":68,"x_max":917,"o":"m 517 -17 q 278 47 379 -17 q 123 223 178 110 q 68 486 68 336 q 123 749 68 636 q 278 926 178 863 q 517 989 379 989 q 785 910 682 989 q 917 686 888 831 l 790 686 q 699 831 767 776 q 517 886 632 886 q 342 838 417 886 q 228 701 268 790 q 188 486 188 611 q 228 272 188 361 q 342 134 268 182 q 517 86 417 86 q 699 140 632 86 q 790 282 767 193 l 917 282 q 785 63 888 142 q 517 -17 682 -17 m 493 1047 l 303 1161 l 303 1251 l 493 1135 l 683 1251 l 683 1161 l 493 1047 z "},"Ç":{"ha":985,"x_min":68,"x_max":917,"o":"m 517 -17 q 278 47 379 -17 q 123 223 178 110 q 68 486 68 336 q 123 749 68 636 q 278 926 178 863 q 517 989 379 989 q 785 910 682 989 q 917 686 888 831 l 790 686 q 699 831 767 776 q 517 886 632 886 q 342 838 417 886 q 228 701 268 790 q 188 486 188 611 q 228 272 188 361 q 342 134 268 182 q 517 86 417 86 q 699 140 632 86 q 790 282 767 193 l 917 282 q 785 63 888 142 q 517 -17 682 -17 m 400 -361 l 400 -287 l 528 -287 q 599 -271 576 -287 q 622 -221 622 -254 q 599 -174 622 -190 q 528 -158 576 -158 l 460 -158 l 460 8 l 538 8 l 538 -89 q 631 -102 590 -87 q 694 -147 671 -117 q 717 -222 717 -178 q 695 -297 717 -265 q 635 -344 674 -328 q 549 -361 597 -361 l 400 -361 z "},"Ċ":{"ha":985,"x_min":68,"x_max":917,"o":"m 517 -17 q 278 47 379 -17 q 123 223 178 110 q 68 486 68 336 q 123 749 68 636 q 278 926 178 863 q 517 989 379 989 q 785 910 682 989 q 917 686 888 831 l 790 686 q 699 831 767 776 q 517 886 632 886 q 342 838 417 886 q 228 701 268 790 q 188 486 188 611 q 228 272 188 361 q 342 134 268 182 q 517 86 417 86 q 699 140 632 86 q 790 282 767 193 l 917 282 q 785 63 888 142 q 517 -17 682 -17 m 493 1064 q 444 1085 465 1064 q 424 1133 424 1106 q 444 1182 424 1161 q 493 1203 465 1203 q 542 1182 521 1203 q 563 1133 563 1161 q 542 1085 563 1106 q 493 1064 521 1064 z "},"D":{"ha":922,"x_min":107,"x_max":854,"o":"m 107 0 l 107 972 l 357 972 q 637 913 526 972 q 801 745 747 854 q 854 483 854 636 q 801 225 854 333 q 637 58 747 117 q 357 0 526 0 l 107 0 m 224 97 l 354 97 q 578 144 494 97 q 697 277 661 190 q 733 483 733 364 q 697 693 733 606 q 578 828 661 781 q 354 875 494 875 l 224 875 l 224 97 z "},"Ď":{"ha":922,"x_min":107,"x_max":854,"o":"m 107 0 l 107 972 l 357 972 q 637 913 526 972 q 801 745 747 854 q 854 483 854 636 q 801 225 854 333 q 637 58 747 117 q 357 0 526 0 l 107 0 m 224 97 l 354 97 q 578 144 494 97 q 697 277 661 190 q 733 483 733 364 q 697 693 733 606 q 578 828 661 781 q 354 875 494 875 l 224 875 l 224 97 m 351 1047 l 161 1161 l 161 1251 l 351 1135 l 542 1251 l 542 1161 l 351 1047 z "},"Đ":{"ha":951,"x_min":11,"x_max":883,"o":"m 11 432 l 11 538 l 529 538 l 529 432 l 11 432 m 136 0 l 136 972 l 386 972 q 666 913 556 972 q 830 745 776 854 q 883 483 883 636 q 830 225 883 333 q 666 58 776 117 q 386 0 556 0 l 136 0 m 253 97 l 383 97 q 607 144 524 97 q 726 277 690 190 q 763 483 763 364 q 726 693 763 606 q 607 828 690 781 q 383 875 524 875 l 253 875 l 253 97 z "},"Ð":{"ha":951,"x_min":11,"x_max":883,"o":"m 11 432 l 11 538 l 529 538 l 529 432 l 11 432 m 136 0 l 136 972 l 386 972 q 666 913 556 972 q 830 745 776 854 q 883 483 883 636 q 830 225 883 333 q 666 58 776 117 q 386 0 556 0 l 136 0 m 253 97 l 383 97 q 607 144 524 97 q 726 277 690 190 q 763 483 763 364 q 726 693 763 606 q 607 828 690 781 q 383 875 524 875 l 253 875 l 253 97 z "},"E":{"ha":790,"x_min":107,"x_max":708,"o":"m 107 0 l 107 972 l 708 972 l 708 876 l 224 876 l 224 538 l 667 538 l 667 443 l 224 443 l 224 96 l 708 96 l 708 0 l 107 0 z "},"É":{"ha":790,"x_min":107,"x_max":708,"o":"m 107 0 l 107 972 l 708 972 l 708 876 l 224 876 l 224 538 l 667 538 l 667 443 l 224 443 l 224 96 l 708 96 l 708 0 l 107 0 m 303 1032 l 253 1107 l 496 1285 l 496 1285 l 563 1190 l 303 1032 z "},"Ĕ":{"ha":790,"x_min":107,"x_max":708,"o":"m 107 0 l 107 972 l 708 972 l 708 876 l 224 876 l 224 538 l 667 538 l 667 443 l 224 443 l 224 96 l 708 96 l 708 0 l 107 0 m 408 1051 q 301 1076 344 1051 q 236 1141 258 1100 q 214 1232 214 1182 l 214 1251 l 283 1251 q 313 1172 283 1200 q 408 1143 342 1143 q 504 1172 475 1143 q 533 1251 533 1200 l 604 1251 l 604 1232 q 581 1141 604 1182 q 515 1076 558 1100 q 408 1051 472 1051 z "},"Ě":{"ha":790,"x_min":107,"x_max":708,"o":"m 107 0 l 107 972 l 708 972 l 708 876 l 224 876 l 224 538 l 667 538 l 667 443 l 224 443 l 224 96 l 708 96 l 708 0 l 107 0 m 408 1047 l 218 1161 l 218 1251 l 408 1135 l 599 1251 l 599 1161 l 408 1047 z "},"Ê":{"ha":790,"x_min":107,"x_max":708,"o":"m 107 0 l 107 972 l 708 972 l 708 876 l 224 876 l 224 538 l 667 538 l 667 443 l 224 443 l 224 96 l 708 96 l 708 0 l 107 0 m 218 1049 l 218 1140 l 408 1253 l 599 1140 l 599 1049 l 408 1165 l 218 1049 z "},"Ë":{"ha":790,"x_min":107,"x_max":708,"o":"m 107 0 l 107 972 l 708 972 l 708 876 l 224 876 l 224 538 l 667 538 l 667 443 l 224 443 l 224 96 l 708 96 l 708 0 l 107 0 m 299 1076 q 249 1097 269 1076 q 229 1146 229 1117 q 249 1194 229 1174 q 299 1215 269 1215 q 347 1194 326 1215 q 368 1146 368 1174 q 347 1097 368 1117 q 299 1076 326 1076 m 521 1076 q 472 1097 492 1076 q 451 1146 451 1117 q 472 1194 451 1174 q 521 1215 492 1215 q 569 1194 549 1215 q 589 1146 589 1174 q 569 1097 589 1117 q 521 1076 549 1076 z "},"Ė":{"ha":790,"x_min":107,"x_max":708,"o":"m 107 0 l 107 972 l 708 972 l 708 876 l 224 876 l 224 538 l 667 538 l 667 443 l 224 443 l 224 96 l 708 96 l 708 0 l 107 0 m 408 1064 q 360 1085 381 1064 q 339 1133 339 1106 q 360 1182 339 1161 q 408 1203 381 1203 q 457 1182 436 1203 q 478 1133 478 1161 q 457 1085 478 1106 q 408 1064 436 1064 z "},"È":{"ha":790,"x_min":107,"x_max":708,"o":"m 107 0 l 107 972 l 708 972 l 708 876 l 224 876 l 224 538 l 667 538 l 667 443 l 224 443 l 224 96 l 708 96 l 708 0 l 107 0 m 513 1032 l 253 1190 l 319 1285 l 319 1285 l 563 1107 l 513 1032 z "},"Ē":{"ha":790,"x_min":107,"x_max":708,"o":"m 107 0 l 107 972 l 708 972 l 708 876 l 224 876 l 224 538 l 667 538 l 667 443 l 224 443 l 224 96 l 708 96 l 708 0 l 107 0 m 167 1106 l 167 1193 l 649 1193 l 649 1106 l 167 1106 z "},"Ę":{"ha":790,"x_min":107,"x_max":713,"o":"m 107 0 l 107 972 l 708 972 l 708 876 l 224 876 l 224 538 l 667 538 l 667 443 l 224 443 l 224 96 l 708 96 l 708 0 l 107 0 m 608 -282 q 529 -269 567 -282 q 468 -226 492 -256 q 444 -150 444 -197 q 460 -87 444 -117 q 510 -28 475 -57 q 606 28 546 1 l 679 60 l 708 0 l 628 -39 q 559 -87 579 -62 q 539 -139 539 -112 q 562 -189 539 -171 q 622 -207 585 -207 q 666 -201 642 -207 q 713 -186 690 -196 l 713 -264 q 663 -277 690 -272 q 608 -282 636 -282 z "},"Ẽ":{"ha":790,"x_min":107,"x_max":708,"o":"m 107 0 l 107 972 l 708 972 l 708 876 l 224 876 l 224 538 l 667 538 l 667 443 l 224 443 l 224 96 l 708 96 l 708 0 l 107 0 m 499 1050 q 436 1067 461 1050 q 390 1099 411 1083 q 339 1115 368 1115 q 301 1100 317 1115 q 281 1053 285 1085 l 213 1053 q 258 1158 222 1122 q 344 1193 293 1193 q 406 1177 382 1193 q 453 1144 431 1161 q 504 1128 475 1128 q 544 1144 528 1128 q 564 1190 560 1160 l 632 1190 q 588 1086 624 1122 q 499 1050 551 1050 z "},"Ə":{"ha":978,"x_min":68,"x_max":910,"o":"m 483 -17 q 300 19 378 -17 q 171 117 222 54 q 94 263 119 181 q 68 442 68 346 q 68 476 68 458 q 69 517 68 494 l 817 517 l 817 421 l 192 421 q 231 225 193 301 q 335 112 269 149 q 486 75 401 75 q 600 97 546 75 q 696 164 654 118 q 762 281 738 210 q 786 451 786 353 l 786 494 q 744 721 786 632 q 635 853 703 810 q 485 897 567 897 q 311 852 374 897 q 219 713 249 807 l 92 713 q 167 854 115 792 q 298 953 218 917 q 485 989 378 989 q 708 926 613 989 q 857 749 804 863 q 910 486 910 636 q 856 218 910 331 q 706 44 801 106 q 483 -17 610 -17 z "},"F":{"ha":749,"x_min":107,"x_max":699,"o":"m 107 0 l 107 972 l 699 972 l 699 876 l 224 876 l 224 535 l 628 535 l 628 440 l 224 440 l 224 0 l 107 0 z "},"G":{"ha":1058,"x_min":68,"x_max":972,"o":"m 524 -17 q 285 47 388 -17 q 125 222 182 110 q 68 485 68 335 q 126 747 68 633 q 290 925 183 861 q 540 989 396 989 q 814 910 704 989 q 954 692 924 832 l 819 692 q 728 831 800 779 q 540 882 656 882 q 353 834 433 882 q 231 697 274 786 q 188 485 188 608 q 231 272 188 361 q 351 135 274 182 q 528 88 428 88 q 763 179 683 88 q 853 428 842 271 l 572 428 l 572 519 l 972 519 l 972 0 l 865 0 l 856 160 l 856 160 q 776 63 821 103 q 669 3 731 24 q 524 -17 608 -17 z "},"Ğ":{"ha":1058,"x_min":68,"x_max":972,"o":"m 524 -17 q 285 47 388 -17 q 125 222 182 110 q 68 485 68 335 q 126 747 68 633 q 290 925 183 861 q 540 989 396 989 q 814 910 704 989 q 954 692 924 832 l 819 692 q 728 831 800 779 q 540 882 656 882 q 353 834 433 882 q 231 697 274 786 q 188 485 188 608 q 231 272 188 361 q 351 135 274 182 q 528 88 428 88 q 763 179 683 88 q 853 428 842 271 l 572 428 l 572 519 l 972 519 l 972 0 l 865 0 l 856 160 l 856 160 q 776 63 821 103 q 669 3 731 24 q 524 -17 608 -17 m 529 1051 q 422 1076 465 1051 q 357 1141 379 1100 q 335 1232 335 1182 l 335 1251 l 404 1251 q 433 1172 404 1200 q 529 1143 463 1143 q 625 1172 596 1143 q 654 1251 654 1200 l 725 1251 l 725 1232 q 702 1141 725 1182 q 636 1076 679 1100 q 529 1051 593 1051 z "},"Ģ":{"ha":1058,"x_min":68,"x_max":972,"o":"m 524 -17 q 285 47 388 -17 q 125 222 182 110 q 68 485 68 335 q 126 747 68 633 q 290 925 183 861 q 540 989 396 989 q 814 910 704 989 q 954 692 924 832 l 819 692 q 728 831 800 779 q 540 882 656 882 q 353 834 433 882 q 231 697 274 786 q 188 485 188 608 q 231 272 188 361 q 351 135 274 182 q 528 88 428 88 q 763 179 683 88 q 853 428 842 271 l 572 428 l 572 519 l 972 519 l 972 0 l 865 0 l 856 160 l 856 160 q 776 63 821 103 q 669 3 731 24 q 524 -17 608 -17 m 463 -331 l 463 -275 q 512 -255 497 -275 q 526 -196 526 -235 l 526 -176 l 464 -176 l 464 -69 l 583 -69 q 593 -124 590 -97 q 596 -172 596 -150 q 561 -293 596 -256 q 463 -331 526 -331 z "},"Ġ":{"ha":1058,"x_min":68,"x_max":972,"o":"m 524 -17 q 285 47 388 -17 q 125 222 182 110 q 68 485 68 335 q 126 747 68 633 q 290 925 183 861 q 540 989 396 989 q 814 910 704 989 q 954 692 924 832 l 819 692 q 728 831 800 779 q 540 882 656 882 q 353 834 433 882 q 231 697 274 786 q 188 485 188 608 q 231 272 188 361 q 351 135 274 182 q 528 88 428 88 q 763 179 683 88 q 853 428 842 271 l 572 428 l 572 519 l 972 519 l 972 0 l 865 0 l 856 160 l 856 160 q 776 63 821 103 q 669 3 731 24 q 524 -17 608 -17 m 529 1064 q 481 1085 501 1064 q 460 1133 460 1106 q 481 1182 460 1161 q 529 1203 501 1203 q 578 1182 557 1203 q 599 1133 599 1161 q 578 1085 599 1106 q 529 1064 557 1064 z "},"H":{"ha":951,"x_min":107,"x_max":844,"o":"m 728 0 l 728 972 l 844 972 l 844 0 l 728 0 m 107 0 l 107 972 l 224 972 l 224 0 l 107 0 m 201 447 l 201 543 l 757 543 l 757 447 l 201 447 z "},"Ħ":{"ha":1040,"x_min":56,"x_max":985,"o":"m 56 688 l 56 793 l 985 793 l 985 688 l 56 688 m 772 0 l 772 972 l 889 972 l 889 0 l 772 0 m 151 0 l 151 972 l 268 972 l 268 0 l 151 0 m 246 447 l 246 543 l 801 543 l 801 447 l 246 447 z "},"I":{"ha":331,"x_min":107,"x_max":224,"o":"m 107 0 l 107 972 l 224 972 l 224 0 l 107 0 z "},"Ĳ":{"ha":979,"x_min":107,"x_max":872,"o":"m 107 0 l 107 972 l 224 972 l 224 0 l 107 0 m 601 -17 q 451 17 514 -17 q 353 113 388 50 q 319 261 319 175 l 438 261 q 453 173 438 213 q 505 110 469 133 q 600 88 540 88 q 692 110 658 88 q 741 170 726 132 q 756 257 756 208 l 756 972 l 872 972 l 872 257 q 801 55 872 126 q 601 -17 729 -17 z "},"Í":{"ha":331,"x_min":10,"x_max":319,"o":"m 107 0 l 107 972 l 224 972 l 224 0 l 107 0 m 60 1032 l 10 1107 l 253 1285 l 253 1285 l 319 1190 l 60 1032 z "},"Ĭ":{"ha":331,"x_min":-29,"x_max":361,"o":"m 107 0 l 107 972 l 224 972 l 224 0 l 107 0 m 165 1051 q 58 1076 101 1051 q -7 1141 15 1100 q -29 1232 -29 1182 l -29 1251 l 40 1251 q 69 1172 40 1200 q 165 1143 99 1143 q 261 1172 232 1143 q 290 1251 290 1200 l 361 1251 l 361 1232 q 338 1141 361 1182 q 272 1076 315 1100 q 165 1051 229 1051 z "},"Î":{"ha":331,"x_min":-25,"x_max":356,"o":"m 107 0 l 107 972 l 224 972 l 224 0 l 107 0 m -25 1049 l -25 1140 l 165 1253 l 356 1140 l 356 1049 l 165 1165 l -25 1049 z "},"Ï":{"ha":331,"x_min":-14,"x_max":346,"o":"m 107 0 l 107 972 l 224 972 l 224 0 l 107 0 m 56 1076 q 6 1097 26 1076 q -14 1146 -14 1117 q 6 1194 -14 1174 q 56 1215 26 1215 q 104 1194 83 1215 q 125 1146 125 1174 q 104 1097 125 1117 q 56 1076 83 1076 m 278 1076 q 228 1097 249 1076 q 208 1146 208 1117 q 228 1194 208 1174 q 278 1215 249 1215 q 326 1194 306 1215 q 346 1146 346 1174 q 326 1097 346 1117 q 278 1076 306 1076 z "},"İ":{"ha":331,"x_min":96,"x_max":235,"o":"m 107 0 l 107 972 l 224 972 l 224 0 l 107 0 m 165 1064 q 117 1085 138 1064 q 96 1133 96 1106 q 117 1182 96 1161 q 165 1203 138 1203 q 214 1182 193 1203 q 235 1133 235 1161 q 214 1085 235 1106 q 165 1064 193 1064 z "},"Ì":{"ha":331,"x_min":10,"x_max":319,"o":"m 107 0 l 107 972 l 224 972 l 224 0 l 107 0 m 269 1032 l 10 1190 l 76 1285 l 76 1285 l 319 1107 l 269 1032 z "},"Ī":{"ha":331,"x_min":-76,"x_max":406,"o":"m 107 0 l 107 972 l 224 972 l 224 0 l 107 0 m -76 1106 l -76 1193 l 406 1193 l 406 1106 l -76 1106 z "},"Į":{"ha":331,"x_min":-40,"x_max":228,"o":"m 107 0 l 107 972 l 224 972 l 224 0 l 107 0 m 124 -281 q 44 -267 82 -281 q -17 -225 7 -254 q -40 -149 -40 -196 q -25 -85 -40 -115 q 26 -26 -10 -56 q 121 29 61 3 l 194 61 l 224 1 l 143 -37 q 74 -86 94 -61 q 54 -137 54 -111 q 77 -187 54 -169 q 138 -206 100 -206 q 181 -200 157 -206 q 228 -185 206 -194 l 228 -262 q 178 -276 206 -271 q 124 -281 151 -281 z "},"Ĩ":{"ha":331,"x_min":-31,"x_max":389,"o":"m 107 0 l 107 972 l 224 972 l 224 0 l 107 0 m 256 1050 q 193 1067 218 1050 q 147 1099 168 1083 q 96 1115 125 1115 q 58 1100 74 1115 q 38 1053 42 1085 l -31 1053 q 15 1158 -21 1122 q 101 1193 50 1193 q 163 1177 139 1193 q 210 1144 188 1161 q 261 1128 232 1128 q 301 1144 285 1128 q 321 1190 317 1160 l 389 1190 q 344 1086 381 1122 q 256 1050 308 1050 z "},"J":{"ha":704,"x_min":44,"x_max":597,"o":"m 326 -17 q 176 17 239 -17 q 78 113 113 50 q 44 261 44 175 l 163 261 q 178 173 163 213 q 230 110 194 133 q 325 88 265 88 q 417 110 383 88 q 466 170 451 132 q 481 257 481 208 l 481 972 l 597 972 l 597 257 q 526 55 597 126 q 326 -17 454 -17 z "},"K":{"ha":819,"x_min":107,"x_max":782,"o":"m 107 0 l 107 972 l 224 972 l 224 532 l 629 972 l 776 972 l 415 585 l 782 0 l 640 0 l 332 494 l 224 379 l 224 0 l 107 0 z "},"Ķ":{"ha":819,"x_min":107,"x_max":782,"o":"m 107 0 l 107 972 l 224 972 l 224 532 l 629 972 l 776 972 l 415 585 l 782 0 l 640 0 l 332 494 l 224 379 l 224 0 l 107 0 m 344 -331 l 344 -275 q 394 -255 379 -275 q 408 -196 408 -235 l 408 -176 l 346 -176 l 346 -69 l 465 -69 q 475 -124 472 -97 q 478 -172 478 -150 q 443 -293 478 -256 q 344 -331 408 -331 z "},"L":{"ha":738,"x_min":107,"x_max":676,"o":"m 107 0 l 107 972 l 224 972 l 224 93 l 676 93 l 676 0 l 107 0 z "},"Ĺ":{"ha":738,"x_min":13,"x_max":676,"o":"m 107 0 l 107 972 l 224 972 l 224 93 l 676 93 l 676 0 l 107 0 m 63 1032 l 13 1107 l 256 1285 l 256 1285 l 322 1190 l 63 1032 z "},"Ľ":{"ha":738,"x_min":107,"x_max":676,"o":"m 107 0 l 107 972 l 224 972 l 224 93 l 676 93 l 676 0 l 107 0 m 379 743 l 379 799 q 431 812 415 799 q 446 851 446 825 l 446 881 l 379 881 l 379 996 l 501 996 q 513 933 508 960 q 517 879 517 907 q 481 775 517 807 q 379 743 444 743 z "},"Ļ":{"ha":738,"x_min":107,"x_max":676,"o":"m 107 0 l 107 972 l 224 972 l 224 93 l 676 93 l 676 0 l 107 0 m 349 -331 l 349 -275 q 398 -255 383 -275 q 413 -196 413 -235 l 413 -176 l 350 -176 l 350 -69 l 469 -69 q 479 -124 476 -97 q 482 -172 482 -150 q 447 -293 482 -256 q 349 -331 413 -331 z "},"Ŀ":{"ha":738,"x_min":107,"x_max":676,"o":"m 107 0 l 107 972 l 224 972 l 224 93 l 676 93 l 676 0 l 107 0 m 504 407 q 448 430 471 407 q 425 486 425 453 q 448 543 425 521 q 504 565 471 565 q 562 543 540 565 q 583 486 583 521 q 562 430 583 453 q 504 407 540 407 z "},"Ł":{"ha":774,"x_min":28,"x_max":713,"o":"m 28 394 l 28 488 l 425 638 l 425 544 l 28 394 m 143 0 l 143 972 l 260 972 l 260 93 l 713 93 l 713 0 l 143 0 z "},"M":{"ha":1146,"x_min":107,"x_max":1039,"o":"m 107 0 l 107 972 l 243 972 l 574 288 l 574 288 l 901 972 l 1039 972 l 1039 0 l 922 0 l 922 763 l 922 763 l 617 128 l 529 128 l 224 757 l 224 757 l 224 0 l 107 0 z "},"N":{"ha":965,"x_min":107,"x_max":858,"o":"m 107 0 l 107 972 l 224 972 l 742 192 l 742 192 l 742 972 l 858 972 l 858 0 l 742 0 l 224 781 l 224 781 l 224 0 l 107 0 z "},"Ń":{"ha":965,"x_min":107,"x_max":858,"o":"m 107 0 l 107 972 l 224 972 l 742 192 l 742 192 l 742 972 l 858 972 l 858 0 l 742 0 l 224 781 l 224 781 l 224 0 l 107 0 m 378 1032 l 328 1107 l 571 1285 l 571 1285 l 638 1190 l 378 1032 z "},"Ň":{"ha":965,"x_min":107,"x_max":858,"o":"m 107 0 l 107 972 l 224 972 l 742 192 l 742 192 l 742 972 l 858 972 l 858 0 l 742 0 l 224 781 l 224 781 l 224 0 l 107 0 m 483 1047 l 293 1161 l 293 1251 l 483 1135 l 674 1251 l 674 1161 l 483 1047 z "},"Ņ":{"ha":965,"x_min":107,"x_max":858,"o":"m 107 0 l 107 972 l 224 972 l 742 192 l 742 192 l 742 972 l 858 972 l 858 0 l 742 0 l 224 781 l 224 781 l 224 0 l 107 0 m 417 -331 l 417 -275 q 466 -255 451 -275 q 481 -196 481 -235 l 481 -176 l 418 -176 l 418 -69 l 538 -69 q 547 -124 544 -97 q 550 -172 550 -150 q 515 -293 550 -256 q 417 -331 481 -331 z "},"Ñ":{"ha":965,"x_min":107,"x_max":858,"o":"m 107 0 l 107 972 l 224 972 l 742 192 l 742 192 l 742 972 l 858 972 l 858 0 l 742 0 l 224 781 l 224 781 l 224 0 l 107 0 m 574 1050 q 511 1067 536 1050 q 465 1099 486 1083 q 414 1115 443 1115 q 376 1100 392 1115 q 356 1053 360 1085 l 288 1053 q 333 1158 297 1122 q 419 1193 368 1193 q 481 1177 457 1193 q 528 1144 506 1161 q 579 1128 550 1128 q 619 1144 603 1128 q 639 1190 635 1160 l 707 1190 q 663 1086 699 1122 q 574 1050 626 1050 z "},"Ŋ":{"ha":965,"x_min":107,"x_max":858,"o":"m 107 0 l 107 972 l 224 972 l 742 192 l 742 192 l 742 972 l 858 972 l 858 -114 q 836 -223 858 -181 q 770 -285 814 -265 q 663 -306 726 -306 l 590 -306 l 590 -206 l 644 -206 q 719 -184 697 -206 q 742 -111 742 -162 l 742 0 l 224 781 l 224 781 l 224 0 l 107 0 z "},"O":{"ha":1036,"x_min":68,"x_max":968,"o":"m 518 -17 q 283 47 385 -17 q 125 223 182 110 q 68 486 68 336 q 125 748 68 635 q 283 925 182 861 q 518 989 385 989 q 756 925 654 989 q 913 748 857 861 q 968 486 968 635 q 913 223 968 336 q 756 47 857 110 q 518 -17 654 -17 m 518 86 q 692 134 618 86 q 808 272 767 182 q 849 486 849 361 q 808 701 849 611 q 692 838 767 790 q 518 885 618 885 q 345 838 419 885 q 229 701 271 790 q 188 486 188 611 q 229 272 188 361 q 345 134 271 182 q 518 86 419 86 z "},"Ó":{"ha":1036,"x_min":68,"x_max":968,"o":"m 518 -17 q 283 47 385 -17 q 125 223 182 110 q 68 486 68 336 q 125 748 68 635 q 283 925 182 861 q 518 989 385 989 q 756 925 654 989 q 913 748 857 861 q 968 486 968 635 q 913 223 968 336 q 756 47 857 110 q 518 -17 654 -17 m 518 86 q 692 134 618 86 q 808 272 767 182 q 849 486 849 361 q 808 701 849 611 q 692 838 767 790 q 518 885 618 885 q 345 838 419 885 q 229 701 271 790 q 188 486 188 611 q 229 272 188 361 q 345 134 271 182 q 518 86 419 86 m 413 1032 l 363 1107 l 606 1285 l 606 1285 l 672 1190 l 413 1032 z "},"Ŏ":{"ha":1036,"x_min":68,"x_max":968,"o":"m 518 -17 q 283 47 385 -17 q 125 223 182 110 q 68 486 68 336 q 125 748 68 635 q 283 925 182 861 q 518 989 385 989 q 756 925 654 989 q 913 748 857 861 q 968 486 968 635 q 913 223 968 336 q 756 47 857 110 q 518 -17 654 -17 m 518 86 q 692 134 618 86 q 808 272 767 182 q 849 486 849 361 q 808 701 849 611 q 692 838 767 790 q 518 885 618 885 q 345 838 419 885 q 229 701 271 790 q 188 486 188 611 q 229 272 188 361 q 345 134 271 182 q 518 86 419 86 m 518 1051 q 411 1076 454 1051 q 346 1141 368 1100 q 324 1232 324 1182 l 324 1251 l 393 1251 q 422 1172 393 1200 q 518 1143 451 1143 q 614 1172 585 1143 q 643 1251 643 1200 l 714 1251 l 714 1232 q 691 1141 714 1182 q 625 1076 668 1100 q 518 1051 582 1051 z "},"Ô":{"ha":1036,"x_min":68,"x_max":968,"o":"m 518 -17 q 283 47 385 -17 q 125 223 182 110 q 68 486 68 336 q 125 748 68 635 q 283 925 182 861 q 518 989 385 989 q 756 925 654 989 q 913 748 857 861 q 968 486 968 635 q 913 223 968 336 q 756 47 857 110 q 518 -17 654 -17 m 518 86 q 692 134 618 86 q 808 272 767 182 q 849 486 849 361 q 808 701 849 611 q 692 838 767 790 q 518 885 618 885 q 345 838 419 885 q 229 701 271 790 q 188 486 188 611 q 229 272 188 361 q 345 134 271 182 q 518 86 419 86 m 328 1049 l 328 1140 l 518 1253 l 708 1140 l 708 1049 l 518 1165 l 328 1049 z "},"Ö":{"ha":1036,"x_min":68,"x_max":968,"o":"m 518 -17 q 283 47 385 -17 q 125 223 182 110 q 68 486 68 336 q 125 748 68 635 q 283 925 182 861 q 518 989 385 989 q 756 925 654 989 q 913 748 857 861 q 968 486 968 635 q 913 223 968 336 q 756 47 857 110 q 518 -17 654 -17 m 518 86 q 692 134 618 86 q 808 272 767 182 q 849 486 849 361 q 808 701 849 611 q 692 838 767 790 q 518 885 618 885 q 345 838 419 885 q 229 701 271 790 q 188 486 188 611 q 229 272 188 361 q 345 134 271 182 q 518 86 419 86 m 408 1076 q 359 1097 379 1076 q 339 1146 339 1117 q 359 1194 339 1174 q 408 1215 379 1215 q 457 1194 436 1215 q 478 1146 478 1174 q 457 1097 478 1117 q 408 1076 436 1076 m 631 1076 q 581 1097 601 1076 q 561 1146 561 1117 q 581 1194 561 1174 q 631 1215 601 1215 q 678 1194 658 1215 q 699 1146 699 1174 q 678 1097 699 1117 q 631 1076 658 1076 z "},"Ò":{"ha":1036,"x_min":68,"x_max":968,"o":"m 518 -17 q 283 47 385 -17 q 125 223 182 110 q 68 486 68 336 q 125 748 68 635 q 283 925 182 861 q 518 989 385 989 q 756 925 654 989 q 913 748 857 861 q 968 486 968 635 q 913 223 968 336 q 756 47 857 110 q 518 -17 654 -17 m 518 86 q 692 134 618 86 q 808 272 767 182 q 849 486 849 361 q 808 701 849 611 q 692 838 767 790 q 518 885 618 885 q 345 838 419 885 q 229 701 271 790 q 188 486 188 611 q 229 272 188 361 q 345 134 271 182 q 518 86 419 86 m 622 1032 l 363 1190 l 429 1285 l 429 1285 l 672 1107 l 622 1032 z "},"Ő":{"ha":1036,"x_min":68,"x_max":968,"o":"m 518 -17 q 283 47 385 -17 q 125 223 182 110 q 68 486 68 336 q 125 748 68 635 q 283 925 182 861 q 518 989 385 989 q 756 925 654 989 q 913 748 857 861 q 968 486 968 635 q 913 223 968 336 q 756 47 857 110 q 518 -17 654 -17 m 518 86 q 692 134 618 86 q 808 272 767 182 q 849 486 849 361 q 808 701 849 611 q 692 838 767 790 q 518 885 618 885 q 345 838 419 885 q 229 701 271 790 q 188 486 188 611 q 229 272 188 361 q 345 134 271 182 q 518 86 419 86 m 568 1046 l 668 1253 l 769 1253 l 646 1046 l 568 1046 m 365 1046 l 457 1253 l 558 1253 l 444 1046 l 365 1046 z "},"Ō":{"ha":1036,"x_min":68,"x_max":968,"o":"m 518 -17 q 283 47 385 -17 q 125 223 182 110 q 68 486 68 336 q 125 748 68 635 q 283 925 182 861 q 518 989 385 989 q 756 925 654 989 q 913 748 857 861 q 968 486 968 635 q 913 223 968 336 q 756 47 857 110 q 518 -17 654 -17 m 518 86 q 692 134 618 86 q 808 272 767 182 q 849 486 849 361 q 808 701 849 611 q 692 838 767 790 q 518 885 618 885 q 345 838 419 885 q 229 701 271 790 q 188 486 188 611 q 229 272 188 361 q 345 134 271 182 q 518 86 419 86 m 276 1106 l 276 1193 l 758 1193 l 758 1106 l 276 1106 z "},"Ø":{"ha":1038,"x_min":28,"x_max":1011,"o":"m 28 0 l 888 972 l 1011 972 l 153 0 l 28 0 m 518 -17 q 283 47 385 -17 q 125 223 182 110 q 68 486 68 336 q 125 748 68 635 q 283 925 182 861 q 518 989 385 989 q 756 925 654 989 q 913 748 857 861 q 968 486 968 635 q 913 223 968 336 q 756 47 857 110 q 518 -17 654 -17 m 518 86 q 692 134 618 86 q 808 272 767 182 q 849 486 849 361 q 808 701 849 611 q 692 838 767 790 q 518 885 618 885 q 345 838 419 885 q 229 701 271 790 q 188 486 188 611 q 229 272 188 361 q 345 134 271 182 q 518 86 419 86 z "},"Õ":{"ha":1036,"x_min":68,"x_max":968,"o":"m 518 -17 q 283 47 385 -17 q 125 223 182 110 q 68 486 68 336 q 125 748 68 635 q 283 925 182 861 q 518 989 385 989 q 756 925 654 989 q 913 748 857 861 q 968 486 968 635 q 913 223 968 336 q 756 47 857 110 q 518 -17 654 -17 m 518 86 q 692 134 618 86 q 808 272 767 182 q 849 486 849 361 q 808 701 849 611 q 692 838 767 790 q 518 885 618 885 q 345 838 419 885 q 229 701 271 790 q 188 486 188 611 q 229 272 188 361 q 345 134 271 182 q 518 86 419 86 m 608 1050 q 546 1067 571 1050 q 499 1099 521 1083 q 449 1115 478 1115 q 410 1100 426 1115 q 390 1053 394 1085 l 322 1053 q 367 1158 332 1122 q 454 1193 403 1193 q 516 1177 492 1193 q 563 1144 540 1161 q 614 1128 585 1128 q 653 1144 638 1128 q 674 1190 669 1160 l 742 1190 q 697 1086 733 1122 q 608 1050 661 1050 z "},"Œ":{"ha":1532,"x_min":68,"x_max":1450,"o":"m 518 -17 q 335 19 418 -17 q 193 123 253 56 q 101 282 133 190 q 68 486 68 374 q 101 690 68 597 q 193 849 133 782 q 335 952 253 915 q 518 989 418 989 q 706 951 622 989 q 849 843 790 913 l 849 972 l 1450 972 l 1450 876 l 965 876 l 965 538 l 1408 538 l 1408 443 l 965 443 l 965 96 l 1450 96 l 1450 0 l 849 0 l 849 128 q 759 50 810 82 q 648 1 708 18 q 518 -17 588 -17 m 518 86 q 692 134 618 86 q 808 272 767 182 q 849 486 849 361 q 808 701 849 611 q 692 838 767 790 q 518 885 618 885 q 345 838 419 885 q 229 701 271 790 q 188 486 188 611 q 229 272 188 361 q 345 134 271 182 q 518 86 419 86 z "},"P":{"ha":811,"x_min":107,"x_max":758,"o":"m 107 0 l 107 972 l 419 972 q 611 933 536 972 q 722 828 686 894 q 758 679 758 763 q 722 531 758 597 q 612 425 686 464 q 419 386 538 386 l 224 386 l 224 0 l 107 0 m 224 485 l 418 485 q 590 538 540 485 q 639 679 639 592 q 590 823 639 771 q 418 875 540 875 l 224 875 l 224 485 z "},"Þ":{"ha":811,"x_min":107,"x_max":758,"o":"m 107 0 l 107 972 l 224 972 l 224 769 l 426 769 q 614 733 540 769 q 723 632 688 696 q 758 486 758 568 q 724 343 758 407 q 615 242 689 279 q 426 204 542 204 l 224 204 l 224 0 l 107 0 m 224 301 l 424 301 q 589 351 539 301 q 639 486 639 401 q 589 624 639 575 q 424 672 539 672 l 224 672 l 224 301 z "},"Q":{"ha":1036,"x_min":68,"x_max":968,"o":"m 775 -132 l 449 379 l 583 379 l 910 -132 l 775 -132 m 518 -17 q 283 47 385 -17 q 125 223 182 110 q 68 486 68 336 q 125 748 68 635 q 283 925 182 861 q 518 989 385 989 q 756 925 654 989 q 913 748 857 861 q 968 486 968 635 q 913 223 968 336 q 756 47 857 110 q 518 -17 654 -17 m 518 86 q 692 134 618 86 q 808 272 767 182 q 849 486 849 361 q 808 701 849 611 q 692 838 767 790 q 518 885 618 885 q 345 838 419 885 q 229 701 271 790 q 188 486 188 611 q 229 272 188 361 q 345 134 271 182 q 518 86 419 86 z "},"R":{"ha":831,"x_min":107,"x_max":758,"o":"m 107 0 l 107 972 l 421 972 q 607 934 535 972 q 714 832 679 896 q 749 688 749 768 q 713 544 749 610 q 604 440 678 479 q 415 401 531 401 l 224 401 l 224 0 l 107 0 m 621 0 l 407 435 l 538 435 l 758 0 l 621 0 m 224 493 l 413 493 q 576 547 524 493 q 628 686 628 601 q 577 823 628 772 q 411 874 526 874 l 224 874 l 224 493 z "},"Ŕ":{"ha":831,"x_min":107,"x_max":758,"o":"m 107 0 l 107 972 l 421 972 q 607 934 535 972 q 714 832 679 896 q 749 688 749 768 q 713 544 749 610 q 604 440 678 479 q 415 401 531 401 l 224 401 l 224 0 l 107 0 m 621 0 l 407 435 l 538 435 l 758 0 l 621 0 m 224 493 l 413 493 q 576 547 524 493 q 628 686 628 601 q 577 823 628 772 q 411 874 526 874 l 224 874 l 224 493 m 269 1032 l 219 1107 l 463 1285 l 463 1285 l 529 1190 l 269 1032 z "},"Ř":{"ha":831,"x_min":107,"x_max":758,"o":"m 107 0 l 107 972 l 421 972 q 607 934 535 972 q 714 832 679 896 q 749 688 749 768 q 713 544 749 610 q 604 440 678 479 q 415 401 531 401 l 224 401 l 224 0 l 107 0 m 621 0 l 407 435 l 538 435 l 758 0 l 621 0 m 224 493 l 413 493 q 576 547 524 493 q 628 686 628 601 q 577 823 628 772 q 411 874 526 874 l 224 874 l 224 493 m 375 1047 l 185 1161 l 185 1251 l 375 1135 l 565 1251 l 565 1161 l 375 1047 z "},"Ŗ":{"ha":831,"x_min":107,"x_max":758,"o":"m 107 0 l 107 972 l 421 972 q 607 934 535 972 q 714 832 679 896 q 749 688 749 768 q 713 544 749 610 q 604 440 678 479 q 415 401 531 401 l 224 401 l 224 0 l 107 0 m 621 0 l 407 435 l 538 435 l 758 0 l 621 0 m 224 493 l 413 493 q 576 547 524 493 q 628 686 628 601 q 577 823 628 772 q 411 874 526 874 l 224 874 l 224 493 m 308 -331 l 308 -275 q 358 -255 343 -275 q 372 -196 372 -235 l 372 -176 l 310 -176 l 310 -69 l 429 -69 q 439 -124 436 -97 q 442 -172 442 -150 q 407 -293 442 -256 q 308 -331 372 -331 z "},"S":{"ha":814,"x_min":67,"x_max":746,"o":"m 418 -17 q 232 22 311 -17 q 110 131 153 61 q 67 292 67 200 l 189 292 q 215 187 189 235 q 292 110 242 139 q 418 82 343 82 q 530 103 483 82 q 601 163 576 125 q 625 247 625 200 q 602 335 625 300 q 539 394 579 371 q 446 435 499 417 q 332 472 393 453 q 155 570 210 511 q 100 722 100 629 q 137 861 100 801 q 242 955 174 921 q 406 989 311 989 q 567 954 499 989 q 675 859 636 919 q 714 719 714 799 l 592 719 q 571 799 592 760 q 508 863 550 838 q 401 889 465 889 q 308 872 349 890 q 244 818 267 853 q 221 733 221 783 q 241 657 221 686 q 299 608 261 628 q 389 571 338 588 q 503 533 440 554 q 628 476 574 510 q 715 389 683 442 q 746 254 746 336 q 709 123 746 185 q 600 22 672 61 q 418 -17 528 -17 z "},"Ś":{"ha":814,"x_min":67,"x_max":746,"o":"m 418 -17 q 232 22 311 -17 q 110 131 153 61 q 67 292 67 200 l 189 292 q 215 187 189 235 q 292 110 242 139 q 418 82 343 82 q 530 103 483 82 q 601 163 576 125 q 625 247 625 200 q 602 335 625 300 q 539 394 579 371 q 446 435 499 417 q 332 472 393 453 q 155 570 210 511 q 100 722 100 629 q 137 861 100 801 q 242 955 174 921 q 406 989 311 989 q 567 954 499 989 q 675 859 636 919 q 714 719 714 799 l 592 719 q 571 799 592 760 q 508 863 550 838 q 401 889 465 889 q 308 872 349 890 q 244 818 267 853 q 221 733 221 783 q 241 657 221 686 q 299 608 261 628 q 389 571 338 588 q 503 533 440 554 q 628 476 574 510 q 715 389 683 442 q 746 254 746 336 q 709 123 746 185 q 600 22 672 61 q 418 -17 528 -17 m 299 1032 l 249 1107 l 492 1285 l 492 1285 l 558 1190 l 299 1032 z "},"Š":{"ha":814,"x_min":67,"x_max":746,"o":"m 418 -17 q 232 22 311 -17 q 110 131 153 61 q 67 292 67 200 l 189 292 q 215 187 189 235 q 292 110 242 139 q 418 82 343 82 q 530 103 483 82 q 601 163 576 125 q 625 247 625 200 q 602 335 625 300 q 539 394 579 371 q 446 435 499 417 q 332 472 393 453 q 155 570 210 511 q 100 722 100 629 q 137 861 100 801 q 242 955 174 921 q 406 989 311 989 q 567 954 499 989 q 675 859 636 919 q 714 719 714 799 l 592 719 q 571 799 592 760 q 508 863 550 838 q 401 889 465 889 q 308 872 349 890 q 244 818 267 853 q 221 733 221 783 q 241 657 221 686 q 299 608 261 628 q 389 571 338 588 q 503 533 440 554 q 628 476 574 510 q 715 389 683 442 q 746 254 746 336 q 709 123 746 185 q 600 22 672 61 q 418 -17 528 -17 m 404 1047 l 214 1161 l 214 1251 l 404 1135 l 594 1251 l 594 1161 l 404 1047 z "},"Ş":{"ha":814,"x_min":67,"x_max":746,"o":"m 418 -17 q 232 22 311 -17 q 110 131 153 61 q 67 292 67 200 l 189 292 q 215 187 189 235 q 292 110 242 139 q 418 82 343 82 q 530 103 483 82 q 601 163 576 125 q 625 247 625 200 q 602 335 625 300 q 539 394 579 371 q 446 435 499 417 q 332 472 393 453 q 155 570 210 511 q 100 722 100 629 q 137 861 100 801 q 242 955 174 921 q 406 989 311 989 q 567 954 499 989 q 675 859 636 919 q 714 719 714 799 l 592 719 q 571 799 592 760 q 508 863 550 838 q 401 889 465 889 q 308 872 349 890 q 244 818 267 853 q 221 733 221 783 q 241 657 221 686 q 299 608 261 628 q 389 571 338 588 q 503 533 440 554 q 628 476 574 510 q 715 389 683 442 q 746 254 746 336 q 709 123 746 185 q 600 22 672 61 q 418 -17 528 -17 m 322 -361 l 322 -287 l 450 -287 q 522 -271 499 -287 q 544 -221 544 -254 q 522 -174 544 -190 q 450 -158 499 -158 l 382 -158 l 382 8 l 460 8 l 460 -89 q 553 -102 513 -87 q 616 -147 593 -117 q 639 -222 639 -178 q 617 -297 639 -265 q 558 -344 596 -328 q 471 -361 519 -361 l 322 -361 z "},"Ș":{"ha":814,"x_min":67,"x_max":746,"o":"m 418 -17 q 232 22 311 -17 q 110 131 153 61 q 67 292 67 200 l 189 292 q 215 187 189 235 q 292 110 242 139 q 418 82 343 82 q 530 103 483 82 q 601 163 576 125 q 625 247 625 200 q 602 335 625 300 q 539 394 579 371 q 446 435 499 417 q 332 472 393 453 q 155 570 210 511 q 100 722 100 629 q 137 861 100 801 q 242 955 174 921 q 406 989 311 989 q 567 954 499 989 q 675 859 636 919 q 714 719 714 799 l 592 719 q 571 799 592 760 q 508 863 550 838 q 401 889 465 889 q 308 872 349 890 q 244 818 267 853 q 221 733 221 783 q 241 657 221 686 q 299 608 261 628 q 389 571 338 588 q 503 533 440 554 q 628 476 574 510 q 715 389 683 442 q 746 254 746 336 q 709 123 746 185 q 600 22 672 61 q 418 -17 528 -17 m 349 -331 l 349 -275 q 398 -255 383 -275 q 413 -196 413 -235 l 413 -176 l 350 -176 l 350 -69 l 469 -69 q 479 -124 476 -97 q 482 -172 482 -150 q 447 -293 482 -256 q 349 -331 413 -331 z "},"ẞ":{"ha":949,"x_min":107,"x_max":881,"o":"m 592 -7 q 378 68 451 -7 q 304 289 304 143 l 419 289 q 459 147 419 204 q 592 90 499 90 q 695 118 657 90 q 750 192 733 146 q 767 290 767 238 q 709 455 767 397 q 550 513 651 513 l 390 513 l 390 594 l 671 874 l 322 874 q 247 851 269 874 q 224 776 224 829 l 224 0 l 107 0 l 107 781 q 129 890 107 847 q 195 952 151 932 q 303 972 239 972 l 815 972 l 815 883 l 529 601 l 556 601 q 730 566 657 601 q 842 463 803 531 q 881 299 881 394 q 846 137 881 206 q 747 31 811 68 q 592 -7 682 -7 z "},"T":{"ha":783,"x_min":43,"x_max":740,"o":"m 333 0 l 333 876 l 43 876 l 43 972 l 740 972 l 740 876 l 450 876 l 450 0 l 333 0 z "},"Ť":{"ha":783,"x_min":43,"x_max":740,"o":"m 333 0 l 333 876 l 43 876 l 43 972 l 740 972 l 740 876 l 450 876 l 450 0 l 333 0 m 392 1047 l 201 1161 l 201 1251 l 392 1135 l 582 1251 l 582 1161 l 392 1047 z "},"Ţ":{"ha":783,"x_min":43,"x_max":740,"o":"m 333 0 l 333 876 l 43 876 l 43 972 l 740 972 l 740 876 l 450 876 l 450 0 l 333 0 m 296 -361 l 296 -287 l 424 -287 q 495 -271 472 -287 q 518 -221 518 -254 q 495 -174 518 -190 q 424 -158 472 -158 l 356 -158 l 356 8 l 433 8 l 433 -89 q 526 -102 486 -87 q 590 -147 567 -117 q 613 -222 613 -178 q 591 -297 613 -265 q 531 -344 569 -328 q 444 -361 493 -361 l 296 -361 z "},"Ț":{"ha":783,"x_min":43,"x_max":740,"o":"m 333 0 l 333 876 l 43 876 l 43 972 l 740 972 l 740 876 l 450 876 l 450 0 l 333 0 m 322 -331 l 322 -275 q 372 -255 357 -275 q 386 -196 386 -235 l 386 -176 l 324 -176 l 324 -69 l 443 -69 q 453 -124 450 -97 q 456 -172 456 -150 q 421 -293 456 -256 q 322 -331 386 -331 z "},"U":{"ha":908,"x_min":93,"x_max":815,"o":"m 453 -17 q 272 24 353 -17 q 142 147 190 64 q 93 358 93 229 l 93 972 l 210 972 l 210 357 q 241 203 210 263 q 328 115 272 143 q 456 88 383 88 q 583 115 529 88 q 668 203 638 143 q 699 357 699 263 l 699 972 l 815 972 l 815 358 q 767 147 815 229 q 636 24 718 64 q 453 -17 554 -17 z "},"Ú":{"ha":908,"x_min":93,"x_max":815,"o":"m 453 -17 q 272 24 353 -17 q 142 147 190 64 q 93 358 93 229 l 93 972 l 210 972 l 210 357 q 241 203 210 263 q 328 115 272 143 q 456 88 383 88 q 583 115 529 88 q 668 203 638 143 q 699 357 699 263 l 699 972 l 815 972 l 815 358 q 767 147 815 229 q 636 24 718 64 q 453 -17 554 -17 m 347 1032 l 297 1107 l 540 1285 l 540 1285 l 607 1190 l 347 1032 z "},"Ŭ":{"ha":908,"x_min":93,"x_max":815,"o":"m 453 -17 q 272 24 353 -17 q 142 147 190 64 q 93 358 93 229 l 93 972 l 210 972 l 210 357 q 241 203 210 263 q 328 115 272 143 q 456 88 383 88 q 583 115 529 88 q 668 203 638 143 q 699 357 699 263 l 699 972 l 815 972 l 815 358 q 767 147 815 229 q 636 24 718 64 q 453 -17 554 -17 m 453 1051 q 346 1076 389 1051 q 281 1141 303 1100 q 258 1232 258 1182 l 258 1251 l 328 1251 q 357 1172 328 1200 q 453 1143 386 1143 q 549 1172 519 1143 q 578 1251 578 1200 l 649 1251 l 649 1232 q 626 1141 649 1182 q 560 1076 603 1100 q 453 1051 517 1051 z "},"Û":{"ha":908,"x_min":93,"x_max":815,"o":"m 453 -17 q 272 24 353 -17 q 142 147 190 64 q 93 358 93 229 l 93 972 l 210 972 l 210 357 q 241 203 210 263 q 328 115 272 143 q 456 88 383 88 q 583 115 529 88 q 668 203 638 143 q 699 357 699 263 l 699 972 l 815 972 l 815 358 q 767 147 815 229 q 636 24 718 64 q 453 -17 554 -17 m 263 1049 l 263 1140 l 453 1253 l 643 1140 l 643 1049 l 453 1165 l 263 1049 z "},"Ü":{"ha":908,"x_min":93,"x_max":815,"o":"m 453 -17 q 272 24 353 -17 q 142 147 190 64 q 93 358 93 229 l 93 972 l 210 972 l 210 357 q 241 203 210 263 q 328 115 272 143 q 456 88 383 88 q 583 115 529 88 q 668 203 638 143 q 699 357 699 263 l 699 972 l 815 972 l 815 358 q 767 147 815 229 q 636 24 718 64 q 453 -17 554 -17 m 343 1076 q 294 1097 314 1076 q 274 1146 274 1117 q 294 1194 274 1174 q 343 1215 314 1215 q 392 1194 371 1215 q 413 1146 413 1174 q 392 1097 413 1117 q 343 1076 371 1076 m 565 1076 q 516 1097 536 1076 q 496 1146 496 1117 q 516 1194 496 1174 q 565 1215 536 1215 q 613 1194 593 1215 q 633 1146 633 1174 q 613 1097 633 1117 q 565 1076 593 1076 z "},"Ù":{"ha":908,"x_min":93,"x_max":815,"o":"m 453 -17 q 272 24 353 -17 q 142 147 190 64 q 93 358 93 229 l 93 972 l 210 972 l 210 357 q 241 203 210 263 q 328 115 272 143 q 456 88 383 88 q 583 115 529 88 q 668 203 638 143 q 699 357 699 263 l 699 972 l 815 972 l 815 358 q 767 147 815 229 q 636 24 718 64 q 453 -17 554 -17 m 557 1032 l 297 1190 l 364 1285 l 364 1285 l 607 1107 l 557 1032 z "},"Ű":{"ha":908,"x_min":93,"x_max":815,"o":"m 453 -17 q 272 24 353 -17 q 142 147 190 64 q 93 358 93 229 l 93 972 l 210 972 l 210 357 q 241 203 210 263 q 328 115 272 143 q 456 88 383 88 q 583 115 529 88 q 668 203 638 143 q 699 357 699 263 l 699 972 l 815 972 l 815 358 q 767 147 815 229 q 636 24 718 64 q 453 -17 554 -17 m 503 1046 l 603 1253 l 704 1253 l 581 1046 l 503 1046 m 300 1046 l 392 1253 l 493 1253 l 379 1046 l 300 1046 z "},"Ū":{"ha":908,"x_min":93,"x_max":815,"o":"m 453 -17 q 272 24 353 -17 q 142 147 190 64 q 93 358 93 229 l 93 972 l 210 972 l 210 357 q 241 203 210 263 q 328 115 272 143 q 456 88 383 88 q 583 115 529 88 q 668 203 638 143 q 699 357 699 263 l 699 972 l 815 972 l 815 358 q 767 147 815 229 q 636 24 718 64 q 453 -17 554 -17 m 211 1106 l 211 1193 l 693 1193 l 693 1106 l 211 1106 z "},"Ų":{"ha":908,"x_min":93,"x_max":815,"o":"m 453 -17 q 272 24 353 -17 q 142 147 190 64 q 93 358 93 229 l 93 972 l 210 972 l 210 357 q 241 203 210 263 q 328 115 272 143 q 456 88 383 88 q 583 115 529 88 q 668 203 638 143 q 699 357 699 263 l 699 972 l 815 972 l 815 358 q 767 147 815 229 q 636 24 718 64 q 453 -17 554 -17 m 460 -282 q 381 -269 418 -282 q 319 -226 343 -256 q 296 -150 296 -197 q 311 -87 296 -117 q 362 -28 326 -57 q 457 28 397 1 l 531 60 l 560 0 l 479 -39 q 410 -87 431 -62 q 390 -139 390 -112 q 413 -189 390 -171 q 474 -207 436 -207 q 517 -201 493 -207 q 564 -186 542 -196 l 564 -264 q 515 -277 542 -272 q 460 -282 488 -282 z "},"Ů":{"ha":908,"x_min":93,"x_max":815,"o":"m 453 -17 q 272 24 353 -17 q 142 147 190 64 q 93 358 93 229 l 93 972 l 210 972 l 210 357 q 241 203 210 263 q 328 115 272 143 q 456 88 383 88 q 583 115 529 88 q 668 203 638 143 q 699 357 699 263 l 699 972 l 815 972 l 815 358 q 767 147 815 229 q 636 24 718 64 q 453 -17 554 -17 m 453 1057 q 350 1095 393 1057 q 307 1200 307 1133 q 350 1305 307 1267 q 453 1343 393 1343 q 556 1305 514 1343 q 599 1200 599 1267 q 556 1095 599 1133 q 453 1057 514 1057 m 453 1117 q 509 1140 486 1117 q 532 1200 532 1163 q 509 1260 532 1239 q 453 1282 486 1282 q 397 1260 421 1282 q 374 1200 374 1239 q 397 1140 374 1163 q 453 1117 421 1117 z "},"Ũ":{"ha":908,"x_min":93,"x_max":815,"o":"m 453 -17 q 272 24 353 -17 q 142 147 190 64 q 93 358 93 229 l 93 972 l 210 972 l 210 357 q 241 203 210 263 q 328 115 272 143 q 456 88 383 88 q 583 115 529 88 q 668 203 638 143 q 699 357 699 263 l 699 972 l 815 972 l 815 358 q 767 147 815 229 q 636 24 718 64 q 453 -17 554 -17 m 543 1050 q 481 1067 506 1050 q 434 1099 456 1083 q 383 1115 413 1115 q 345 1100 361 1115 q 325 1053 329 1085 l 257 1053 q 302 1158 267 1122 q 389 1193 338 1193 q 451 1177 426 1193 q 497 1144 475 1161 q 549 1128 519 1128 q 588 1144 572 1128 q 608 1190 604 1160 l 676 1190 q 632 1086 668 1122 q 543 1050 596 1050 z "},"V":{"ha":931,"x_min":32,"x_max":899,"o":"m 397 0 l 32 972 l 158 972 l 465 124 l 465 124 l 775 972 l 899 972 l 533 0 l 397 0 z "},"W":{"ha":1347,"x_min":39,"x_max":1311,"o":"m 306 0 l 39 972 l 164 972 l 374 139 l 374 139 l 611 972 l 742 972 l 974 136 l 974 136 l 1186 972 l 1311 972 l 1039 0 l 906 0 l 674 804 l 674 804 l 436 0 l 306 0 z "},"Ẃ":{"ha":1347,"x_min":39,"x_max":1311,"o":"m 306 0 l 39 972 l 164 972 l 374 139 l 374 139 l 611 972 l 742 972 l 974 136 l 974 136 l 1186 972 l 1311 972 l 1039 0 l 906 0 l 674 804 l 674 804 l 436 0 l 306 0 m 571 1032 l 521 1107 l 764 1285 l 764 1285 l 831 1190 l 571 1032 z "},"Ŵ":{"ha":1347,"x_min":39,"x_max":1311,"o":"m 306 0 l 39 972 l 164 972 l 374 139 l 374 139 l 611 972 l 742 972 l 974 136 l 974 136 l 1186 972 l 1311 972 l 1039 0 l 906 0 l 674 804 l 674 804 l 436 0 l 306 0 m 486 1049 l 486 1140 l 676 1253 l 867 1140 l 867 1049 l 676 1165 l 486 1049 z "},"Ẅ":{"ha":1347,"x_min":39,"x_max":1311,"o":"m 306 0 l 39 972 l 164 972 l 374 139 l 374 139 l 611 972 l 742 972 l 974 136 l 974 136 l 1186 972 l 1311 972 l 1039 0 l 906 0 l 674 804 l 674 804 l 436 0 l 306 0 m 567 1076 q 517 1097 538 1076 q 497 1146 497 1117 q 517 1194 497 1174 q 567 1215 538 1215 q 615 1194 594 1215 q 636 1146 636 1174 q 615 1097 636 1117 q 567 1076 594 1076 m 789 1076 q 740 1097 760 1076 q 719 1146 719 1117 q 740 1194 719 1174 q 789 1215 760 1215 q 837 1194 817 1215 q 857 1146 857 1174 q 837 1097 857 1117 q 789 1076 817 1076 z "},"Ẁ":{"ha":1347,"x_min":39,"x_max":1311,"o":"m 306 0 l 39 972 l 164 972 l 374 139 l 374 139 l 611 972 l 742 972 l 974 136 l 974 136 l 1186 972 l 1311 972 l 1039 0 l 906 0 l 674 804 l 674 804 l 436 0 l 306 0 m 781 1032 l 521 1190 l 588 1285 l 588 1285 l 831 1107 l 781 1032 z "},"X":{"ha":839,"x_min":54,"x_max":785,"o":"m 54 0 l 351 490 l 54 972 l 186 972 l 425 585 l 425 585 l 653 972 l 783 972 l 486 486 l 785 0 l 653 0 l 413 392 l 413 392 l 186 0 l 54 0 z "},"Y":{"ha":807,"x_min":29,"x_max":778,"o":"m 346 0 l 346 369 l 29 972 l 161 972 l 404 481 l 404 481 l 647 972 l 778 972 l 463 369 l 463 0 l 346 0 z "},"Ý":{"ha":807,"x_min":29,"x_max":778,"o":"m 346 0 l 346 369 l 29 972 l 161 972 l 404 481 l 404 481 l 647 972 l 778 972 l 463 369 l 463 0 l 346 0 m 299 1032 l 249 1107 l 492 1285 l 492 1285 l 558 1190 l 299 1032 z "},"Ŷ":{"ha":807,"x_min":29,"x_max":778,"o":"m 346 0 l 346 369 l 29 972 l 161 972 l 404 481 l 404 481 l 647 972 l 778 972 l 463 369 l 463 0 l 346 0 m 214 1049 l 214 1140 l 404 1253 l 594 1140 l 594 1049 l 404 1165 l 214 1049 z "},"Ÿ":{"ha":807,"x_min":29,"x_max":778,"o":"m 346 0 l 346 369 l 29 972 l 161 972 l 404 481 l 404 481 l 647 972 l 778 972 l 463 369 l 463 0 l 346 0 m 294 1076 q 245 1097 265 1076 q 225 1146 225 1117 q 245 1194 225 1174 q 294 1215 265 1215 q 343 1194 322 1215 q 364 1146 364 1174 q 343 1097 364 1117 q 294 1076 322 1076 m 517 1076 q 467 1097 488 1076 q 447 1146 447 1117 q 467 1194 447 1174 q 517 1215 488 1215 q 565 1194 544 1215 q 585 1146 585 1174 q 565 1097 585 1117 q 517 1076 544 1076 z "},"Ỳ":{"ha":807,"x_min":29,"x_max":778,"o":"m 346 0 l 346 369 l 29 972 l 161 972 l 404 481 l 404 481 l 647 972 l 778 972 l 463 369 l 463 0 l 346 0 m 508 1032 l 249 1190 l 315 1285 l 315 1285 l 558 1107 l 508 1032 z "},"Ỹ":{"ha":807,"x_min":29,"x_max":778,"o":"m 346 0 l 346 369 l 29 972 l 161 972 l 404 481 l 404 481 l 647 972 l 778 972 l 463 369 l 463 0 l 346 0 m 494 1050 q 432 1067 457 1050 q 385 1099 407 1083 q 335 1115 364 1115 q 297 1100 313 1115 q 276 1053 281 1085 l 208 1053 q 253 1158 218 1122 q 340 1193 289 1193 q 402 1177 378 1193 q 449 1144 426 1161 q 500 1128 471 1128 q 540 1144 524 1128 q 560 1190 556 1160 l 628 1190 q 583 1086 619 1122 q 494 1050 547 1050 z "},"Z":{"ha":775,"x_min":65,"x_max":710,"o":"m 65 0 l 65 92 l 568 871 l 72 871 l 72 972 l 704 972 l 704 881 l 200 101 l 710 101 l 710 0 l 65 0 z "},"Ź":{"ha":775,"x_min":65,"x_max":710,"o":"m 65 0 l 65 92 l 568 871 l 72 871 l 72 972 l 704 972 l 704 881 l 200 101 l 710 101 l 710 0 l 65 0 m 283 1032 l 233 1107 l 476 1285 l 476 1285 l 543 1190 l 283 1032 z "},"Ž":{"ha":775,"x_min":65,"x_max":710,"o":"m 65 0 l 65 92 l 568 871 l 72 871 l 72 972 l 704 972 l 704 881 l 200 101 l 710 101 l 710 0 l 65 0 m 389 1047 l 199 1161 l 199 1251 l 389 1135 l 579 1251 l 579 1161 l 389 1047 z "},"Ż":{"ha":775,"x_min":65,"x_max":710,"o":"m 65 0 l 65 92 l 568 871 l 72 871 l 72 972 l 704 972 l 704 881 l 200 101 l 710 101 l 710 0 l 65 0 m 389 1064 q 340 1085 361 1064 q 319 1133 319 1106 q 340 1182 319 1161 q 389 1203 361 1203 q 438 1182 417 1203 q 458 1133 458 1161 q 438 1085 458 1106 q 389 1064 417 1064 z "},"a":{"ha":765,"x_min":76,"x_max":671,"o":"m 326 -17 q 188 15 243 -17 q 104 98 132 46 q 76 210 76 150 q 113 333 76 282 q 217 410 150 383 q 372 436 283 436 l 554 436 q 538 554 554 507 q 483 625 521 601 q 383 649 446 649 q 276 617 321 649 q 221 525 232 586 l 101 525 q 150 647 110 597 q 252 722 190 696 q 383 747 314 747 q 546 712 482 747 q 640 613 610 676 q 671 464 671 550 l 671 0 l 567 0 l 560 125 l 560 125 q 524 70 546 96 q 474 25 503 44 q 408 -6 444 6 q 326 -17 371 -17 m 343 82 q 428 103 389 82 q 495 159 467 124 q 539 239 524 194 q 554 332 554 283 l 554 346 l 382 346 q 276 329 317 346 q 217 283 235 313 q 199 215 199 253 q 215 145 199 175 q 265 99 232 115 q 343 82 297 82 z "},"á":{"ha":765,"x_min":76,"x_max":671,"o":"m 326 -17 q 188 15 243 -17 q 104 98 132 46 q 76 210 76 150 q 113 333 76 282 q 217 410 150 383 q 372 436 283 436 l 554 436 q 538 554 554 507 q 483 625 521 601 q 383 649 446 649 q 276 617 321 649 q 221 525 232 586 l 101 525 q 150 647 110 597 q 252 722 190 696 q 383 747 314 747 q 546 712 482 747 q 640 613 610 676 q 671 464 671 550 l 671 0 l 567 0 l 560 125 l 560 125 q 524 70 546 96 q 474 25 503 44 q 408 -6 444 6 q 326 -17 371 -17 m 343 82 q 428 103 389 82 q 495 159 467 124 q 539 239 524 194 q 554 332 554 283 l 554 346 l 382 346 q 276 329 317 346 q 217 283 235 313 q 199 215 199 253 q 215 145 199 175 q 265 99 232 115 q 343 82 297 82 m 269 790 l 219 865 l 463 1043 l 463 1043 l 529 949 l 269 790 z "},"ă":{"ha":765,"x_min":76,"x_max":671,"o":"m 326 -17 q 188 15 243 -17 q 104 98 132 46 q 76 210 76 150 q 113 333 76 282 q 217 410 150 383 q 372 436 283 436 l 554 436 q 538 554 554 507 q 483 625 521 601 q 383 649 446 649 q 276 617 321 649 q 221 525 232 586 l 101 525 q 150 647 110 597 q 252 722 190 696 q 383 747 314 747 q 546 712 482 747 q 640 613 610 676 q 671 464 671 550 l 671 0 l 567 0 l 560 125 l 560 125 q 524 70 546 96 q 474 25 503 44 q 408 -6 444 6 q 326 -17 371 -17 m 343 82 q 428 103 389 82 q 495 159 467 124 q 539 239 524 194 q 554 332 554 283 l 554 346 l 382 346 q 276 329 317 346 q 217 283 235 313 q 199 215 199 253 q 215 145 199 175 q 265 99 232 115 q 343 82 297 82 m 375 813 q 268 837 311 813 q 203 902 225 861 q 181 993 181 943 l 181 1013 l 250 1013 q 279 933 250 961 q 375 904 308 904 q 471 933 442 904 q 500 1013 500 961 l 571 1013 l 571 993 q 548 902 571 943 q 482 837 525 861 q 375 813 439 813 z "},"â":{"ha":765,"x_min":76,"x_max":671,"o":"m 326 -17 q 188 15 243 -17 q 104 98 132 46 q 76 210 76 150 q 113 333 76 282 q 217 410 150 383 q 372 436 283 436 l 554 436 q 538 554 554 507 q 483 625 521 601 q 383 649 446 649 q 276 617 321 649 q 221 525 232 586 l 101 525 q 150 647 110 597 q 252 722 190 696 q 383 747 314 747 q 546 712 482 747 q 640 613 610 676 q 671 464 671 550 l 671 0 l 567 0 l 560 125 l 560 125 q 524 70 546 96 q 474 25 503 44 q 408 -6 444 6 q 326 -17 371 -17 m 343 82 q 428 103 389 82 q 495 159 467 124 q 539 239 524 194 q 554 332 554 283 l 554 346 l 382 346 q 276 329 317 346 q 217 283 235 313 q 199 215 199 253 q 215 145 199 175 q 265 99 232 115 q 343 82 297 82 m 185 794 l 185 886 l 375 999 l 565 886 l 565 794 l 375 911 l 185 794 z "},"ä":{"ha":765,"x_min":76,"x_max":671,"o":"m 326 -17 q 188 15 243 -17 q 104 98 132 46 q 76 210 76 150 q 113 333 76 282 q 217 410 150 383 q 372 436 283 436 l 554 436 q 538 554 554 507 q 483 625 521 601 q 383 649 446 649 q 276 617 321 649 q 221 525 232 586 l 101 525 q 150 647 110 597 q 252 722 190 696 q 383 747 314 747 q 546 712 482 747 q 640 613 610 676 q 671 464 671 550 l 671 0 l 567 0 l 560 125 l 560 125 q 524 70 546 96 q 474 25 503 44 q 408 -6 444 6 q 326 -17 371 -17 m 343 82 q 428 103 389 82 q 495 159 467 124 q 539 239 524 194 q 554 332 554 283 l 554 346 l 382 346 q 276 329 317 346 q 217 283 235 313 q 199 215 199 253 q 215 145 199 175 q 265 99 232 115 q 343 82 297 82 m 265 822 q 216 842 236 822 q 196 892 196 863 q 216 940 196 919 q 265 961 236 961 q 314 940 293 961 q 335 892 335 919 q 314 842 335 863 q 265 822 293 822 m 488 822 q 438 842 458 822 q 418 892 418 863 q 438 940 418 919 q 488 961 458 961 q 535 940 515 961 q 556 892 556 919 q 535 842 556 863 q 488 822 515 822 z "},"à":{"ha":765,"x_min":76,"x_max":671,"o":"m 326 -17 q 188 15 243 -17 q 104 98 132 46 q 76 210 76 150 q 113 333 76 282 q 217 410 150 383 q 372 436 283 436 l 554 436 q 538 554 554 507 q 483 625 521 601 q 383 649 446 649 q 276 617 321 649 q 221 525 232 586 l 101 525 q 150 647 110 597 q 252 722 190 696 q 383 747 314 747 q 546 712 482 747 q 640 613 610 676 q 671 464 671 550 l 671 0 l 567 0 l 560 125 l 560 125 q 524 70 546 96 q 474 25 503 44 q 408 -6 444 6 q 326 -17 371 -17 m 343 82 q 428 103 389 82 q 495 159 467 124 q 539 239 524 194 q 554 332 554 283 l 554 346 l 382 346 q 276 329 317 346 q 217 283 235 313 q 199 215 199 253 q 215 145 199 175 q 265 99 232 115 q 343 82 297 82 m 479 790 l 219 949 l 286 1043 l 286 1043 l 529 865 l 479 790 z "},"ā":{"ha":765,"x_min":76,"x_max":671,"o":"m 326 -17 q 188 15 243 -17 q 104 98 132 46 q 76 210 76 150 q 113 333 76 282 q 217 410 150 383 q 372 436 283 436 l 554 436 q 538 554 554 507 q 483 625 521 601 q 383 649 446 649 q 276 617 321 649 q 221 525 232 586 l 101 525 q 150 647 110 597 q 252 722 190 696 q 383 747 314 747 q 546 712 482 747 q 640 613 610 676 q 671 464 671 550 l 671 0 l 567 0 l 560 125 l 560 125 q 524 70 546 96 q 474 25 503 44 q 408 -6 444 6 q 326 -17 371 -17 m 343 82 q 428 103 389 82 q 495 159 467 124 q 539 239 524 194 q 554 332 554 283 l 554 346 l 382 346 q 276 329 317 346 q 217 283 235 313 q 199 215 199 253 q 215 145 199 175 q 265 99 232 115 q 343 82 297 82 m 133 856 l 133 943 l 615 943 l 615 856 l 133 856 z "},"ą":{"ha":765,"x_min":76,"x_max":675,"o":"m 326 -17 q 188 15 243 -17 q 104 98 132 46 q 76 210 76 150 q 113 333 76 282 q 217 410 150 383 q 372 436 283 436 l 554 436 q 538 554 554 507 q 483 625 521 601 q 383 649 446 649 q 276 617 321 649 q 221 525 232 586 l 101 525 q 150 647 110 597 q 252 722 190 696 q 383 747 314 747 q 546 712 482 747 q 640 613 610 676 q 671 464 671 550 l 671 0 l 567 0 l 560 125 l 560 125 q 524 70 546 96 q 474 25 503 44 q 408 -6 444 6 q 326 -17 371 -17 m 343 82 q 428 103 389 82 q 495 159 467 124 q 539 239 524 194 q 554 332 554 283 l 554 346 l 382 346 q 276 329 317 346 q 217 283 235 313 q 199 215 199 253 q 215 145 199 175 q 265 99 232 115 q 343 82 297 82 m 571 -282 q 492 -269 529 -282 q 431 -226 454 -256 q 407 -150 407 -197 q 422 -87 407 -117 q 473 -28 438 -57 q 568 28 508 1 l 642 60 l 671 0 l 590 -39 q 522 -87 542 -62 q 501 -139 501 -112 q 524 -189 501 -171 q 585 -207 547 -207 q 628 -201 604 -207 q 675 -186 653 -196 l 675 -264 q 626 -277 653 -272 q 571 -282 599 -282 z "},"å":{"ha":765,"x_min":76,"x_max":671,"o":"m 326 -17 q 188 15 243 -17 q 104 98 132 46 q 76 210 76 150 q 113 333 76 282 q 217 410 150 383 q 372 436 283 436 l 554 436 q 538 554 554 507 q 483 625 521 601 q 383 649 446 649 q 276 617 321 649 q 221 525 232 586 l 101 525 q 150 647 110 597 q 252 722 190 696 q 383 747 314 747 q 546 712 482 747 q 640 613 610 676 q 671 464 671 550 l 671 0 l 567 0 l 560 125 l 560 125 q 524 70 546 96 q 474 25 503 44 q 408 -6 444 6 q 326 -17 371 -17 m 343 82 q 428 103 389 82 q 495 159 467 124 q 539 239 524 194 q 554 332 554 283 l 554 346 l 382 346 q 276 329 317 346 q 217 283 235 313 q 199 215 199 253 q 215 145 199 175 q 265 99 232 115 q 343 82 297 82 m 375 822 q 272 860 315 822 q 229 965 229 899 q 272 1070 229 1032 q 375 1108 315 1108 q 478 1070 436 1108 q 521 965 521 1032 q 478 860 521 899 q 375 822 436 822 m 375 882 q 431 905 408 882 q 454 965 454 928 q 431 1026 454 1004 q 375 1047 408 1047 q 319 1026 343 1047 q 296 965 296 1004 q 319 905 296 928 q 375 882 343 882 z "},"ã":{"ha":765,"x_min":76,"x_max":671,"o":"m 326 -17 q 188 15 243 -17 q 104 98 132 46 q 76 210 76 150 q 113 333 76 282 q 217 410 150 383 q 372 436 283 436 l 554 436 q 538 554 554 507 q 483 625 521 601 q 383 649 446 649 q 276 617 321 649 q 221 525 232 586 l 101 525 q 150 647 110 597 q 252 722 190 696 q 383 747 314 747 q 546 712 482 747 q 640 613 610 676 q 671 464 671 550 l 671 0 l 567 0 l 560 125 l 560 125 q 524 70 546 96 q 474 25 503 44 q 408 -6 444 6 q 326 -17 371 -17 m 343 82 q 428 103 389 82 q 495 159 467 124 q 539 239 524 194 q 554 332 554 283 l 554 346 l 382 346 q 276 329 317 346 q 217 283 235 313 q 199 215 199 253 q 215 145 199 175 q 265 99 232 115 q 343 82 297 82 m 451 822 q 389 839 414 822 q 342 872 364 856 q 292 888 321 888 q 253 872 269 888 q 233 825 238 857 l 165 825 q 210 930 175 894 q 297 965 246 965 q 359 949 335 965 q 406 917 383 933 q 457 900 428 900 q 497 916 481 900 q 517 963 513 932 l 585 963 q 540 858 576 894 q 451 822 504 822 z "},"æ":{"ha":1274,"x_min":76,"x_max":1211,"o":"m 326 -17 q 188 15 243 -17 q 104 98 132 46 q 76 210 76 150 q 113 333 76 282 q 217 410 150 383 q 372 436 283 436 l 554 436 q 538 554 554 507 q 483 625 521 601 q 383 649 446 649 q 276 617 321 649 q 221 525 232 586 l 101 525 q 150 647 110 597 q 252 722 190 696 q 383 747 314 747 q 540 715 478 747 q 635 624 603 682 q 745 715 679 683 q 892 747 811 747 q 1068 700 997 747 q 1175 574 1139 653 q 1211 400 1211 494 q 1211 372 1211 386 q 1210 339 1211 358 l 671 339 q 706 196 675 253 q 785 110 736 139 q 889 82 833 82 q 1011 112 967 82 q 1076 197 1056 142 l 1192 197 q 1134 88 1175 136 q 1031 11 1093 39 q 889 -17 969 -17 q 724 27 796 -17 q 608 147 651 71 q 536 60 579 97 q 440 3 493 24 q 326 -17 388 -17 m 343 82 q 451 116 404 82 q 526 210 499 150 q 554 346 554 269 l 554 346 l 382 346 q 276 329 317 346 q 217 283 235 313 q 199 215 199 253 q 215 145 199 175 q 265 99 232 115 q 343 82 297 82 m 672 429 l 1097 429 q 1035 592 1094 536 q 889 649 976 649 q 788 624 835 649 q 710 550 740 599 q 672 429 679 501 z "},"ǽ":{"ha":1274,"x_min":76,"x_max":1211,"o":"m 326 -17 q 188 15 243 -17 q 104 98 132 46 q 76 210 76 150 q 113 333 76 282 q 217 410 150 383 q 372 436 283 436 l 554 436 q 538 554 554 507 q 483 625 521 601 q 383 649 446 649 q 276 617 321 649 q 221 525 232 586 l 101 525 q 150 647 110 597 q 252 722 190 696 q 383 747 314 747 q 540 715 478 747 q 635 624 603 682 q 745 715 679 683 q 892 747 811 747 q 1068 700 997 747 q 1175 574 1139 653 q 1211 400 1211 494 q 1211 372 1211 386 q 1210 339 1211 358 l 671 339 q 706 196 675 253 q 785 110 736 139 q 889 82 833 82 q 1011 112 967 82 q 1076 197 1056 142 l 1192 197 q 1134 88 1175 136 q 1031 11 1093 39 q 889 -17 969 -17 q 724 27 796 -17 q 608 147 651 71 q 536 60 579 97 q 440 3 493 24 q 326 -17 388 -17 m 343 82 q 451 116 404 82 q 526 210 499 150 q 554 346 554 269 l 554 346 l 382 346 q 276 329 317 346 q 217 283 235 313 q 199 215 199 253 q 215 145 199 175 q 265 99 232 115 q 343 82 297 82 m 672 429 l 1097 429 q 1035 592 1094 536 q 889 649 976 649 q 788 624 835 649 q 710 550 740 599 q 672 429 679 501 m 532 790 l 482 865 l 725 1043 l 725 1043 l 792 949 l 532 790 z "},"b":{"ha":864,"x_min":99,"x_max":793,"o":"m 463 -17 q 348 3 396 -17 q 267 54 300 24 q 214 114 235 85 l 214 114 l 204 0 l 99 0 l 99 1000 l 215 1000 l 215 615 q 314 714 249 681 q 460 747 379 747 q 635 699 560 747 q 751 565 710 650 q 793 368 793 479 q 751 171 793 258 q 635 33 710 83 q 463 -17 561 -17 m 447 85 q 563 119 513 85 q 644 216 614 153 q 674 365 674 279 q 644 515 674 451 q 563 612 614 578 q 447 646 513 646 q 326 612 378 646 q 247 515 275 578 q 219 365 219 451 q 247 216 219 279 q 326 119 275 153 q 447 85 378 85 z "},"c":{"ha":801,"x_min":69,"x_max":731,"o":"m 414 -17 q 236 31 314 -17 q 114 165 158 79 q 69 365 69 251 q 114 566 69 481 q 236 699 158 651 q 414 747 314 747 q 623 681 539 747 q 731 501 707 614 l 611 501 q 541 609 596 571 q 413 647 486 647 q 298 615 349 647 q 218 521 247 583 q 189 365 189 458 q 206 242 189 296 q 252 153 222 189 q 323 100 282 118 q 413 82 364 82 q 503 99 463 82 q 573 150 544 117 q 611 229 601 183 l 731 229 q 623 51 708 119 q 414 -17 538 -17 z "},"ć":{"ha":801,"x_min":69,"x_max":731,"o":"m 414 -17 q 236 31 314 -17 q 114 165 158 79 q 69 365 69 251 q 114 566 69 481 q 236 699 158 651 q 414 747 314 747 q 623 681 539 747 q 731 501 707 614 l 611 501 q 541 609 596 571 q 413 647 486 647 q 298 615 349 647 q 218 521 247 583 q 189 365 189 458 q 206 242 189 296 q 252 153 222 189 q 323 100 282 118 q 413 82 364 82 q 503 99 463 82 q 573 150 544 117 q 611 229 601 183 l 731 229 q 623 51 708 119 q 414 -17 538 -17 m 296 790 l 246 865 l 489 1043 l 489 1043 l 556 949 l 296 790 z "},"č":{"ha":801,"x_min":69,"x_max":731,"o":"m 414 -17 q 236 31 314 -17 q 114 165 158 79 q 69 365 69 251 q 114 566 69 481 q 236 699 158 651 q 414 747 314 747 q 623 681 539 747 q 731 501 707 614 l 611 501 q 541 609 596 571 q 413 647 486 647 q 298 615 349 647 q 218 521 247 583 q 189 365 189 458 q 206 242 189 296 q 252 153 222 189 q 323 100 282 118 q 413 82 364 82 q 503 99 463 82 q 573 150 544 117 q 611 229 601 183 l 731 229 q 623 51 708 119 q 414 -17 538 -17 m 401 813 l 211 926 l 211 1017 l 401 900 l 592 1017 l 592 926 l 401 813 z "},"ç":{"ha":801,"x_min":69,"x_max":731,"o":"m 414 -17 q 236 31 314 -17 q 114 165 158 79 q 69 365 69 251 q 114 566 69 481 q 236 699 158 651 q 414 747 314 747 q 623 681 539 747 q 731 501 707 614 l 611 501 q 541 609 596 571 q 413 647 486 647 q 298 615 349 647 q 218 521 247 583 q 189 365 189 458 q 206 242 189 296 q 252 153 222 189 q 323 100 282 118 q 413 82 364 82 q 503 99 463 82 q 573 150 544 117 q 611 229 601 183 l 731 229 q 623 51 708 119 q 414 -17 538 -17 m 308 -361 l 308 -287 l 436 -287 q 508 -271 485 -287 q 531 -221 531 -254 q 508 -174 531 -190 q 436 -158 485 -158 l 368 -158 l 368 8 l 446 8 l 446 -89 q 539 -102 499 -87 q 602 -147 579 -117 q 625 -222 625 -178 q 603 -297 625 -265 q 544 -344 582 -328 q 457 -361 506 -361 l 308 -361 z "},"ċ":{"ha":801,"x_min":69,"x_max":731,"o":"m 414 -17 q 236 31 314 -17 q 114 165 158 79 q 69 365 69 251 q 114 566 69 481 q 236 699 158 651 q 414 747 314 747 q 623 681 539 747 q 731 501 707 614 l 611 501 q 541 609 596 571 q 413 647 486 647 q 298 615 349 647 q 218 521 247 583 q 189 365 189 458 q 206 242 189 296 q 252 153 222 189 q 323 100 282 118 q 413 82 364 82 q 503 99 463 82 q 573 150 544 117 q 611 229 601 183 l 731 229 q 623 51 708 119 q 414 -17 538 -17 m 401 824 q 353 844 374 824 q 332 893 332 865 q 353 942 332 921 q 401 963 374 963 q 450 942 429 963 q 471 893 471 921 q 450 844 471 865 q 401 824 429 824 z "},"d":{"ha":863,"x_min":69,"x_max":764,"o":"m 400 -17 q 228 33 303 -17 q 111 170 153 83 q 69 367 69 257 q 111 563 69 478 q 228 698 153 649 q 401 747 303 747 q 549 713 488 747 q 647 615 611 678 l 647 1000 l 764 1000 l 764 0 l 658 0 l 649 117 l 649 117 q 594 51 628 82 q 512 2 560 21 q 400 -17 464 -17 m 415 85 q 536 119 485 85 q 615 216 588 153 q 643 365 643 279 q 615 515 643 451 q 536 612 588 578 q 415 646 485 646 q 299 612 350 646 q 218 515 247 578 q 189 365 189 451 q 218 216 189 279 q 299 119 247 153 q 415 85 350 85 z "},"ď":{"ha":975,"x_min":69,"x_max":961,"o":"m 400 -17 q 228 33 303 -17 q 111 170 153 83 q 69 367 69 257 q 111 563 69 478 q 228 698 153 649 q 401 747 303 747 q 549 713 488 747 q 647 615 611 678 l 647 1000 l 764 1000 l 764 0 l 658 0 l 649 117 l 649 117 q 594 51 628 82 q 512 2 560 21 q 400 -17 464 -17 m 415 85 q 536 119 485 85 q 615 216 588 153 q 643 365 643 279 q 615 515 643 451 q 536 612 588 578 q 415 646 485 646 q 299 612 350 646 q 218 515 247 578 q 189 365 189 451 q 218 216 189 279 q 299 119 247 153 q 415 85 350 85 m 824 771 l 824 826 q 875 840 860 826 q 890 879 890 853 l 890 908 l 824 908 l 824 1024 l 946 1024 q 957 961 953 988 q 961 907 961 935 q 925 803 961 835 q 824 771 889 771 z "},"đ":{"ha":938,"x_min":69,"x_max":882,"o":"m 460 792 l 460 882 l 882 882 l 882 792 l 460 792 m 400 -17 q 228 33 303 -17 q 111 170 153 83 q 69 367 69 257 q 111 563 69 478 q 228 698 153 649 q 401 747 303 747 q 549 713 488 747 q 647 615 611 678 l 647 1000 l 764 1000 l 764 0 l 658 0 l 649 117 l 649 117 q 594 51 628 82 q 512 2 560 21 q 400 -17 464 -17 m 415 85 q 536 119 485 85 q 615 216 588 153 q 643 365 643 279 q 615 515 643 451 q 536 612 588 578 q 415 646 485 646 q 299 612 350 646 q 218 515 247 578 q 189 365 189 451 q 218 216 189 279 q 299 119 247 153 q 415 85 350 85 z "},"ð":{"ha":829,"x_min":69,"x_max":758,"o":"m 413 -17 q 233 31 311 -17 q 113 164 156 78 q 69 365 69 250 q 113 556 69 474 q 235 684 157 638 q 415 731 314 731 q 509 719 465 731 q 590 688 553 708 q 546 762 571 725 q 490 834 521 799 q 424 904 460 869 q 347 972 389 939 l 464 972 q 626 799 567 888 q 713 629 685 711 q 750 479 742 547 q 758 365 758 411 q 715 164 758 250 q 593 31 671 78 q 413 -17 515 -17 m 413 83 q 528 115 476 83 q 609 209 579 146 q 639 365 639 272 q 610 513 639 454 q 532 601 582 572 q 415 631 482 631 q 298 600 349 631 q 218 510 247 569 q 189 365 189 451 q 219 209 189 272 q 299 115 249 146 q 413 83 350 83 m 304 765 l 304 844 l 703 983 l 703 904 l 304 765 z "},"e":{"ha":786,"x_min":69,"x_max":724,"o":"m 401 -17 q 229 31 304 -17 q 112 164 154 78 q 69 365 69 250 q 112 567 69 481 q 230 700 154 653 q 404 747 306 747 q 581 700 510 747 q 688 574 651 653 q 724 400 724 494 q 724 372 724 386 q 722 339 724 358 l 157 339 l 157 429 l 610 429 q 548 592 607 536 q 401 649 489 649 q 294 620 343 649 q 214 536 244 592 q 183 397 183 481 l 183 358 q 214 205 183 267 q 294 113 244 143 q 401 82 343 82 q 524 112 479 82 q 589 197 568 142 l 704 197 q 647 88 688 136 q 544 11 606 39 q 401 -17 482 -17 z "},"é":{"ha":786,"x_min":69,"x_max":724,"o":"m 401 -17 q 229 31 304 -17 q 112 164 154 78 q 69 365 69 250 q 112 567 69 481 q 230 700 154 653 q 404 747 306 747 q 581 700 510 747 q 688 574 651 653 q 724 400 724 494 q 724 372 724 386 q 722 339 724 358 l 157 339 l 157 429 l 610 429 q 548 592 607 536 q 401 649 489 649 q 294 620 343 649 q 214 536 244 592 q 183 397 183 481 l 183 358 q 214 205 183 267 q 294 113 244 143 q 401 82 343 82 q 524 112 479 82 q 589 197 568 142 l 704 197 q 647 88 688 136 q 544 11 606 39 q 401 -17 482 -17 m 288 790 l 238 865 l 481 1043 l 481 1043 l 547 949 l 288 790 z "},"ĕ":{"ha":786,"x_min":69,"x_max":724,"o":"m 401 -17 q 229 31 304 -17 q 112 164 154 78 q 69 365 69 250 q 112 567 69 481 q 230 700 154 653 q 404 747 306 747 q 581 700 510 747 q 688 574 651 653 q 724 400 724 494 q 724 372 724 386 q 722 339 724 358 l 157 339 l 157 429 l 610 429 q 548 592 607 536 q 401 649 489 649 q 294 620 343 649 q 214 536 244 592 q 183 397 183 481 l 183 358 q 214 205 183 267 q 294 113 244 143 q 401 82 343 82 q 524 112 479 82 q 589 197 568 142 l 704 197 q 647 88 688 136 q 544 11 606 39 q 401 -17 482 -17 m 393 813 q 286 837 329 813 q 221 902 243 861 q 199 993 199 943 l 199 1013 l 268 1013 q 297 933 268 961 q 393 904 326 904 q 489 933 460 904 q 518 1013 518 961 l 589 1013 l 589 993 q 566 902 589 943 q 500 837 543 861 q 393 813 457 813 z "},"ě":{"ha":786,"x_min":69,"x_max":724,"o":"m 401 -17 q 229 31 304 -17 q 112 164 154 78 q 69 365 69 250 q 112 567 69 481 q 230 700 154 653 q 404 747 306 747 q 581 700 510 747 q 688 574 651 653 q 724 400 724 494 q 724 372 724 386 q 722 339 724 358 l 157 339 l 157 429 l 610 429 q 548 592 607 536 q 401 649 489 649 q 294 620 343 649 q 214 536 244 592 q 183 397 183 481 l 183 358 q 214 205 183 267 q 294 113 244 143 q 401 82 343 82 q 524 112 479 82 q 589 197 568 142 l 704 197 q 647 88 688 136 q 544 11 606 39 q 401 -17 482 -17 m 393 813 l 203 926 l 203 1017 l 393 900 l 583 1017 l 583 926 l 393 813 z "},"ê":{"ha":786,"x_min":69,"x_max":724,"o":"m 401 -17 q 229 31 304 -17 q 112 164 154 78 q 69 365 69 250 q 112 567 69 481 q 230 700 154 653 q 404 747 306 747 q 581 700 510 747 q 688 574 651 653 q 724 400 724 494 q 724 372 724 386 q 722 339 724 358 l 157 339 l 157 429 l 610 429 q 548 592 607 536 q 401 649 489 649 q 294 620 343 649 q 214 536 244 592 q 183 397 183 481 l 183 358 q 214 205 183 267 q 294 113 244 143 q 401 82 343 82 q 524 112 479 82 q 589 197 568 142 l 704 197 q 647 88 688 136 q 544 11 606 39 q 401 -17 482 -17 m 203 794 l 203 886 l 393 999 l 583 886 l 583 794 l 393 911 l 203 794 z "},"ë":{"ha":786,"x_min":69,"x_max":724,"o":"m 401 -17 q 229 31 304 -17 q 112 164 154 78 q 69 365 69 250 q 112 567 69 481 q 230 700 154 653 q 404 747 306 747 q 581 700 510 747 q 688 574 651 653 q 724 400 724 494 q 724 372 724 386 q 722 339 724 358 l 157 339 l 157 429 l 610 429 q 548 592 607 536 q 401 649 489 649 q 294 620 343 649 q 214 536 244 592 q 183 397 183 481 l 183 358 q 214 205 183 267 q 294 113 244 143 q 401 82 343 82 q 524 112 479 82 q 589 197 568 142 l 704 197 q 647 88 688 136 q 544 11 606 39 q 401 -17 482 -17 m 283 822 q 234 842 254 822 q 214 892 214 863 q 234 940 214 919 q 283 961 254 961 q 332 940 311 961 q 353 892 353 919 q 332 842 353 863 q 283 822 311 822 m 506 822 q 456 842 476 822 q 436 892 436 863 q 456 940 436 919 q 506 961 476 961 q 553 940 533 961 q 574 892 574 919 q 553 842 574 863 q 506 822 533 822 z "},"ė":{"ha":786,"x_min":69,"x_max":724,"o":"m 401 -17 q 229 31 304 -17 q 112 164 154 78 q 69 365 69 250 q 112 567 69 481 q 230 700 154 653 q 404 747 306 747 q 581 700 510 747 q 688 574 651 653 q 724 400 724 494 q 724 372 724 386 q 722 339 724 358 l 157 339 l 157 429 l 610 429 q 548 592 607 536 q 401 649 489 649 q 294 620 343 649 q 214 536 244 592 q 183 397 183 481 l 183 358 q 214 205 183 267 q 294 113 244 143 q 401 82 343 82 q 524 112 479 82 q 589 197 568 142 l 704 197 q 647 88 688 136 q 544 11 606 39 q 401 -17 482 -17 m 393 824 q 344 844 365 824 q 324 893 324 865 q 344 942 324 921 q 393 963 365 963 q 442 942 421 963 q 463 893 463 921 q 442 844 463 865 q 393 824 421 824 z "},"è":{"ha":786,"x_min":69,"x_max":724,"o":"m 401 -17 q 229 31 304 -17 q 112 164 154 78 q 69 365 69 250 q 112 567 69 481 q 230 700 154 653 q 404 747 306 747 q 581 700 510 747 q 688 574 651 653 q 724 400 724 494 q 724 372 724 386 q 722 339 724 358 l 157 339 l 157 429 l 610 429 q 548 592 607 536 q 401 649 489 649 q 294 620 343 649 q 214 536 244 592 q 183 397 183 481 l 183 358 q 214 205 183 267 q 294 113 244 143 q 401 82 343 82 q 524 112 479 82 q 589 197 568 142 l 704 197 q 647 88 688 136 q 544 11 606 39 q 401 -17 482 -17 m 497 790 l 238 949 l 304 1043 l 304 1043 l 547 865 l 497 790 z "},"ē":{"ha":786,"x_min":69,"x_max":724,"o":"m 401 -17 q 229 31 304 -17 q 112 164 154 78 q 69 365 69 250 q 112 567 69 481 q 230 700 154 653 q 404 747 306 747 q 581 700 510 747 q 688 574 651 653 q 724 400 724 494 q 724 372 724 386 q 722 339 724 358 l 157 339 l 157 429 l 610 429 q 548 592 607 536 q 401 649 489 649 q 294 620 343 649 q 214 536 244 592 q 183 397 183 481 l 183 358 q 214 205 183 267 q 294 113 244 143 q 401 82 343 82 q 524 112 479 82 q 589 197 568 142 l 704 197 q 647 88 688 136 q 544 11 606 39 q 401 -17 482 -17 m 151 856 l 151 943 l 633 943 l 633 856 l 151 856 z "},"ę":{"ha":786,"x_min":69,"x_max":724,"o":"m 401 -17 q 229 31 304 -17 q 112 164 154 78 q 69 365 69 250 q 112 567 69 481 q 230 700 154 653 q 404 747 306 747 q 581 700 510 747 q 688 574 651 653 q 724 400 724 494 q 724 372 724 386 q 722 339 724 358 l 157 339 l 157 429 l 610 429 q 548 592 607 536 q 401 649 489 649 q 294 620 343 649 q 214 536 244 592 q 183 397 183 481 l 183 358 q 214 205 183 267 q 294 113 244 143 q 401 82 343 82 q 524 112 479 82 q 589 197 568 142 l 704 197 q 647 88 688 136 q 544 11 606 39 q 401 -17 482 -17 m 449 -268 q 369 -255 407 -268 q 308 -212 332 -242 q 285 -136 285 -183 q 300 -73 285 -103 q 351 -14 315 -43 q 446 42 386 15 l 519 74 l 549 14 l 468 -25 q 399 -74 419 -49 q 379 -125 379 -99 q 402 -175 379 -157 q 463 -193 425 -193 q 506 -187 482 -193 q 553 -172 531 -182 l 553 -250 q 503 -263 531 -258 q 449 -268 476 -268 z "},"ẽ":{"ha":786,"x_min":69,"x_max":724,"o":"m 401 -17 q 229 31 304 -17 q 112 164 154 78 q 69 365 69 250 q 112 567 69 481 q 230 700 154 653 q 404 747 306 747 q 581 700 510 747 q 688 574 651 653 q 724 400 724 494 q 724 372 724 386 q 722 339 724 358 l 157 339 l 157 429 l 610 429 q 548 592 607 536 q 401 649 489 649 q 294 620 343 649 q 214 536 244 592 q 183 397 183 481 l 183 358 q 214 205 183 267 q 294 113 244 143 q 401 82 343 82 q 524 112 479 82 q 589 197 568 142 l 704 197 q 647 88 688 136 q 544 11 606 39 q 401 -17 482 -17 m 469 822 q 407 839 432 822 q 360 872 382 856 q 310 888 339 888 q 272 872 288 888 q 251 825 256 857 l 183 825 q 228 930 193 894 q 315 965 264 965 q 377 949 353 965 q 424 917 401 933 q 475 900 446 900 q 515 916 499 900 q 535 963 531 932 l 603 963 q 558 858 594 894 q 469 822 522 822 z "},"ə":{"ha":786,"x_min":63,"x_max":717,"o":"m 385 747 q 557 700 482 747 q 674 567 632 653 q 717 365 717 481 q 674 164 717 250 q 557 31 632 78 q 382 -17 482 -17 q 206 31 276 -17 q 99 157 135 78 q 63 331 63 236 q 63 359 63 344 q 64 392 63 374 l 629 392 l 629 301 l 176 301 q 238 138 179 194 q 385 82 297 82 q 493 110 443 82 q 573 195 543 139 q 603 333 603 251 l 603 372 q 572 526 603 465 q 492 618 542 588 q 385 649 443 649 q 263 619 308 649 q 197 533 218 590 l 82 533 q 140 644 100 596 q 242 719 181 692 q 385 747 304 747 z "},"f":{"ha":501,"x_min":31,"x_max":456,"o":"m 144 0 l 144 808 q 167 917 144 875 q 233 980 189 960 q 340 1000 276 1000 l 447 1000 l 447 900 l 360 900 q 284 878 307 900 q 261 804 261 857 l 261 0 l 144 0 m 31 632 l 31 731 l 456 731 l 456 632 l 31 632 z "},"g":{"ha":799,"x_min":56,"x_max":757,"o":"m 385 -322 q 212 -298 286 -322 q 97 -224 138 -274 q 56 -100 56 -174 q 69 -28 56 -65 q 115 44 82 10 q 207 107 147 79 l 296 60 q 193 -11 217 29 q 169 -89 169 -51 q 197 -165 169 -135 q 272 -211 224 -196 q 385 -226 321 -226 q 492 -210 447 -226 q 562 -165 538 -194 q 586 -94 586 -135 q 549 -3 586 -36 q 403 35 511 29 q 261 50 318 40 q 167 73 204 60 q 106 103 131 86 q 63 138 82 119 l 63 169 l 200 301 l 310 265 l 160 142 l 178 194 q 207 174 193 183 q 245 156 221 164 q 313 142 269 149 q 429 129 357 135 q 589 96 529 122 q 675 23 649 69 q 701 -90 701 -24 q 669 -201 701 -149 q 566 -288 636 -254 q 385 -322 496 -322 m 383 228 q 233 262 294 228 q 139 355 171 296 q 107 488 107 414 q 140 619 107 561 q 234 713 172 678 q 383 747 296 747 q 535 713 474 747 q 628 619 596 678 q 660 488 660 561 q 628 355 660 414 q 535 262 596 296 q 383 228 474 228 m 383 324 q 504 365 461 324 q 547 488 547 406 q 504 610 547 569 q 383 650 461 650 q 263 610 310 650 q 217 488 217 569 q 262 365 217 406 q 383 324 307 324 m 506 632 l 471 731 l 757 731 l 757 643 l 506 632 z "},"ğ":{"ha":799,"x_min":56,"x_max":757,"o":"m 385 -322 q 212 -298 286 -322 q 97 -224 138 -274 q 56 -100 56 -174 q 69 -28 56 -65 q 115 44 82 10 q 207 107 147 79 l 296 60 q 193 -11 217 29 q 169 -89 169 -51 q 197 -165 169 -135 q 272 -211 224 -196 q 385 -226 321 -226 q 492 -210 447 -226 q 562 -165 538 -194 q 586 -94 586 -135 q 549 -3 586 -36 q 403 35 511 29 q 261 50 318 40 q 167 73 204 60 q 106 103 131 86 q 63 138 82 119 l 63 169 l 200 301 l 310 265 l 160 142 l 178 194 q 207 174 193 183 q 245 156 221 164 q 313 142 269 149 q 429 129 357 135 q 589 96 529 122 q 675 23 649 69 q 701 -90 701 -24 q 669 -201 701 -149 q 566 -288 636 -254 q 385 -322 496 -322 m 383 228 q 233 262 294 228 q 139 355 171 296 q 107 488 107 414 q 140 619 107 561 q 234 713 172 678 q 383 747 296 747 q 535 713 474 747 q 628 619 596 678 q 660 488 660 561 q 628 355 660 414 q 535 262 596 296 q 383 228 474 228 m 383 324 q 504 365 461 324 q 547 488 547 406 q 504 610 547 569 q 383 650 461 650 q 263 610 310 650 q 217 488 217 569 q 262 365 217 406 q 383 324 307 324 m 506 632 l 471 731 l 757 731 l 757 643 l 506 632 m 385 813 q 278 837 321 813 q 213 902 235 861 q 190 993 190 943 l 190 1013 l 260 1013 q 289 933 260 961 q 385 904 318 904 q 481 933 451 904 q 510 1013 510 961 l 581 1013 l 581 993 q 558 902 581 943 q 492 837 535 861 q 385 813 449 813 z "},"ģ":{"ha":799,"x_min":56,"x_max":757,"o":"m 385 -322 q 212 -298 286 -322 q 97 -224 138 -274 q 56 -100 56 -174 q 69 -28 56 -65 q 115 44 82 10 q 207 107 147 79 l 296 60 q 193 -11 217 29 q 169 -89 169 -51 q 197 -165 169 -135 q 272 -211 224 -196 q 385 -226 321 -226 q 492 -210 447 -226 q 562 -165 538 -194 q 586 -94 586 -135 q 549 -3 586 -36 q 403 35 511 29 q 261 50 318 40 q 167 73 204 60 q 106 103 131 86 q 63 138 82 119 l 63 169 l 200 301 l 310 265 l 160 142 l 178 194 q 207 174 193 183 q 245 156 221 164 q 313 142 269 149 q 429 129 357 135 q 589 96 529 122 q 675 23 649 69 q 701 -90 701 -24 q 669 -201 701 -149 q 566 -288 636 -254 q 385 -322 496 -322 m 383 228 q 233 262 294 228 q 139 355 171 296 q 107 488 107 414 q 140 619 107 561 q 234 713 172 678 q 383 747 296 747 q 535 713 474 747 q 628 619 596 678 q 660 488 660 561 q 628 355 660 414 q 535 262 596 296 q 383 228 474 228 m 383 324 q 504 365 461 324 q 547 488 547 406 q 504 610 547 569 q 383 650 461 650 q 263 610 310 650 q 217 488 217 569 q 262 365 217 406 q 383 324 307 324 m 506 632 l 471 731 l 757 731 l 757 643 l 506 632 m 453 1069 l 453 1014 q 402 1001 418 1014 q 386 961 386 988 l 386 932 l 453 932 l 453 817 l 331 817 q 319 880 324 853 q 315 933 315 907 q 351 1038 315 1006 q 453 1069 388 1069 z "},"ġ":{"ha":799,"x_min":56,"x_max":757,"o":"m 385 -322 q 212 -298 286 -322 q 97 -224 138 -274 q 56 -100 56 -174 q 69 -28 56 -65 q 115 44 82 10 q 207 107 147 79 l 296 60 q 193 -11 217 29 q 169 -89 169 -51 q 197 -165 169 -135 q 272 -211 224 -196 q 385 -226 321 -226 q 492 -210 447 -226 q 562 -165 538 -194 q 586 -94 586 -135 q 549 -3 586 -36 q 403 35 511 29 q 261 50 318 40 q 167 73 204 60 q 106 103 131 86 q 63 138 82 119 l 63 169 l 200 301 l 310 265 l 160 142 l 178 194 q 207 174 193 183 q 245 156 221 164 q 313 142 269 149 q 429 129 357 135 q 589 96 529 122 q 675 23 649 69 q 701 -90 701 -24 q 669 -201 701 -149 q 566 -288 636 -254 q 385 -322 496 -322 m 383 228 q 233 262 294 228 q 139 355 171 296 q 107 488 107 414 q 140 619 107 561 q 234 713 172 678 q 383 747 296 747 q 535 713 474 747 q 628 619 596 678 q 660 488 660 561 q 628 355 660 414 q 535 262 596 296 q 383 228 474 228 m 383 324 q 504 365 461 324 q 547 488 547 406 q 504 610 547 569 q 383 650 461 650 q 263 610 310 650 q 217 488 217 569 q 262 365 217 406 q 383 324 307 324 m 506 632 l 471 731 l 757 731 l 757 643 l 506 632 m 385 824 q 336 844 357 824 q 315 893 315 865 q 336 942 315 921 q 385 963 357 963 q 433 942 413 963 q 454 893 454 921 q 433 844 454 865 q 385 824 413 824 z "},"h":{"ha":808,"x_min":99,"x_max":714,"o":"m 99 0 l 99 1000 l 215 1000 l 215 613 l 215 613 q 314 711 251 675 q 449 747 376 747 q 592 716 533 747 q 683 621 651 685 q 714 458 714 557 l 714 0 l 599 0 l 599 446 q 551 597 599 546 q 424 647 504 647 q 319 620 367 647 q 244 540 272 593 q 215 413 215 488 l 215 0 l 99 0 z "},"ħ":{"ha":883,"x_min":56,"x_max":789,"o":"m 56 792 l 56 882 l 478 882 l 478 792 l 56 792 m 174 0 l 174 1000 l 290 1000 l 290 613 l 290 613 q 389 711 326 675 q 524 747 451 747 q 667 716 608 747 q 758 621 726 685 q 789 458 789 557 l 789 0 l 674 0 l 674 446 q 626 597 674 546 q 499 647 579 647 q 394 620 442 647 q 319 540 347 593 q 290 413 290 488 l 290 0 l 174 0 z "},"i":{"ha":335,"x_min":88,"x_max":249,"o":"m 110 0 l 110 731 l 226 731 l 226 0 l 110 0 m 168 869 q 110 892 133 869 q 88 950 88 915 q 110 1006 88 985 q 168 1028 133 1028 q 225 1006 201 1028 q 249 950 249 985 q 225 892 249 915 q 168 869 201 869 z "},"ı":{"ha":314,"x_min":99,"x_max":215,"o":"m 99 0 l 99 731 l 215 731 l 215 0 l 99 0 z "},"í":{"ha":314,"x_min":1,"x_max":311,"o":"m 99 0 l 99 731 l 215 731 l 215 0 l 99 0 m 51 790 l 1 865 l 244 1043 l 244 1043 l 311 949 l 51 790 z "},"ĭ":{"ha":314,"x_min":-37,"x_max":353,"o":"m 99 0 l 99 731 l 215 731 l 215 0 l 99 0 m 157 813 q 50 837 93 813 q -15 902 7 861 q -37 993 -37 943 l -37 1013 l 32 1013 q 61 933 32 961 q 157 904 90 904 q 253 933 224 904 q 282 1013 282 961 l 353 1013 l 353 993 q 330 902 353 943 q 264 837 307 861 q 157 813 221 813 z "},"î":{"ha":314,"x_min":-33,"x_max":347,"o":"m 99 0 l 99 731 l 215 731 l 215 0 l 99 0 m -33 794 l -33 886 l 157 999 l 347 886 l 347 794 l 157 911 l -33 794 z "},"ï":{"ha":314,"x_min":-22,"x_max":338,"o":"m 99 0 l 99 731 l 215 731 l 215 0 l 99 0 m 47 822 q -2 842 18 822 q -22 892 -22 863 q -2 940 -22 919 q 47 961 18 961 q 96 940 75 961 q 117 892 117 919 q 96 842 117 863 q 47 822 75 822 m 269 822 q 220 842 240 822 q 200 892 200 863 q 220 940 200 919 q 269 961 240 961 q 317 940 297 961 q 338 892 338 919 q 317 842 338 863 q 269 822 297 822 z "},"ì":{"ha":314,"x_min":1,"x_max":311,"o":"m 99 0 l 99 731 l 215 731 l 215 0 l 99 0 m 261 790 l 1 949 l 68 1043 l 68 1043 l 311 865 l 261 790 z "},"ī":{"ha":314,"x_min":-85,"x_max":397,"o":"m 99 0 l 99 731 l 215 731 l 215 0 l 99 0 m -85 856 l -85 943 l 397 943 l 397 856 l -85 856 z "},"į":{"ha":314,"x_min":-49,"x_max":226,"o":"m 99 0 l 99 731 l 215 731 l 215 0 l 99 0 m 157 824 q 108 844 129 824 q 88 893 88 865 q 108 942 88 921 q 157 963 129 963 q 206 942 185 963 q 226 893 226 921 q 206 844 226 865 q 157 824 185 824 m 115 -282 q 36 -269 74 -282 q -25 -226 -1 -256 q -49 -150 -49 -197 q -33 -87 -49 -117 q 17 -28 -18 -57 q 113 28 53 1 l 186 60 l 215 0 l 135 -39 q 66 -87 86 -62 q 46 -139 46 -112 q 69 -189 46 -171 q 129 -207 92 -207 q 173 -201 149 -207 q 219 -186 197 -196 l 219 -264 q 170 -277 197 -272 q 115 -282 143 -282 z "},"ĩ":{"ha":314,"x_min":-53,"x_max":367,"o":"m 99 0 l 99 731 l 215 731 l 215 0 l 99 0 m 233 822 q 171 839 196 822 q 124 872 146 856 q 74 888 103 888 q 35 872 51 888 q 15 825 19 857 l -53 825 q -8 930 -43 894 q 79 965 28 965 q 141 949 117 965 q 188 917 165 933 q 239 900 210 900 q 278 916 263 900 q 299 963 294 932 l 367 963 q 322 858 358 894 q 233 822 286 822 z "},"ĳ":{"ha":625,"x_min":88,"x_max":540,"o":"m 110 0 l 110 731 l 226 731 l 226 0 l 110 0 m 168 869 q 110 892 133 869 q 88 950 88 915 q 110 1006 88 985 q 168 1028 133 1028 q 225 1006 201 1028 q 249 950 249 985 q 225 892 249 915 q 168 869 201 869 m 250 -306 l 250 -206 l 304 -206 q 379 -184 357 -206 q 401 -111 401 -162 l 401 731 l 518 731 l 518 -114 q 496 -223 518 -181 q 430 -285 474 -265 q 322 -306 386 -306 l 250 -306 m 461 869 q 403 892 426 869 q 381 950 381 915 q 403 1006 381 985 q 461 1028 426 1028 q 517 1006 494 1028 q 540 950 540 985 q 517 892 540 915 q 461 869 494 869 z "},"j":{"ha":339,"x_min":-36,"x_max":254,"o":"m -36 -306 l -36 -206 l 18 -206 q 93 -184 71 -206 q 115 -111 115 -162 l 115 731 l 232 731 l 232 -114 q 210 -223 232 -181 q 144 -285 188 -265 q 36 -306 100 -306 l -36 -306 m 175 869 q 117 892 140 869 q 94 950 94 915 q 117 1006 94 985 q 175 1028 140 1028 q 231 1006 208 1028 q 254 950 254 985 q 231 892 254 915 q 175 869 208 869 z "},"ȷ":{"ha":317,"x_min":-36,"x_max":232,"o":"m -36 -306 l -36 -206 l 18 -206 q 93 -184 71 -206 q 115 -111 115 -162 l 115 731 l 232 731 l 232 -114 q 210 -223 232 -181 q 144 -285 188 -265 q 36 -306 100 -306 l -36 -306 z "},"k":{"ha":701,"x_min":99,"x_max":676,"o":"m 528 0 l 196 394 l 508 731 l 651 731 l 294 353 l 296 436 l 676 0 l 528 0 m 99 0 l 99 1000 l 215 1000 l 215 0 l 99 0 z "},"ķ":{"ha":701,"x_min":99,"x_max":676,"o":"m 528 0 l 196 394 l 508 731 l 651 731 l 294 353 l 296 436 l 676 0 l 528 0 m 99 0 l 99 1000 l 215 1000 l 215 0 l 99 0 m 285 -331 l 285 -275 q 334 -255 319 -275 q 349 -196 349 -235 l 349 -176 l 286 -176 l 286 -69 l 406 -69 q 415 -124 413 -97 q 418 -172 418 -150 q 383 -293 418 -256 q 285 -331 349 -331 z "},"l":{"ha":314,"x_min":99,"x_max":215,"o":"m 99 0 l 99 1000 l 215 1000 l 215 0 l 99 0 z "},"ĺ":{"ha":314,"x_min":1,"x_max":311,"o":"m 99 0 l 99 1000 l 215 1000 l 215 0 l 99 0 m 51 1060 l 1 1135 l 244 1313 l 244 1313 l 311 1218 l 51 1060 z "},"ľ":{"ha":426,"x_min":99,"x_max":413,"o":"m 99 0 l 99 1000 l 215 1000 l 215 0 l 99 0 m 275 771 l 275 826 q 326 840 311 826 q 342 879 342 853 l 342 908 l 275 908 l 275 1024 l 397 1024 q 408 961 404 988 q 413 907 413 935 q 376 803 413 835 q 275 771 340 771 z "},"ļ":{"ha":314,"x_min":90,"x_max":224,"o":"m 99 0 l 99 1000 l 215 1000 l 215 0 l 99 0 m 90 -331 l 90 -275 q 140 -255 125 -275 q 154 -196 154 -235 l 154 -176 l 92 -176 l 92 -69 l 211 -69 q 221 -124 218 -97 q 224 -172 224 -150 q 189 -293 224 -256 q 90 -331 154 -331 z "},"ŀ":{"ha":499,"x_min":99,"x_max":457,"o":"m 99 0 l 99 1000 l 215 1000 l 215 0 l 99 0 m 378 396 q 322 419 344 396 q 299 475 299 442 q 322 532 299 510 q 378 554 344 554 q 435 532 414 554 q 457 475 457 510 q 435 419 457 442 q 378 396 414 396 z "},"ł":{"ha":349,"x_min":13,"x_max":336,"o":"m 13 460 l 13 553 l 336 686 l 336 592 l 13 460 m 115 0 l 115 1000 l 232 1000 l 232 0 l 115 0 z "},"m":{"ha":1221,"x_min":99,"x_max":1126,"o":"m 99 0 l 99 731 l 204 731 l 210 631 l 210 631 q 300 716 243 685 q 419 747 357 747 q 515 733 472 747 q 589 688 557 718 q 640 614 621 658 l 640 614 q 738 713 676 679 q 868 747 800 747 q 1006 716 949 747 q 1095 622 1064 685 q 1126 464 1126 558 l 1126 0 l 1011 0 l 1011 451 q 968 599 1011 550 q 851 647 925 647 q 760 621 801 647 q 695 543 719 594 q 671 418 671 492 l 671 0 l 554 0 l 554 451 q 511 599 554 550 q 396 647 468 647 q 306 621 347 647 q 240 543 265 594 q 215 418 215 492 l 215 0 l 99 0 z "},"n":{"ha":803,"x_min":99,"x_max":708,"o":"m 99 0 l 99 731 l 204 731 l 210 615 l 210 615 q 302 713 242 678 q 442 747 363 747 q 582 717 522 747 q 675 624 642 686 q 708 465 708 561 l 708 0 l 592 0 l 592 453 q 544 599 592 550 q 415 647 496 647 q 315 622 361 647 q 242 546 269 596 q 215 424 215 496 l 215 0 l 99 0 z "},"ń":{"ha":803,"x_min":99,"x_max":708,"o":"m 99 0 l 99 731 l 204 731 l 210 615 l 210 615 q 302 713 242 678 q 442 747 363 747 q 582 717 522 747 q 675 624 642 686 q 708 465 708 561 l 708 0 l 592 0 l 592 453 q 544 599 592 550 q 415 647 496 647 q 315 622 361 647 q 242 546 269 596 q 215 424 215 496 l 215 0 l 99 0 m 310 790 l 260 865 l 503 1043 l 503 1043 l 569 949 l 310 790 z "},"ň":{"ha":803,"x_min":99,"x_max":708,"o":"m 99 0 l 99 731 l 204 731 l 210 615 l 210 615 q 302 713 242 678 q 442 747 363 747 q 582 717 522 747 q 675 624 642 686 q 708 465 708 561 l 708 0 l 592 0 l 592 453 q 544 599 592 550 q 415 647 496 647 q 315 622 361 647 q 242 546 269 596 q 215 424 215 496 l 215 0 l 99 0 m 415 813 l 225 926 l 225 1017 l 415 900 l 606 1017 l 606 926 l 415 813 z "},"ņ":{"ha":803,"x_min":99,"x_max":708,"o":"m 99 0 l 99 731 l 204 731 l 210 615 l 210 615 q 302 713 242 678 q 442 747 363 747 q 582 717 522 747 q 675 624 642 686 q 708 465 708 561 l 708 0 l 592 0 l 592 453 q 544 599 592 550 q 415 647 496 647 q 315 622 361 647 q 242 546 269 596 q 215 424 215 496 l 215 0 l 99 0 m 325 -331 l 325 -275 q 374 -255 360 -275 q 389 -196 389 -235 l 389 -176 l 326 -176 l 326 -69 l 446 -69 q 456 -124 453 -97 q 458 -172 458 -150 q 424 -293 458 -256 q 325 -331 389 -331 z "},"ñ":{"ha":803,"x_min":99,"x_max":708,"o":"m 99 0 l 99 731 l 204 731 l 210 615 l 210 615 q 302 713 242 678 q 442 747 363 747 q 582 717 522 747 q 675 624 642 686 q 708 465 708 561 l 708 0 l 592 0 l 592 453 q 544 599 592 550 q 415 647 496 647 q 315 622 361 647 q 242 546 269 596 q 215 424 215 496 l 215 0 l 99 0 m 492 822 q 429 839 454 822 q 383 872 404 856 q 332 888 361 888 q 294 872 310 888 q 274 825 278 857 l 206 825 q 251 930 215 894 q 338 965 286 965 q 399 949 375 965 q 446 917 424 933 q 497 900 468 900 q 537 916 521 900 q 557 963 553 932 l 625 963 q 581 858 617 894 q 492 822 544 822 z "},"ŋ":{"ha":793,"x_min":99,"x_max":708,"o":"m 99 0 l 99 731 l 204 731 l 210 615 l 210 615 q 302 713 242 678 q 442 747 363 747 q 582 717 522 747 q 675 624 642 686 q 708 465 708 561 l 708 -114 q 686 -223 708 -181 q 620 -285 664 -265 q 513 -306 576 -306 l 440 -306 l 440 -206 l 494 -206 q 569 -184 547 -206 q 592 -111 592 -162 l 592 453 q 544 599 592 550 q 415 647 496 647 q 315 622 361 647 q 242 546 269 596 q 215 424 215 496 l 215 0 l 99 0 z "},"o":{"ha":829,"x_min":69,"x_max":758,"o":"m 413 -17 q 233 31 311 -17 q 113 164 156 78 q 69 365 69 250 q 113 567 69 482 q 235 700 157 653 q 415 747 314 747 q 595 700 518 747 q 715 567 672 653 q 758 365 758 482 q 715 164 758 250 q 593 31 671 78 q 413 -17 515 -17 m 413 83 q 528 115 476 83 q 609 209 579 146 q 639 365 639 272 q 610 522 639 460 q 530 616 581 585 q 415 647 479 647 q 301 616 353 647 q 219 522 250 585 q 189 365 189 460 q 219 209 189 272 q 299 115 249 146 q 413 83 350 83 z "},"ó":{"ha":829,"x_min":69,"x_max":758,"o":"m 413 -17 q 233 31 311 -17 q 113 164 156 78 q 69 365 69 250 q 113 567 69 482 q 235 700 157 653 q 415 747 314 747 q 595 700 518 747 q 715 567 672 653 q 758 365 758 482 q 715 164 758 250 q 593 31 671 78 q 413 -17 515 -17 m 413 83 q 528 115 476 83 q 609 209 579 146 q 639 365 639 272 q 610 522 639 460 q 530 616 581 585 q 415 647 479 647 q 301 616 353 647 q 219 522 250 585 q 189 365 189 460 q 219 209 189 272 q 299 115 249 146 q 413 83 350 83 m 310 790 l 260 865 l 503 1043 l 503 1043 l 569 949 l 310 790 z "},"ŏ":{"ha":829,"x_min":69,"x_max":758,"o":"m 413 -17 q 233 31 311 -17 q 113 164 156 78 q 69 365 69 250 q 113 567 69 482 q 235 700 157 653 q 415 747 314 747 q 595 700 518 747 q 715 567 672 653 q 758 365 758 482 q 715 164 758 250 q 593 31 671 78 q 413 -17 515 -17 m 413 83 q 528 115 476 83 q 609 209 579 146 q 639 365 639 272 q 610 522 639 460 q 530 616 581 585 q 415 647 479 647 q 301 616 353 647 q 219 522 250 585 q 189 365 189 460 q 219 209 189 272 q 299 115 249 146 q 413 83 350 83 m 415 813 q 308 837 351 813 q 243 902 265 861 q 221 993 221 943 l 221 1013 l 290 1013 q 319 933 290 961 q 415 904 349 904 q 511 933 482 904 q 540 1013 540 961 l 611 1013 l 611 993 q 588 902 611 943 q 522 837 565 861 q 415 813 479 813 z "},"ô":{"ha":829,"x_min":69,"x_max":758,"o":"m 413 -17 q 233 31 311 -17 q 113 164 156 78 q 69 365 69 250 q 113 567 69 482 q 235 700 157 653 q 415 747 314 747 q 595 700 518 747 q 715 567 672 653 q 758 365 758 482 q 715 164 758 250 q 593 31 671 78 q 413 -17 515 -17 m 413 83 q 528 115 476 83 q 609 209 579 146 q 639 365 639 272 q 610 522 639 460 q 530 616 581 585 q 415 647 479 647 q 301 616 353 647 q 219 522 250 585 q 189 365 189 460 q 219 209 189 272 q 299 115 249 146 q 413 83 350 83 m 225 794 l 225 886 l 415 999 l 606 886 l 606 794 l 415 911 l 225 794 z "},"ö":{"ha":829,"x_min":69,"x_max":758,"o":"m 413 -17 q 233 31 311 -17 q 113 164 156 78 q 69 365 69 250 q 113 567 69 482 q 235 700 157 653 q 415 747 314 747 q 595 700 518 747 q 715 567 672 653 q 758 365 758 482 q 715 164 758 250 q 593 31 671 78 q 413 -17 515 -17 m 413 83 q 528 115 476 83 q 609 209 579 146 q 639 365 639 272 q 610 522 639 460 q 530 616 581 585 q 415 647 479 647 q 301 616 353 647 q 219 522 250 585 q 189 365 189 460 q 219 209 189 272 q 299 115 249 146 q 413 83 350 83 m 306 822 q 256 842 276 822 q 236 892 236 863 q 256 940 236 919 q 306 961 276 961 q 354 940 333 961 q 375 892 375 919 q 354 842 375 863 q 306 822 333 822 m 528 822 q 478 842 499 822 q 458 892 458 863 q 478 940 458 919 q 528 961 499 961 q 576 940 556 961 q 596 892 596 919 q 576 842 596 863 q 528 822 556 822 z "},"ò":{"ha":829,"x_min":69,"x_max":758,"o":"m 413 -17 q 233 31 311 -17 q 113 164 156 78 q 69 365 69 250 q 113 567 69 482 q 235 700 157 653 q 415 747 314 747 q 595 700 518 747 q 715 567 672 653 q 758 365 758 482 q 715 164 758 250 q 593 31 671 78 q 413 -17 515 -17 m 413 83 q 528 115 476 83 q 609 209 579 146 q 639 365 639 272 q 610 522 639 460 q 530 616 581 585 q 415 647 479 647 q 301 616 353 647 q 219 522 250 585 q 189 365 189 460 q 219 209 189 272 q 299 115 249 146 q 413 83 350 83 m 519 790 l 260 949 l 326 1043 l 326 1043 l 569 865 l 519 790 z "},"ő":{"ha":829,"x_min":69,"x_max":758,"o":"m 413 -17 q 233 31 311 -17 q 113 164 156 78 q 69 365 69 250 q 113 567 69 482 q 235 700 157 653 q 415 747 314 747 q 595 700 518 747 q 715 567 672 653 q 758 365 758 482 q 715 164 758 250 q 593 31 671 78 q 413 -17 515 -17 m 413 83 q 528 115 476 83 q 609 209 579 146 q 639 365 639 272 q 610 522 639 460 q 530 616 581 585 q 415 647 479 647 q 301 616 353 647 q 219 522 250 585 q 189 365 189 460 q 219 209 189 272 q 299 115 249 146 q 413 83 350 83 m 465 804 l 565 1011 l 667 1011 l 543 804 l 465 804 m 263 804 l 354 1011 l 456 1011 l 342 804 l 263 804 z "},"ō":{"ha":829,"x_min":69,"x_max":758,"o":"m 413 -17 q 233 31 311 -17 q 113 164 156 78 q 69 365 69 250 q 113 567 69 482 q 235 700 157 653 q 415 747 314 747 q 595 700 518 747 q 715 567 672 653 q 758 365 758 482 q 715 164 758 250 q 593 31 671 78 q 413 -17 515 -17 m 413 83 q 528 115 476 83 q 609 209 579 146 q 639 365 639 272 q 610 522 639 460 q 530 616 581 585 q 415 647 479 647 q 301 616 353 647 q 219 522 250 585 q 189 365 189 460 q 219 209 189 272 q 299 115 249 146 q 413 83 350 83 m 174 856 l 174 943 l 656 943 l 656 856 l 174 856 z "},"ø":{"ha":831,"x_min":44,"x_max":786,"o":"m 44 0 l 676 731 l 786 731 l 156 0 l 44 0 m 414 -17 q 235 31 313 -17 q 114 164 157 78 q 71 365 71 250 q 115 567 71 482 q 237 700 158 653 q 417 747 315 747 q 597 700 519 747 q 717 567 674 653 q 760 365 760 482 q 716 164 760 250 q 594 31 672 78 q 414 -17 517 -17 m 414 83 q 529 115 478 83 q 610 209 581 146 q 640 365 640 272 q 611 522 640 460 q 531 616 582 585 q 417 647 481 647 q 303 616 354 647 q 221 522 251 585 q 190 365 190 460 q 220 209 190 272 q 301 115 250 146 q 414 83 351 83 z "},"õ":{"ha":829,"x_min":69,"x_max":758,"o":"m 413 -17 q 233 31 311 -17 q 113 164 156 78 q 69 365 69 250 q 113 567 69 482 q 235 700 157 653 q 415 747 314 747 q 595 700 518 747 q 715 567 672 653 q 758 365 758 482 q 715 164 758 250 q 593 31 671 78 q 413 -17 515 -17 m 413 83 q 528 115 476 83 q 609 209 579 146 q 639 365 639 272 q 610 522 639 460 q 530 616 581 585 q 415 647 479 647 q 301 616 353 647 q 219 522 250 585 q 189 365 189 460 q 219 209 189 272 q 299 115 249 146 q 413 83 350 83 m 492 822 q 429 839 454 822 q 383 872 404 856 q 332 888 361 888 q 294 872 310 888 q 274 825 278 857 l 206 825 q 251 930 215 894 q 338 965 286 965 q 399 949 375 965 q 446 917 424 933 q 497 900 468 900 q 537 916 521 900 q 557 963 553 932 l 625 963 q 581 858 617 894 q 492 822 544 822 z "},"œ":{"ha":1361,"x_min":69,"x_max":1299,"o":"m 413 -17 q 233 31 311 -17 q 113 164 156 78 q 69 365 69 250 q 113 567 69 482 q 235 700 157 653 q 415 747 314 747 q 583 707 510 747 q 701 593 657 667 q 816 707 744 667 q 979 747 888 747 q 1156 700 1085 747 q 1263 574 1226 653 q 1299 400 1299 494 q 1299 372 1299 386 q 1297 339 1299 358 l 758 339 q 793 196 763 253 q 872 110 824 139 q 976 82 921 82 q 1099 112 1054 82 q 1164 197 1143 142 l 1279 197 q 1222 88 1263 136 q 1119 11 1181 39 q 976 -17 1057 -17 q 816 24 888 -17 q 701 139 744 65 q 582 24 657 65 q 413 -17 507 -17 m 413 83 q 528 115 476 83 q 609 209 579 146 q 639 365 639 272 q 610 522 639 460 q 530 616 581 585 q 415 647 479 647 q 301 616 353 647 q 219 522 250 585 q 189 365 189 460 q 219 209 189 272 q 299 115 249 146 q 413 83 350 83 m 760 429 l 1185 429 q 1123 592 1182 536 q 976 649 1064 649 q 875 624 922 649 q 797 550 828 599 q 760 429 767 501 z "},"p":{"ha":864,"x_min":99,"x_max":793,"o":"m 99 -306 l 99 731 l 204 731 l 214 617 l 214 617 q 270 682 236 653 q 352 729 304 711 q 463 747 400 747 q 635 697 561 747 q 751 561 710 647 q 793 364 793 475 q 751 168 793 254 q 635 33 710 82 q 461 -17 560 -17 q 313 18 376 -17 q 215 115 249 53 l 215 -306 l 99 -306 m 447 85 q 563 119 513 85 q 644 216 614 153 q 674 365 674 279 q 644 515 674 451 q 563 612 614 578 q 447 646 513 646 q 326 612 378 646 q 247 515 275 578 q 219 365 219 451 q 247 216 219 279 q 326 119 275 153 q 447 85 378 85 z "},"þ":{"ha":864,"x_min":99,"x_max":793,"o":"m 99 -306 l 99 1000 l 214 1000 l 214 617 q 270 682 236 653 q 352 729 304 711 q 463 747 400 747 q 635 697 561 747 q 751 561 710 647 q 793 364 793 475 q 751 168 793 254 q 635 33 710 82 q 461 -17 560 -17 q 313 18 376 -17 q 215 115 249 53 l 215 -306 l 99 -306 m 447 85 q 563 119 513 85 q 644 216 614 153 q 674 365 674 279 q 644 515 674 451 q 563 612 614 578 q 447 646 513 646 q 326 612 378 646 q 247 515 275 578 q 219 365 219 451 q 247 216 219 279 q 326 119 275 153 q 447 85 378 85 z "},"q":{"ha":863,"x_min":69,"x_max":764,"o":"m 647 -306 l 647 115 q 547 15 613 47 q 401 -17 482 -17 q 228 32 303 -17 q 111 167 153 81 q 69 363 69 253 q 111 560 69 474 q 227 697 153 647 q 399 747 301 747 q 513 728 465 747 q 594 678 561 708 q 647 617 628 649 l 647 617 l 658 731 l 764 731 l 764 -306 l 647 -306 m 415 85 q 536 119 485 85 q 615 216 588 153 q 643 365 643 279 q 615 515 643 451 q 536 612 588 578 q 415 646 485 646 q 299 612 350 646 q 218 515 247 578 q 189 365 189 451 q 218 216 189 279 q 299 119 247 153 q 415 85 350 85 z "},"r":{"ha":542,"x_min":99,"x_max":506,"o":"m 99 0 l 99 731 l 204 731 l 213 597 l 213 597 q 278 681 238 647 q 376 731 318 714 q 506 747 433 747 l 506 625 l 433 625 q 353 614 392 625 q 283 578 314 603 q 233 510 251 553 q 215 401 215 467 l 215 0 l 99 0 z "},"ŕ":{"ha":542,"x_min":99,"x_max":506,"o":"m 99 0 l 99 731 l 204 731 l 213 597 l 213 597 q 278 681 238 647 q 376 731 318 714 q 506 747 433 747 l 506 625 l 433 625 q 353 614 392 625 q 283 578 314 603 q 233 510 251 553 q 215 401 215 467 l 215 0 l 99 0 m 203 790 l 153 865 l 396 1043 l 396 1043 l 463 949 l 203 790 z "},"ř":{"ha":542,"x_min":99,"x_max":506,"o":"m 99 0 l 99 731 l 204 731 l 213 597 l 213 597 q 278 681 238 647 q 376 731 318 714 q 506 747 433 747 l 506 625 l 433 625 q 353 614 392 625 q 283 578 314 603 q 233 510 251 553 q 215 401 215 467 l 215 0 l 99 0 m 308 813 l 118 926 l 118 1017 l 308 900 l 499 1017 l 499 926 l 308 813 z "},"ŗ":{"ha":542,"x_min":92,"x_max":506,"o":"m 99 0 l 99 731 l 204 731 l 213 597 l 213 597 q 278 681 238 647 q 376 731 318 714 q 506 747 433 747 l 506 625 l 433 625 q 353 614 392 625 q 283 578 314 603 q 233 510 251 553 q 215 401 215 467 l 215 0 l 99 0 m 92 -331 l 92 -275 q 141 -255 126 -275 q 156 -196 156 -235 l 156 -176 l 93 -176 l 93 -69 l 213 -69 q 222 -124 219 -97 q 225 -172 225 -150 q 190 -293 225 -256 q 92 -331 156 -331 z "},"s":{"ha":707,"x_min":61,"x_max":633,"o":"m 363 -17 q 199 13 264 -17 q 101 97 135 43 q 61 221 68 150 l 181 221 q 206 152 186 183 q 265 101 226 121 q 364 82 304 82 q 444 97 411 82 q 495 138 478 111 q 513 199 513 164 q 492 270 513 244 q 434 309 472 296 q 339 329 396 322 q 231 353 278 338 q 151 393 183 368 q 101 456 118 418 q 85 544 85 493 q 117 650 85 604 q 208 722 149 696 q 347 747 267 747 q 534 693 465 747 q 615 539 603 639 l 500 539 q 453 619 493 590 q 346 649 413 649 q 239 622 275 649 q 203 553 203 596 q 219 495 203 521 q 274 452 235 469 q 378 426 313 435 q 517 395 460 417 q 603 329 574 374 q 632 208 633 285 q 598 86 632 136 q 503 10 564 36 q 363 -17 443 -17 z "},"ś":{"ha":707,"x_min":61,"x_max":633,"o":"m 363 -17 q 199 13 264 -17 q 101 97 135 43 q 61 221 68 150 l 181 221 q 206 152 186 183 q 265 101 226 121 q 364 82 304 82 q 444 97 411 82 q 495 138 478 111 q 513 199 513 164 q 492 270 513 244 q 434 309 472 296 q 339 329 396 322 q 231 353 278 338 q 151 393 183 368 q 101 456 118 418 q 85 544 85 493 q 117 650 85 604 q 208 722 149 696 q 347 747 267 747 q 534 693 465 747 q 615 539 603 639 l 500 539 q 453 619 493 590 q 346 649 413 649 q 239 622 275 649 q 203 553 203 596 q 219 495 203 521 q 274 452 235 469 q 378 426 313 435 q 517 395 460 417 q 603 329 574 374 q 632 208 633 285 q 598 86 632 136 q 503 10 564 36 q 363 -17 443 -17 m 249 790 l 199 865 l 442 1043 l 442 1043 l 508 949 l 249 790 z "},"š":{"ha":707,"x_min":61,"x_max":633,"o":"m 363 -17 q 199 13 264 -17 q 101 97 135 43 q 61 221 68 150 l 181 221 q 206 152 186 183 q 265 101 226 121 q 364 82 304 82 q 444 97 411 82 q 495 138 478 111 q 513 199 513 164 q 492 270 513 244 q 434 309 472 296 q 339 329 396 322 q 231 353 278 338 q 151 393 183 368 q 101 456 118 418 q 85 544 85 493 q 117 650 85 604 q 208 722 149 696 q 347 747 267 747 q 534 693 465 747 q 615 539 603 639 l 500 539 q 453 619 493 590 q 346 649 413 649 q 239 622 275 649 q 203 553 203 596 q 219 495 203 521 q 274 452 235 469 q 378 426 313 435 q 517 395 460 417 q 603 329 574 374 q 632 208 633 285 q 598 86 632 136 q 503 10 564 36 q 363 -17 443 -17 m 354 813 l 164 926 l 164 1017 l 354 900 l 544 1017 l 544 926 l 354 813 z "},"ş":{"ha":707,"x_min":61,"x_max":633,"o":"m 363 -17 q 199 13 264 -17 q 101 97 135 43 q 61 221 68 150 l 181 221 q 206 152 186 183 q 265 101 226 121 q 364 82 304 82 q 444 97 411 82 q 495 138 478 111 q 513 199 513 164 q 492 270 513 244 q 434 309 472 296 q 339 329 396 322 q 231 353 278 338 q 151 393 183 368 q 101 456 118 418 q 85 544 85 493 q 117 650 85 604 q 208 722 149 696 q 347 747 267 747 q 534 693 465 747 q 615 539 603 639 l 500 539 q 453 619 493 590 q 346 649 413 649 q 239 622 275 649 q 203 553 203 596 q 219 495 203 521 q 274 452 235 469 q 378 426 313 435 q 517 395 460 417 q 603 329 574 374 q 632 208 633 285 q 598 86 632 136 q 503 10 564 36 q 363 -17 443 -17 m 261 -361 l 261 -287 l 389 -287 q 460 -271 438 -287 q 483 -221 483 -254 q 460 -174 483 -190 q 389 -158 438 -158 l 321 -158 l 321 8 l 399 8 l 399 -89 q 492 -102 451 -87 q 555 -147 532 -117 q 578 -222 578 -178 q 556 -297 578 -265 q 497 -344 535 -328 q 410 -361 458 -361 l 261 -361 z "},"ș":{"ha":707,"x_min":61,"x_max":633,"o":"m 363 -17 q 199 13 264 -17 q 101 97 135 43 q 61 221 68 150 l 181 221 q 206 152 186 183 q 265 101 226 121 q 364 82 304 82 q 444 97 411 82 q 495 138 478 111 q 513 199 513 164 q 492 270 513 244 q 434 309 472 296 q 339 329 396 322 q 231 353 278 338 q 151 393 183 368 q 101 456 118 418 q 85 544 85 493 q 117 650 85 604 q 208 722 149 696 q 347 747 267 747 q 534 693 465 747 q 615 539 603 639 l 500 539 q 453 619 493 590 q 346 649 413 649 q 239 622 275 649 q 203 553 203 596 q 219 495 203 521 q 274 452 235 469 q 378 426 313 435 q 517 395 460 417 q 603 329 574 374 q 632 208 633 285 q 598 86 632 136 q 503 10 564 36 q 363 -17 443 -17 m 288 -331 l 288 -275 q 337 -255 322 -275 q 351 -196 351 -235 l 351 -176 l 289 -176 l 289 -69 l 408 -69 q 418 -124 415 -97 q 421 -172 421 -150 q 386 -293 421 -256 q 288 -331 351 -331 z "},"ß":{"ha":897,"x_min":100,"x_max":843,"o":"m 585 -14 q 398 52 471 -14 q 314 235 325 118 l 429 235 q 475 121 435 164 q 583 78 515 78 q 688 110 651 78 q 725 200 725 143 q 694 285 725 253 q 588 342 664 317 q 437 417 482 378 q 392 521 392 457 q 412 590 392 563 q 461 637 432 617 q 519 676 490 657 q 569 720 549 696 q 589 781 589 744 q 540 881 589 844 q 406 918 492 918 q 262 860 308 918 q 215 706 215 801 l 215 0 l 100 0 l 100 717 q 135 872 100 804 q 240 978 171 940 q 408 1017 308 1017 q 574 986 508 1017 q 673 904 640 956 q 706 790 706 853 q 686 706 706 739 q 638 652 667 674 q 578 614 608 631 q 529 579 549 597 q 510 536 510 561 q 522 497 510 515 q 567 463 535 479 q 658 426 599 446 q 800 340 757 393 q 843 208 843 288 q 812 92 843 143 q 723 14 781 42 q 585 -14 665 -14 z "},"t":{"ha":564,"x_min":51,"x_max":503,"o":"m 382 0 q 274 19 319 0 q 203 85 228 39 q 179 211 179 132 l 179 632 l 51 632 l 51 731 l 179 731 l 194 913 l 296 913 l 296 731 l 503 731 l 503 632 l 296 632 l 296 211 q 322 123 296 146 q 415 100 349 100 l 500 100 l 500 0 l 382 0 z "},"ť":{"ha":564,"x_min":51,"x_max":517,"o":"m 382 0 q 274 19 319 0 q 203 85 228 39 q 179 211 179 132 l 179 632 l 51 632 l 51 731 l 179 731 l 194 913 l 296 913 l 296 731 l 503 731 l 503 632 l 296 632 l 296 211 q 322 123 296 146 q 415 100 349 100 l 500 100 l 500 0 l 382 0 m 379 796 l 379 851 q 431 865 415 851 q 446 904 446 878 l 446 933 l 379 933 l 379 1049 l 501 1049 q 513 986 508 1013 q 517 932 517 960 q 481 828 517 860 q 379 796 444 796 z "},"ţ":{"ha":564,"x_min":51,"x_max":599,"o":"m 382 0 q 274 19 319 0 q 203 85 228 39 q 179 211 179 132 l 179 632 l 51 632 l 51 731 l 179 731 l 194 913 l 296 913 l 296 731 l 503 731 l 503 632 l 296 632 l 296 211 q 322 123 296 146 q 415 100 349 100 l 500 100 l 500 0 l 382 0 m 282 -361 l 282 -287 l 410 -287 q 481 -271 458 -287 q 504 -221 504 -254 q 481 -174 504 -190 q 410 -158 458 -158 l 342 -158 l 342 8 l 419 8 l 419 -89 q 513 -102 472 -87 q 576 -147 553 -117 q 599 -222 599 -178 q 577 -297 599 -265 q 517 -344 556 -328 q 431 -361 479 -361 l 282 -361 z "},"ț":{"ha":564,"x_min":51,"x_max":503,"o":"m 382 0 q 274 19 319 0 q 203 85 228 39 q 179 211 179 132 l 179 632 l 51 632 l 51 731 l 179 731 l 194 913 l 296 913 l 296 731 l 503 731 l 503 632 l 296 632 l 296 211 q 322 123 296 146 q 415 100 349 100 l 500 100 l 500 0 l 382 0 m 308 -331 l 308 -275 q 358 -255 343 -275 q 372 -196 372 -235 l 372 -176 l 310 -176 l 310 -69 l 429 -69 q 439 -124 436 -97 q 442 -172 442 -150 q 407 -293 442 -256 q 308 -331 372 -331 z "},"u":{"ha":801,"x_min":94,"x_max":703,"o":"m 361 -17 q 221 14 281 -17 q 128 108 161 44 q 94 265 94 171 l 94 731 l 211 731 l 211 278 q 259 132 211 181 q 388 83 307 83 q 488 109 443 83 q 559 185 532 135 q 586 307 586 235 l 586 731 l 703 731 l 703 0 l 597 0 l 590 117 l 590 117 q 501 18 561 53 q 361 -17 440 -17 z "},"ú":{"ha":801,"x_min":94,"x_max":703,"o":"m 361 -17 q 221 14 281 -17 q 128 108 161 44 q 94 265 94 171 l 94 731 l 211 731 l 211 278 q 259 132 211 181 q 388 83 307 83 q 488 109 443 83 q 559 185 532 135 q 586 307 586 235 l 586 731 l 703 731 l 703 0 l 597 0 l 590 117 l 590 117 q 501 18 561 53 q 361 -17 440 -17 m 296 790 l 246 865 l 489 1043 l 489 1043 l 556 949 l 296 790 z "},"ŭ":{"ha":801,"x_min":94,"x_max":703,"o":"m 361 -17 q 221 14 281 -17 q 128 108 161 44 q 94 265 94 171 l 94 731 l 211 731 l 211 278 q 259 132 211 181 q 388 83 307 83 q 488 109 443 83 q 559 185 532 135 q 586 307 586 235 l 586 731 l 703 731 l 703 0 l 597 0 l 590 117 l 590 117 q 501 18 561 53 q 361 -17 440 -17 m 401 813 q 294 837 338 813 q 229 902 251 861 q 207 993 207 943 l 207 1013 l 276 1013 q 306 933 276 961 q 401 904 335 904 q 497 933 468 904 q 526 1013 526 961 l 597 1013 l 597 993 q 574 902 597 943 q 508 837 551 861 q 401 813 465 813 z "},"û":{"ha":801,"x_min":94,"x_max":703,"o":"m 361 -17 q 221 14 281 -17 q 128 108 161 44 q 94 265 94 171 l 94 731 l 211 731 l 211 278 q 259 132 211 181 q 388 83 307 83 q 488 109 443 83 q 559 185 532 135 q 586 307 586 235 l 586 731 l 703 731 l 703 0 l 597 0 l 590 117 l 590 117 q 501 18 561 53 q 361 -17 440 -17 m 211 794 l 211 886 l 401 999 l 592 886 l 592 794 l 401 911 l 211 794 z "},"ü":{"ha":801,"x_min":94,"x_max":703,"o":"m 361 -17 q 221 14 281 -17 q 128 108 161 44 q 94 265 94 171 l 94 731 l 211 731 l 211 278 q 259 132 211 181 q 388 83 307 83 q 488 109 443 83 q 559 185 532 135 q 586 307 586 235 l 586 731 l 703 731 l 703 0 l 597 0 l 590 117 l 590 117 q 501 18 561 53 q 361 -17 440 -17 m 292 822 q 242 842 263 822 q 222 892 222 863 q 242 940 222 919 q 292 961 263 961 q 340 940 319 961 q 361 892 361 919 q 340 842 361 863 q 292 822 319 822 m 514 822 q 465 842 485 822 q 444 892 444 863 q 465 940 444 919 q 514 961 485 961 q 562 940 542 961 q 582 892 582 919 q 562 842 582 863 q 514 822 542 822 z "},"ù":{"ha":801,"x_min":94,"x_max":703,"o":"m 361 -17 q 221 14 281 -17 q 128 108 161 44 q 94 265 94 171 l 94 731 l 211 731 l 211 278 q 259 132 211 181 q 388 83 307 83 q 488 109 443 83 q 559 185 532 135 q 586 307 586 235 l 586 731 l 703 731 l 703 0 l 597 0 l 590 117 l 590 117 q 501 18 561 53 q 361 -17 440 -17 m 506 790 l 246 949 l 313 1043 l 313 1043 l 556 865 l 506 790 z "},"ű":{"ha":801,"x_min":94,"x_max":703,"o":"m 361 -17 q 221 14 281 -17 q 128 108 161 44 q 94 265 94 171 l 94 731 l 211 731 l 211 278 q 259 132 211 181 q 388 83 307 83 q 488 109 443 83 q 559 185 532 135 q 586 307 586 235 l 586 731 l 703 731 l 703 0 l 597 0 l 590 117 l 590 117 q 501 18 561 53 q 361 -17 440 -17 m 451 804 l 551 1011 l 653 1011 l 529 804 l 451 804 m 249 804 l 340 1011 l 442 1011 l 328 804 l 249 804 z "},"ū":{"ha":801,"x_min":94,"x_max":703,"o":"m 361 -17 q 221 14 281 -17 q 128 108 161 44 q 94 265 94 171 l 94 731 l 211 731 l 211 278 q 259 132 211 181 q 388 83 307 83 q 488 109 443 83 q 559 185 532 135 q 586 307 586 235 l 586 731 l 703 731 l 703 0 l 597 0 l 590 117 l 590 117 q 501 18 561 53 q 361 -17 440 -17 m 160 856 l 160 943 l 642 943 l 642 856 l 160 856 z "},"ų":{"ha":801,"x_min":94,"x_max":707,"o":"m 361 -17 q 221 14 281 -17 q 128 108 161 44 q 94 265 94 171 l 94 731 l 211 731 l 211 278 q 259 132 211 181 q 388 83 307 83 q 488 109 443 83 q 559 185 532 135 q 586 307 586 235 l 586 731 l 703 731 l 703 0 l 597 0 l 590 117 l 590 117 q 501 18 561 53 q 361 -17 440 -17 m 603 -282 q 524 -269 561 -282 q 463 -226 486 -256 q 439 -150 439 -197 q 454 -87 439 -117 q 505 -28 469 -57 q 600 28 540 1 l 674 60 l 703 0 l 622 -39 q 553 -87 574 -62 q 533 -139 533 -112 q 556 -189 533 -171 q 617 -207 579 -207 q 660 -201 636 -207 q 707 -186 685 -196 l 707 -264 q 658 -277 685 -272 q 603 -282 631 -282 z "},"ů":{"ha":801,"x_min":94,"x_max":703,"o":"m 361 -17 q 221 14 281 -17 q 128 108 161 44 q 94 265 94 171 l 94 731 l 211 731 l 211 278 q 259 132 211 181 q 388 83 307 83 q 488 109 443 83 q 559 185 532 135 q 586 307 586 235 l 586 731 l 703 731 l 703 0 l 597 0 l 590 117 l 590 117 q 501 18 561 53 q 361 -17 440 -17 m 401 822 q 299 860 342 822 q 256 965 256 899 q 299 1070 256 1032 q 401 1108 342 1108 q 505 1070 463 1108 q 547 965 547 1032 q 505 860 547 899 q 401 822 463 822 m 401 882 q 458 905 435 882 q 481 965 481 928 q 458 1026 481 1004 q 401 1047 435 1047 q 346 1026 369 1047 q 322 965 322 1004 q 346 905 322 928 q 401 882 369 882 z "},"ũ":{"ha":801,"x_min":94,"x_max":703,"o":"m 361 -17 q 221 14 281 -17 q 128 108 161 44 q 94 265 94 171 l 94 731 l 211 731 l 211 278 q 259 132 211 181 q 388 83 307 83 q 488 109 443 83 q 559 185 532 135 q 586 307 586 235 l 586 731 l 703 731 l 703 0 l 597 0 l 590 117 l 590 117 q 501 18 561 53 q 361 -17 440 -17 m 478 822 q 415 839 440 822 q 369 872 390 856 q 318 888 347 888 q 280 872 296 888 q 260 825 264 857 l 192 825 q 237 930 201 894 q 324 965 272 965 q 385 949 361 965 q 432 917 410 933 q 483 900 454 900 q 523 916 507 900 q 543 963 539 932 l 611 963 q 567 858 603 894 q 478 822 531 822 z "},"v":{"ha":756,"x_min":33,"x_max":722,"o":"m 311 0 l 33 731 l 157 731 l 379 113 l 379 113 l 603 731 l 722 731 l 446 0 l 311 0 z "},"w":{"ha":1094,"x_min":35,"x_max":1060,"o":"m 250 0 l 35 731 l 151 731 l 311 149 l 311 149 l 481 731 l 613 731 l 783 150 l 783 150 l 942 731 l 1060 731 l 844 0 l 725 0 l 547 608 l 547 608 l 369 0 l 250 0 z "},"ẃ":{"ha":1094,"x_min":35,"x_max":1060,"o":"m 250 0 l 35 731 l 151 731 l 311 149 l 311 149 l 481 731 l 613 731 l 783 150 l 783 150 l 942 731 l 1060 731 l 844 0 l 725 0 l 547 608 l 547 608 l 369 0 l 250 0 m 442 790 l 392 865 l 635 1043 l 635 1043 l 701 949 l 442 790 z "},"ŵ":{"ha":1094,"x_min":35,"x_max":1060,"o":"m 250 0 l 35 731 l 151 731 l 311 149 l 311 149 l 481 731 l 613 731 l 783 150 l 783 150 l 942 731 l 1060 731 l 844 0 l 725 0 l 547 608 l 547 608 l 369 0 l 250 0 m 357 794 l 357 886 l 547 999 l 738 886 l 738 794 l 547 911 l 357 794 z "},"ẅ":{"ha":1094,"x_min":35,"x_max":1060,"o":"m 250 0 l 35 731 l 151 731 l 311 149 l 311 149 l 481 731 l 613 731 l 783 150 l 783 150 l 942 731 l 1060 731 l 844 0 l 725 0 l 547 608 l 547 608 l 369 0 l 250 0 m 438 822 q 388 842 408 822 q 368 892 368 863 q 388 940 368 919 q 438 961 408 961 q 486 940 465 961 q 507 892 507 919 q 486 842 507 863 q 438 822 465 822 m 660 822 q 610 842 631 822 q 590 892 590 863 q 610 940 590 919 q 660 961 631 961 q 708 940 688 961 q 728 892 728 919 q 708 842 728 863 q 660 822 688 822 z "},"ẁ":{"ha":1094,"x_min":35,"x_max":1060,"o":"m 250 0 l 35 731 l 151 731 l 311 149 l 311 149 l 481 731 l 613 731 l 783 150 l 783 150 l 942 731 l 1060 731 l 844 0 l 725 0 l 547 608 l 547 608 l 369 0 l 250 0 m 651 790 l 392 949 l 458 1043 l 458 1043 l 701 865 l 651 790 z "},"x":{"ha":682,"x_min":33,"x_max":650,"o":"m 33 0 l 267 367 l 33 731 l 161 731 l 342 440 l 342 440 l 524 731 l 650 731 l 417 367 l 650 0 l 524 0 l 342 297 l 342 297 l 163 0 l 33 0 z "},"y":{"ha":774,"x_min":32,"x_max":742,"o":"m 181 -306 l 346 78 l 306 78 l 32 731 l 158 731 l 385 168 l 385 168 l 621 731 l 742 731 l 301 -306 l 181 -306 z "},"ý":{"ha":774,"x_min":32,"x_max":742,"o":"m 181 -306 l 346 78 l 306 78 l 32 731 l 158 731 l 385 168 l 385 168 l 621 731 l 742 731 l 301 -306 l 181 -306 m 282 790 l 232 865 l 475 1043 l 475 1043 l 542 949 l 282 790 z "},"ŷ":{"ha":774,"x_min":32,"x_max":742,"o":"m 181 -306 l 346 78 l 306 78 l 32 731 l 158 731 l 385 168 l 385 168 l 621 731 l 742 731 l 301 -306 l 181 -306 m 197 794 l 197 886 l 388 999 l 578 886 l 578 794 l 388 911 l 197 794 z "},"ÿ":{"ha":774,"x_min":32,"x_max":742,"o":"m 181 -306 l 346 78 l 306 78 l 32 731 l 158 731 l 385 168 l 385 168 l 621 731 l 742 731 l 301 -306 l 181 -306 m 278 822 q 228 842 249 822 q 208 892 208 863 q 228 940 208 919 q 278 961 249 961 q 326 940 306 961 q 347 892 347 919 q 326 842 347 863 q 278 822 306 822 m 500 822 q 451 842 471 822 q 431 892 431 863 q 451 940 431 919 q 500 961 471 961 q 548 940 528 961 q 568 892 568 919 q 548 842 568 863 q 500 822 528 822 z "},"ỳ":{"ha":774,"x_min":32,"x_max":742,"o":"m 181 -306 l 346 78 l 306 78 l 32 731 l 158 731 l 385 168 l 385 168 l 621 731 l 742 731 l 301 -306 l 181 -306 m 492 790 l 232 949 l 299 1043 l 299 1043 l 542 865 l 492 790 z "},"ỹ":{"ha":774,"x_min":32,"x_max":742,"o":"m 181 -306 l 346 78 l 306 78 l 32 731 l 158 731 l 385 168 l 385 168 l 621 731 l 742 731 l 301 -306 l 181 -306 m 464 822 q 401 839 426 822 q 355 872 376 856 q 304 888 333 888 q 266 872 282 888 q 246 825 250 857 l 178 825 q 223 930 188 894 q 310 965 258 965 q 372 949 347 965 q 418 917 396 933 q 469 900 440 900 q 509 916 493 900 q 529 963 525 932 l 597 963 q 553 858 589 894 q 464 822 517 822 z "},"z":{"ha":663,"x_min":51,"x_max":600,"o":"m 51 0 l 51 96 l 454 633 l 58 633 l 58 731 l 593 731 l 593 635 l 190 97 l 600 97 l 600 0 l 51 0 z "},"ź":{"ha":663,"x_min":51,"x_max":600,"o":"m 51 0 l 51 96 l 454 633 l 58 633 l 58 731 l 593 731 l 593 635 l 190 97 l 600 97 l 600 0 l 51 0 m 226 790 l 176 865 l 419 1043 l 419 1043 l 486 949 l 226 790 z "},"ž":{"ha":663,"x_min":51,"x_max":600,"o":"m 51 0 l 51 96 l 454 633 l 58 633 l 58 731 l 593 731 l 593 635 l 190 97 l 600 97 l 600 0 l 51 0 m 332 813 l 142 926 l 142 1017 l 332 900 l 522 1017 l 522 926 l 332 813 z "},"ż":{"ha":663,"x_min":51,"x_max":600,"o":"m 51 0 l 51 96 l 454 633 l 58 633 l 58 731 l 593 731 l 593 635 l 190 97 l 600 97 l 600 0 l 51 0 m 332 824 q 283 844 304 824 q 263 893 263 865 q 283 942 263 921 q 332 963 304 963 q 381 942 360 963 q 401 893 401 921 q 381 844 401 865 q 332 824 360 824 z "},"ﬁ":{"ha":768,"x_min":31,"x_max":682,"o":"m 143 0 l 143 632 l 31 632 l 31 731 l 143 731 l 143 808 q 165 917 143 875 q 231 980 188 960 q 339 1000 275 1000 l 408 1000 l 408 900 l 357 900 q 283 879 306 900 q 260 806 260 858 l 260 731 l 658 731 l 658 0 l 542 0 l 542 632 l 260 632 l 260 0 l 143 0 m 601 869 q 544 892 568 869 q 521 950 521 915 q 544 1006 521 985 q 601 1028 568 1028 q 659 1006 636 1028 q 682 950 682 985 q 659 892 682 915 q 601 869 636 869 z "},"ﬂ":{"ha":815,"x_min":31,"x_max":717,"o":"m 144 0 l 144 808 q 167 917 144 875 q 233 980 189 960 q 340 1000 276 1000 l 447 1000 l 447 900 l 360 900 q 284 878 307 900 q 261 804 261 857 l 261 0 l 144 0 m 31 632 l 31 731 l 456 731 l 456 632 l 31 632 m 600 0 l 600 1000 l 717 1000 l 717 0 l 600 0 z "},"ª":{"ha":679,"x_min":76,"x_max":585,"o":"m 308 482 q 189 514 242 482 q 106 603 136 546 q 76 735 76 661 q 106 866 76 810 q 188 953 136 922 q 306 985 240 985 q 424 955 376 985 q 492 881 471 925 l 501 976 l 585 976 l 585 490 l 501 490 l 492 586 l 492 586 q 425 511 472 540 q 308 482 378 482 m 331 556 q 413 577 376 556 q 470 638 449 599 q 492 733 492 678 q 445 865 492 818 q 331 911 399 911 q 219 865 265 911 q 172 735 172 818 q 219 603 172 650 q 331 556 265 556 z "},"º":{"ha":622,"x_min":69,"x_max":551,"o":"m 310 482 q 181 514 235 482 q 98 603 126 546 q 69 736 69 661 q 98 869 69 813 q 181 958 126 926 q 311 989 235 989 q 441 958 388 989 q 523 869 494 926 q 551 736 551 813 q 522 603 551 661 q 439 514 493 546 q 310 482 385 482 m 310 558 q 387 579 354 558 q 438 640 419 600 q 456 736 456 679 q 438 833 456 793 q 387 894 419 872 q 310 915 354 915 q 233 894 265 915 q 183 833 200 872 q 165 736 165 793 q 183 640 165 679 q 233 579 200 600 q 310 558 265 558 z "},"π":{"ha":897,"x_min":64,"x_max":833,"o":"m 174 0 l 174 639 l 64 639 l 64 731 l 833 731 l 833 639 l 724 639 l 724 0 l 607 0 l 607 639 l 290 639 l 290 0 l 174 0 z "},"⁄":{"ha":599,"x_min":-33,"x_max":650,"o":"m -33 0 l 532 972 l 650 972 l 83 0 l -33 0 z "},"½":{"ha":1035,"x_min":39,"x_max":979,"o":"m 132 489 l 132 886 l 39 861 l 39 919 l 164 978 l 225 978 l 225 489 l 132 489 m 111 0 l 676 972 l 794 972 l 228 0 l 111 0 m 625 0 l 625 67 l 781 194 q 848 263 821 228 q 875 344 875 297 q 853 406 875 385 q 799 426 831 426 q 742 405 763 426 q 715 344 721 383 l 622 344 q 672 453 626 408 q 804 497 718 497 q 895 477 857 497 q 953 424 933 457 q 974 349 974 390 q 940 249 974 292 q 840 158 906 207 l 728 75 l 979 75 l 979 0 l 625 0 z "},"¼":{"ha":981,"x_min":39,"x_max":958,"o":"m 132 489 l 132 886 l 39 861 l 39 919 l 164 978 l 225 978 l 225 489 l 132 489 m 111 0 l 676 972 l 794 972 l 228 0 l 111 0 m 803 0 l 803 92 l 564 92 l 564 161 l 792 483 l 894 483 l 894 167 l 958 167 l 958 92 l 894 92 l 894 0 l 803 0 m 661 167 l 810 167 l 810 383 l 810 383 l 661 167 z "},"¾":{"ha":1128,"x_min":36,"x_max":1106,"o":"m 224 482 q 91 520 139 482 q 36 631 43 558 l 129 631 q 146 584 133 601 q 178 560 158 567 q 222 553 199 553 q 288 573 264 553 q 313 628 313 593 q 285 685 313 665 q 218 706 258 706 l 154 706 l 154 763 l 217 763 q 283 782 257 763 q 308 839 308 801 q 285 894 308 874 q 221 914 261 914 q 159 897 182 914 q 129 849 136 879 l 42 849 q 69 919 46 888 q 132 968 92 950 q 229 986 172 986 q 356 946 304 986 q 407 844 407 906 q 383 774 407 801 q 317 735 358 746 l 317 732 q 384 691 357 719 q 411 617 411 663 q 361 522 411 561 q 224 482 311 482 m 258 0 l 824 972 l 942 972 l 375 0 l 258 0 m 950 0 l 950 92 l 711 92 l 711 161 l 939 483 l 1042 483 l 1042 167 l 1106 167 l 1106 92 l 1042 92 l 1042 0 l 950 0 m 808 167 l 957 167 l 957 383 l 957 383 l 808 167 z "},"¹":{"ha":283,"x_min":39,"x_max":225,"o":"m 132 489 l 132 886 l 39 861 l 39 919 l 164 978 l 225 978 l 225 489 l 132 489 z "},"²":{"ha":458,"x_min":46,"x_max":403,"o":"m 49 489 l 49 556 l 204 683 q 272 751 244 717 q 299 833 299 786 q 276 894 299 874 q 222 915 254 915 q 165 894 186 915 q 139 833 144 872 l 46 833 q 96 942 50 897 q 228 986 142 986 q 319 966 281 986 q 377 913 357 946 q 397 838 397 879 q 363 738 397 781 q 264 647 329 696 l 151 564 l 403 564 l 403 489 l 49 489 z "},"³":{"ha":458,"x_min":36,"x_max":411,"o":"m 224 482 q 91 520 139 482 q 36 631 43 558 l 129 631 q 146 584 133 601 q 178 560 158 567 q 222 553 199 553 q 288 573 264 553 q 313 628 313 593 q 285 685 313 665 q 218 706 258 706 l 154 706 l 154 763 l 217 763 q 283 782 257 763 q 308 839 308 801 q 285 894 308 874 q 221 914 261 914 q 159 897 182 914 q 129 849 136 879 l 42 849 q 69 919 46 888 q 132 968 92 950 q 229 986 172 986 q 356 946 304 986 q 407 844 407 906 q 383 774 407 801 q 317 735 358 746 l 317 732 q 384 691 357 719 q 411 617 411 663 q 361 522 411 561 q 224 482 311 482 z "},"⁴":{"ha":446,"x_min":29,"x_max":424,"o":"m 268 489 l 268 581 l 29 581 l 29 650 l 257 972 l 360 972 l 360 656 l 424 656 l 424 581 l 360 581 l 360 489 l 268 489 m 126 656 l 275 656 l 275 872 l 275 872 l 126 656 z "}," ":{"ha":374,"x_min":0,"x_max":0,"o":""}," ":{"ha":374,"x_min":0,"x_max":0,"o":""},"\r":{"ha":833,"x_min":0,"x_max":0,"o":""},".":{"ha":289,"x_min":65,"x_max":224,"o":"m 144 -7 q 88 16 111 -7 q 65 72 65 39 q 88 128 65 106 q 144 151 111 151 q 202 128 181 151 q 224 72 224 106 q 202 16 224 39 q 144 -7 181 -7 z "},",":{"ha":269,"x_min":15,"x_max":217,"o":"m 15 -171 l 96 136 l 217 136 l 96 -171 l 15 -171 z "},":":{"ha":292,"x_min":65,"x_max":224,"o":"m 144 -7 q 88 16 111 -7 q 65 72 65 39 q 88 128 65 106 q 144 151 111 151 q 202 128 181 151 q 224 72 224 106 q 202 16 224 39 q 144 -7 181 -7 m 144 589 q 88 612 111 589 q 65 668 65 635 q 88 724 65 701 q 144 747 111 747 q 202 724 181 747 q 224 668 224 701 q 202 612 224 635 q 144 589 181 589 z "},";":{"ha":328,"x_min":42,"x_max":260,"o":"m 181 589 q 124 612 147 589 q 101 668 101 635 q 124 724 101 701 q 181 747 147 747 q 238 724 217 747 q 260 668 260 701 q 238 612 260 635 q 181 589 217 589 m 42 -171 l 122 136 l 243 136 l 122 -171 l 42 -171 z "},"…":{"ha":800,"x_min":65,"x_max":735,"o":"m 400 -7 q 344 16 367 -7 q 321 72 321 39 q 344 128 321 106 q 400 151 367 151 q 458 128 436 151 q 479 72 479 106 q 458 16 479 39 q 400 -7 436 -7 m 656 -7 q 599 16 622 -7 q 576 72 576 39 q 599 128 576 106 q 656 151 622 151 q 713 128 692 151 q 735 72 735 106 q 713 16 735 39 q 656 -7 692 -7 m 144 -7 q 88 16 111 -7 q 65 72 65 39 q 88 128 65 106 q 144 151 111 151 q 202 128 181 151 q 224 72 224 106 q 202 16 224 39 q 144 -7 181 -7 z "},"!":{"ha":367,"x_min":104,"x_max":263,"o":"m 135 299 l 121 972 l 247 972 l 233 299 l 135 299 m 183 -7 q 127 16 150 -7 q 104 72 104 39 q 127 128 104 106 q 183 151 150 151 q 241 128 219 151 q 263 72 263 106 q 241 16 263 39 q 183 -7 219 -7 z "},"¡":{"ha":367,"x_min":104,"x_max":263,"o":"m 135 442 l 233 442 l 247 -232 l 121 -232 l 135 442 m 183 747 q 241 724 219 747 q 263 668 263 701 q 241 612 263 635 q 183 589 219 589 q 127 612 150 589 q 104 668 104 635 q 127 724 104 701 q 183 747 150 747 z "},"?":{"ha":758,"x_min":54,"x_max":692,"o":"m 247 301 l 240 496 l 283 496 q 395 503 342 496 q 490 532 449 511 q 556 594 532 553 q 581 704 581 636 q 554 804 581 763 q 481 868 528 846 q 376 890 435 890 q 269 868 317 890 q 193 806 221 846 q 165 711 165 767 l 54 711 q 97 857 54 794 q 213 954 140 919 q 375 989 286 989 q 537 954 465 989 q 650 856 608 919 q 692 704 692 792 q 648 536 692 600 q 528 444 604 472 q 351 415 451 415 l 349 301 l 247 301 m 297 -7 q 241 16 264 -7 q 218 72 218 39 q 241 128 218 106 q 297 151 264 151 q 355 128 333 151 q 376 72 376 106 q 355 16 376 39 q 297 -7 333 -7 z "},"¿":{"ha":758,"x_min":67,"x_max":704,"o":"m 511 439 l 518 244 l 475 244 q 363 237 417 244 q 268 208 310 229 q 202 146 226 188 q 178 36 178 104 q 205 -63 178 -21 q 278 -128 232 -106 q 382 -150 324 -150 q 490 -128 442 -150 q 565 -65 538 -106 q 593 29 593 -25 l 704 29 q 661 -117 704 -54 q 546 -214 618 -179 q 383 -249 474 -249 q 222 -214 293 -249 q 108 -115 150 -179 q 67 36 67 -51 q 110 205 67 142 q 231 297 154 268 q 407 325 308 325 l 410 439 l 511 439 m 461 747 q 517 724 494 747 q 540 668 540 701 q 517 612 540 635 q 461 589 494 589 q 404 612 426 589 q 382 668 382 635 q 404 724 382 701 q 461 747 426 747 z "},"·":{"ha":289,"x_min":65,"x_max":224,"o":"m 144 396 q 88 419 111 396 q 65 475 65 442 q 88 532 65 510 q 144 554 111 554 q 202 532 181 554 q 224 475 224 510 q 202 419 224 442 q 144 396 181 396 z "},"•":{"ha":508,"x_min":88,"x_max":421,"o":"m 253 296 q 170 318 208 296 q 110 378 132 340 q 88 463 88 417 q 110 548 88 510 q 170 608 132 586 q 253 631 208 631 q 338 608 300 631 q 399 548 376 586 q 421 463 421 510 q 399 378 421 417 q 338 318 376 340 q 253 296 300 296 z "},"*":{"ha":674,"x_min":90,"x_max":586,"o":"m 294 500 l 311 713 l 139 592 l 90 676 l 282 761 l 90 844 l 136 926 l 313 806 l 293 1018 l 388 1018 l 365 806 l 540 926 l 585 846 l 393 760 l 586 675 l 539 593 l 365 713 l 386 500 l 294 500 z "},"#":{"ha":1078,"x_min":65,"x_max":1013,"o":"m 582 0 l 774 981 l 883 981 l 693 0 l 582 0 m 196 0 l 388 981 l 499 981 l 308 0 l 196 0 m 65 274 l 65 378 l 957 378 l 957 274 l 65 274 m 118 604 l 118 707 l 1013 707 l 1013 604 l 118 604 z "},"/":{"ha":546,"x_min":40,"x_max":504,"o":"m 40 -132 l 389 1061 l 504 1061 l 156 -132 l 40 -132 z "},"\\":{"ha":546,"x_min":40,"x_max":504,"o":"m 504 -132 l 389 -132 l 40 1061 l 156 1061 l 504 -132 z "},"-":{"ha":747,"x_min":99,"x_max":649,"o":"m 99 382 l 99 481 l 649 481 l 649 382 l 99 382 z "},"–":{"ha":925,"x_min":99,"x_max":826,"o":"m 99 382 l 99 481 l 826 481 l 826 382 l 99 382 z "},"—":{"ha":1208,"x_min":99,"x_max":1110,"o":"m 99 382 l 99 481 l 1110 481 l 1110 382 l 99 382 z "},"_":{"ha":876,"x_min":99,"x_max":778,"o":"m 99 -160 l 99 -50 l 778 -50 l 778 -160 l 99 -160 z "},"(":{"ha":519,"x_min":68,"x_max":467,"o":"m 347 -201 q 208 -30 272 -129 q 106 193 144 69 q 68 463 68 317 q 106 732 68 608 q 208 956 144 856 q 347 1126 272 1056 l 467 1126 l 467 1115 q 319 929 382 1032 q 220 709 256 826 q 185 463 185 592 q 220 216 185 333 q 319 -4 256 99 q 467 -190 383 -107 l 467 -201 l 347 -201 z "},")":{"ha":519,"x_min":53,"x_max":451,"o":"m 172 -201 l 53 -201 l 53 -190 q 201 -4 138 -107 q 299 216 264 99 q 335 463 335 333 q 299 709 335 592 q 201 929 264 826 q 53 1115 138 1032 l 53 1126 l 172 1126 q 312 956 249 1056 q 413 732 375 856 q 451 463 451 608 q 413 193 451 317 q 312 -30 375 69 q 172 -201 249 -129 z "},"{":{"ha":601,"x_min":107,"x_max":529,"o":"m 449 -211 q 296 -159 354 -211 q 238 -3 238 -107 q 245 83 238 44 q 260 162 253 121 q 268 256 268 203 q 255 326 268 294 q 207 381 242 358 q 107 411 172 403 l 107 506 q 207 535 172 514 q 255 590 242 557 q 268 661 268 622 q 260 755 268 715 q 245 833 253 794 q 238 918 238 871 q 296 1075 238 1024 q 449 1126 354 1126 l 529 1126 l 529 1026 l 469 1026 q 382 999 413 1026 q 351 908 351 972 q 359 831 351 868 q 374 753 367 794 q 381 657 381 713 q 344 531 381 585 q 226 460 308 478 l 226 457 q 344 385 308 439 q 381 258 381 332 q 374 163 381 204 q 359 85 367 122 q 351 7 351 49 q 382 -84 351 -57 q 469 -111 413 -111 l 529 -111 l 529 -211 l 449 -211 z "},"}":{"ha":601,"x_min":72,"x_max":494,"o":"m 153 -211 l 72 -211 l 72 -111 l 132 -111 q 219 -84 189 -111 q 250 7 250 -57 q 243 85 250 49 q 228 163 236 122 q 221 258 221 204 q 258 385 221 332 q 375 457 294 439 l 375 460 q 258 531 294 478 q 221 657 221 585 q 228 753 221 713 q 243 831 236 794 q 250 908 250 868 q 219 999 250 972 q 132 1026 189 1026 l 72 1026 l 72 1126 l 153 1126 q 306 1075 247 1126 q 364 918 364 1024 q 356 833 364 871 q 341 755 349 794 q 333 661 333 715 q 347 590 333 622 q 394 535 360 557 q 494 506 429 514 l 494 411 q 394 381 429 403 q 347 326 360 358 q 333 256 333 294 q 341 162 333 203 q 356 83 349 121 q 364 -3 364 44 q 306 -159 364 -107 q 153 -211 247 -211 z "},"[":{"ha":463,"x_min":107,"x_max":378,"o":"m 107 -210 l 107 1126 l 378 1126 l 378 1031 l 217 1031 l 217 -112 l 378 -112 l 378 -210 l 107 -210 z "},"]":{"ha":463,"x_min":85,"x_max":356,"o":"m 356 -210 l 85 -210 l 85 -112 l 246 -112 l 246 1031 l 85 1031 l 85 1126 l 356 1126 l 356 -210 z "},"‚":{"ha":278,"x_min":15,"x_max":225,"o":"m 15 -168 l 94 161 l 225 161 l 99 -168 l 15 -168 z "},"„":{"ha":506,"x_min":15,"x_max":453,"o":"m 15 -168 l 94 161 l 225 161 l 99 -168 l 15 -168 m 244 -168 l 322 161 l 453 161 l 328 -168 l 244 -168 z "},"“":{"ha":510,"x_min":42,"x_max":468,"o":"m 258 624 l 385 972 l 468 972 l 389 624 l 258 624 m 42 624 l 167 972 l 250 972 l 172 624 l 42 624 z "},"”":{"ha":510,"x_min":42,"x_max":468,"o":"m 251 972 l 125 624 l 42 624 l 121 972 l 251 972 m 468 972 l 343 624 l 260 624 l 338 972 l 468 972 z "},"‘":{"ha":292,"x_min":42,"x_max":250,"o":"m 42 624 l 167 972 l 250 972 l 172 624 l 42 624 z "},"’":{"ha":292,"x_min":42,"x_max":250,"o":"m 250 972 l 125 624 l 42 624 l 119 972 l 250 972 z "},"«":{"ha":628,"x_min":61,"x_max":558,"o":"m 443 167 l 308 410 l 443 653 l 558 653 l 419 410 l 558 167 l 443 167 m 196 167 l 61 410 l 196 653 l 311 653 l 172 410 l 311 167 l 196 167 z "},"»":{"ha":628,"x_min":69,"x_max":567,"o":"m 185 167 l 69 167 l 208 410 l 69 653 l 185 653 l 319 410 l 185 167 m 432 167 l 317 167 l 456 410 l 317 653 l 432 653 l 567 410 l 432 167 z "},"‹":{"ha":392,"x_min":65,"x_max":315,"o":"m 200 167 l 65 410 l 200 653 l 315 653 l 176 410 l 315 167 l 200 167 z "},"›":{"ha":392,"x_min":76,"x_max":326,"o":"m 192 167 l 76 167 l 215 410 l 76 653 l 192 653 l 326 410 l 192 167 z "},"\"":{"ha":435,"x_min":56,"x_max":379,"o":"m 283 736 l 265 1049 l 379 1049 l 363 736 l 283 736 m 72 736 l 56 1049 l 169 1049 l 154 736 l 72 736 z "},"'":{"ha":226,"x_min":56,"x_max":171,"o":"m 74 736 l 56 1049 l 171 1049 l 154 736 l 74 736 z "},"ƒ":{"ha":463,"x_min":-61,"x_max":461,"o":"m -61 -265 l -53 -168 l -22 -168 q 41 -148 19 -168 q 68 -75 63 -128 l 164 828 q 250 1008 176 951 q 461 1064 324 1064 l 453 965 q 328 933 369 965 q 281 828 288 901 l 185 -75 q 153 -184 178 -142 q 83 -246 128 -226 q -26 -265 39 -265 l -61 -265 m 46 664 l 54 761 l 440 761 l 432 664 l 46 664 z "},"@":{"ha":1365,"x_min":110,"x_max":1256,"o":"m 590 -276 q 341 -217 450 -276 q 171 -46 232 -157 q 110 218 110 65 q 153 480 110 358 q 280 694 197 601 q 481 838 363 786 q 751 889 600 889 q 1012 829 899 889 q 1190 664 1125 769 q 1256 419 1256 558 q 1238 263 1256 339 q 1183 125 1219 186 q 1095 28 1147 64 q 975 -8 1043 -8 q 856 43 894 -8 q 828 175 818 94 l 831 222 l 856 179 q 749 43 822 94 q 592 -8 676 -8 q 438 56 494 -8 q 382 235 382 121 q 404 377 382 308 q 468 500 426 446 q 567 586 510 554 q 697 618 625 618 q 827 574 779 618 q 885 440 875 529 l 856 422 l 889 603 l 986 603 l 917 203 q 924 109 907 146 q 992 72 940 72 q 1065 103 1033 72 q 1118 186 1097 135 q 1150 297 1139 238 q 1161 414 1161 357 q 1108 625 1161 538 q 959 760 1054 713 q 739 807 864 807 q 513 762 613 807 q 345 637 414 717 q 240 452 276 557 q 204 228 204 347 q 253 -2 204 92 q 395 -144 303 -96 q 614 -193 488 -193 q 732 -181 674 -193 q 842 -146 790 -169 l 863 -225 q 732 -264 800 -251 q 590 -276 664 -276 m 625 81 q 727 113 681 81 q 805 201 774 144 q 843 333 836 258 q 835 432 849 388 q 788 503 821 476 q 701 529 754 529 q 610 506 650 529 q 543 441 569 482 q 503 351 517 400 q 489 249 489 301 q 523 126 489 172 q 625 81 557 81 z "},"&":{"ha":1025,"x_min":69,"x_max":953,"o":"m 806 0 l 307 522 q 215 643 243 589 q 186 763 186 697 q 217 878 186 826 q 308 959 249 929 q 453 989 368 989 q 592 960 535 989 q 681 881 650 932 q 715 764 713 831 l 599 764 q 555 861 596 828 q 453 894 514 894 q 340 856 379 894 q 301 764 301 817 q 326 674 301 718 q 400 575 350 629 l 953 0 l 806 0 m 381 -17 q 216 20 286 -17 q 108 124 146 57 q 69 282 69 192 q 97 409 69 351 q 177 510 124 467 q 311 581 231 554 l 347 593 l 407 517 l 364 501 q 231 416 274 469 q 188 288 188 363 q 212 183 188 229 q 282 111 236 138 q 389 85 328 85 q 525 119 467 85 q 642 229 583 153 q 701 316 671 267 q 765 425 731 365 l 808 503 l 932 503 l 867 383 q 798 264 832 318 q 728 165 764 210 q 571 28 654 72 q 381 -17 488 -17 z "},"¶":{"ha":821,"x_min":53,"x_max":714,"o":"m 394 -139 l 394 410 l 381 410 q 195 447 268 410 q 88 547 122 483 q 53 690 53 611 q 88 834 53 771 q 197 935 124 897 q 381 972 269 972 l 714 972 l 714 -139 l 611 -139 l 611 881 l 497 881 l 497 -139 l 394 -139 z "},"§":{"ha":822,"x_min":67,"x_max":754,"o":"m 407 -322 q 246 -287 315 -322 q 138 -192 176 -253 q 99 -53 100 -131 l 221 -53 q 242 -132 221 -93 q 305 -197 263 -171 q 411 -222 347 -222 q 541 -182 490 -224 q 592 -67 592 -140 q 572 10 592 -19 q 513 58 551 39 q 424 94 475 78 q 310 132 372 111 q 185 190 240 156 q 98 276 129 224 q 67 410 67 329 q 86 508 67 461 q 144 594 106 556 q 117 652 126 621 q 107 722 107 683 q 144 861 107 801 q 251 955 182 921 q 414 989 319 989 q 576 954 507 989 q 683 859 644 919 q 722 719 722 799 l 600 719 q 579 799 600 760 q 516 863 558 838 q 410 889 474 889 q 280 849 331 890 q 229 733 229 807 q 249 657 229 686 q 308 608 269 628 q 397 572 346 589 q 511 535 449 556 q 637 477 582 511 q 723 390 692 443 q 754 257 754 338 q 735 158 754 206 q 675 72 715 110 q 703 15 694 46 q 713 -56 713 -17 q 676 -194 714 -133 q 570 -288 639 -254 q 407 -322 501 -322 m 592 144 q 623 192 613 165 q 633 250 633 219 q 610 342 633 307 q 544 398 586 376 q 449 437 503 419 q 336 475 396 454 q 278 498 304 486 q 229 522 251 510 q 198 475 208 501 q 188 417 188 449 q 203 342 188 372 q 246 290 218 311 q 311 252 274 268 q 393 222 349 236 q 485 192 438 208 q 543 169 517 182 q 592 144 569 157 z "},"©":{"ha":1103,"x_min":71,"x_max":1032,"o":"m 551 -6 q 300 58 408 -6 q 131 232 192 121 q 71 486 71 343 q 131 742 71 631 q 300 915 192 853 q 551 978 408 978 q 802 915 694 978 q 971 742 910 853 q 1032 486 1032 631 q 971 232 1032 343 q 802 58 910 121 q 551 -6 694 -6 m 551 165 q 401 203 469 165 q 291 314 332 242 q 250 488 250 386 q 291 661 250 589 q 401 772 332 733 q 551 810 469 810 q 732 755 654 810 q 836 597 810 700 l 729 597 q 661 692 710 660 q 550 725 613 725 q 451 698 496 725 q 380 618 407 671 q 353 486 353 565 q 380 355 353 408 q 451 275 407 301 q 550 249 496 249 q 662 281 615 249 q 729 375 708 314 l 836 375 q 732 222 810 278 q 551 165 654 165 m 551 47 q 778 103 683 47 q 925 258 874 158 q 976 486 976 357 q 925 717 976 618 q 778 871 874 815 q 551 926 683 926 q 325 871 421 926 q 178 717 229 815 q 126 486 126 618 q 178 258 126 357 q 325 103 229 158 q 551 47 421 47 z "},"®":{"ha":700,"x_min":72,"x_max":628,"o":"m 351 426 q 206 463 269 426 q 108 563 143 499 q 72 707 72 626 q 108 852 72 789 q 206 952 143 915 q 351 989 269 989 q 494 952 432 989 q 592 852 557 915 q 628 707 628 789 q 592 563 628 626 q 494 463 557 499 q 351 426 432 426 m 407 560 l 321 697 l 392 697 l 485 560 l 407 560 m 351 476 q 469 506 419 476 q 546 588 518 536 q 574 707 574 640 q 546 826 574 775 q 469 908 518 878 q 351 938 419 938 q 233 908 283 938 q 154 826 182 878 q 126 707 126 775 q 154 588 126 640 q 233 506 182 536 q 351 476 283 476 m 240 560 l 240 858 l 372 858 q 447 834 419 858 q 474 767 474 810 q 447 701 474 725 q 372 676 419 676 l 306 676 l 306 560 l 240 560 m 306 729 l 367 729 q 397 738 385 729 q 408 765 408 746 q 397 792 408 785 q 367 800 385 800 l 306 800 l 306 729 z "},"™":{"ha":1072,"x_min":38,"x_max":1003,"o":"m 38 899 l 38 972 l 378 972 l 378 899 l 254 899 l 254 483 l 161 483 l 161 899 l 38 899 m 453 483 l 453 972 l 571 972 l 728 593 l 892 972 l 1003 972 l 1003 483 l 917 483 l 917 846 l 758 483 l 692 483 l 536 850 l 536 483 l 453 483 z "},"°":{"ha":476,"x_min":54,"x_max":421,"o":"m 238 617 q 146 640 188 617 q 79 704 104 663 q 54 801 54 746 q 80 901 54 860 q 147 966 106 943 q 239 989 189 989 q 330 966 289 989 q 396 901 371 943 q 421 801 421 860 q 396 704 421 746 q 329 640 371 663 q 238 617 288 617 m 238 703 q 301 728 271 703 q 331 803 331 753 q 301 878 331 853 q 239 903 272 903 q 175 878 204 903 q 146 803 146 853 q 174 728 146 753 q 238 703 203 703 z "},"|":{"ha":331,"x_min":107,"x_max":224,"o":"m 107 -139 l 107 1000 l 224 1000 l 224 -139 l 107 -139 z "},"¦":{"ha":331,"x_min":107,"x_max":224,"o":"m 107 538 l 107 1000 l 224 1000 l 224 538 l 107 538 m 107 -139 l 107 324 l 224 324 l 224 -139 l 107 -139 z "},"ℓ":{"ha":331,"x_min":107,"x_max":224,"o":"m 107 -139 l 107 1000 l 224 1000 l 224 -139 l 107 -139 z "},"†":{"ha":738,"x_min":57,"x_max":679,"o":"m 311 -360 l 322 678 l 57 668 l 57 761 l 322 750 l 311 1083 l 426 1083 l 415 750 l 679 761 l 679 668 l 415 678 l 426 -360 l 311 -360 z "},"‡":{"ha":739,"x_min":58,"x_max":681,"o":"m 311 -360 l 324 -26 l 58 -36 l 58 57 l 324 46 l 324 678 l 58 668 l 58 761 l 324 750 l 311 1083 l 426 1083 l 415 750 l 681 761 l 681 668 l 415 678 l 415 46 l 681 57 l 681 -36 l 415 -26 l 426 -360 l 311 -360 z "},"℮":{"ha":1058,"x_min":67,"x_max":992,"o":"m 542 -10 q 298 45 406 -10 q 128 204 190 100 q 67 458 67 308 q 120 717 67 601 q 277 902 174 833 q 529 971 381 971 q 726 933 640 971 q 872 833 813 896 q 961 689 931 769 q 992 521 992 608 l 992 436 l 247 436 l 247 206 q 371 103 301 138 q 542 69 440 69 q 672 91 613 69 q 787 153 732 113 q 899 249 842 193 l 953 190 q 764 44 867 97 q 542 -10 661 -10 m 247 522 l 797 522 l 797 768 q 685 860 754 828 q 529 892 615 892 q 369 858 442 892 q 247 753 296 825 l 247 522 z "},"¢":{"ha":801,"x_min":69,"x_max":731,"o":"m 368 -144 l 368 56 l 481 56 l 481 -144 l 368 -144 m 368 675 l 368 875 l 481 875 l 481 675 l 368 675 m 414 -17 q 236 31 314 -17 q 114 165 158 79 q 69 365 69 251 q 114 566 69 481 q 236 699 158 651 q 414 747 314 747 q 623 681 539 747 q 731 501 707 614 l 611 501 q 541 609 596 571 q 413 647 486 647 q 298 615 349 647 q 218 521 247 583 q 189 365 189 458 q 206 242 189 296 q 252 153 222 189 q 323 100 282 118 q 413 82 364 82 q 503 99 463 82 q 573 150 544 117 q 611 229 601 183 l 731 229 q 623 51 708 119 q 414 -17 538 -17 z "},"¤":{"ha":742,"x_min":90,"x_max":653,"o":"m 371 168 q 246 198 300 168 q 160 283 192 228 q 129 413 129 338 q 161 542 129 488 q 248 627 193 597 q 372 657 303 657 q 495 627 440 657 q 582 542 550 597 q 614 413 614 488 q 581 283 614 338 q 494 198 549 228 q 371 168 439 168 m 149 124 l 90 183 l 206 299 l 267 242 l 149 124 m 594 124 l 485 235 l 542 294 l 653 183 l 594 124 m 371 258 q 433 274 403 258 q 484 324 464 290 q 504 413 504 358 q 484 502 504 468 q 433 552 464 536 q 371 568 403 568 q 307 552 338 568 q 258 502 276 536 q 239 413 239 468 q 258 324 239 358 q 307 274 276 290 q 371 258 338 258 m 204 532 l 90 644 l 149 703 l 263 589 l 204 532 m 535 526 l 482 588 l 594 703 l 653 644 l 535 526 z "},"$":{"ha":814,"x_min":67,"x_max":746,"o":"m 358 -121 l 358 1099 l 454 1099 l 454 -121 l 358 -121 m 418 -17 q 232 22 311 -17 q 110 131 153 61 q 67 292 67 200 l 189 292 q 215 187 189 235 q 292 110 242 139 q 418 82 343 82 q 530 103 483 82 q 601 163 576 125 q 625 247 625 200 q 602 335 625 300 q 539 394 579 371 q 446 435 499 417 q 332 472 393 453 q 155 570 210 511 q 100 722 100 629 q 137 861 100 801 q 242 955 174 921 q 406 989 311 989 q 567 954 499 989 q 675 859 636 919 q 714 719 714 799 l 592 719 q 571 799 592 760 q 508 863 550 838 q 401 889 465 889 q 308 872 349 890 q 244 818 267 853 q 221 733 221 783 q 241 657 221 686 q 299 608 261 628 q 389 571 338 588 q 503 533 440 554 q 628 476 574 510 q 715 389 683 442 q 746 254 746 336 q 709 123 746 185 q 600 22 672 61 q 418 -17 528 -17 z "},"€":{"ha":1060,"x_min":32,"x_max":992,"o":"m 32 336 l 32 424 l 632 424 l 632 336 l 32 336 m 32 550 l 32 636 l 632 636 l 632 550 l 32 550 m 592 -17 q 353 47 454 -17 q 198 223 253 110 q 143 486 143 336 q 198 749 143 636 q 353 926 253 863 q 592 989 454 989 q 860 910 757 989 q 992 686 963 831 l 865 686 q 774 831 842 776 q 592 886 707 886 q 417 838 492 886 q 303 701 343 790 q 263 486 263 611 q 303 272 263 361 q 417 134 343 182 q 592 86 492 86 q 774 140 707 86 q 865 282 842 193 l 992 282 q 860 63 963 142 q 592 -17 757 -17 z "},"₺":{"ha":1132,"x_min":44,"x_max":1006,"o":"m 503 -17 q 394 -10 451 -17 q 275 11 336 -3 l 275 972 l 394 972 l 394 103 q 450 94 424 97 q 503 92 476 92 q 678 124 606 92 q 797 219 751 157 q 865 374 843 282 q 886 582 886 465 l 1006 582 q 953 251 1006 385 q 791 51 901 118 q 503 -17 681 -17 m 47 286 l 47 369 l 646 517 l 646 433 l 47 286 m 44 515 l 44 596 l 649 749 l 649 667 l 44 515 z "},"₽":{"ha":867,"x_min":56,"x_max":814,"o":"m 56 175 l 56 268 l 176 268 l 176 408 l 56 408 l 56 504 l 176 504 l 176 972 l 482 972 q 669 935 596 972 q 778 835 743 899 q 814 689 814 771 q 779 547 814 611 q 672 446 744 483 q 482 408 599 408 l 293 408 l 293 268 l 603 268 l 603 175 l 293 175 l 293 0 l 176 0 l 176 175 l 56 175 m 293 504 l 481 504 q 646 554 596 504 q 696 689 696 604 q 646 830 696 779 q 481 881 596 881 l 293 881 l 293 504 z "},"₨":{"ha":1472,"x_min":107,"x_max":1399,"o":"m 107 0 l 107 972 l 421 972 q 607 934 535 972 q 714 832 679 896 q 749 688 749 768 q 713 544 749 610 q 604 440 678 479 q 415 401 531 401 l 224 401 l 224 0 l 107 0 m 621 0 l 407 435 l 538 435 l 758 0 l 621 0 m 224 493 l 413 493 q 576 547 524 493 q 628 686 628 601 q 577 823 628 772 q 411 874 526 874 l 224 874 l 224 493 m 1128 -17 q 965 13 1029 -17 q 867 97 900 43 q 826 221 833 150 l 946 221 q 972 152 951 183 q 1031 101 992 121 q 1129 82 1069 82 q 1210 97 1176 82 q 1260 138 1243 111 q 1278 199 1278 164 q 1258 270 1278 244 q 1199 309 1238 296 q 1104 329 1161 322 q 996 353 1043 338 q 916 393 949 368 q 867 456 883 418 q 850 544 850 493 q 882 650 850 604 q 973 722 914 696 q 1113 747 1032 747 q 1299 693 1231 747 q 1381 539 1368 639 l 1265 539 q 1218 619 1258 590 q 1111 649 1178 649 q 1004 622 1040 649 q 968 553 968 596 q 984 495 968 521 q 1039 452 1000 469 q 1143 426 1078 435 q 1282 395 1225 417 q 1369 329 1339 374 q 1397 208 1399 285 q 1363 86 1397 136 q 1269 10 1329 36 q 1128 -17 1208 -17 z "},"₹":{"ha":888,"x_min":74,"x_max":826,"o":"m 414 -17 q 205 60 275 -17 q 135 275 135 138 l 135 475 q 348 484 268 475 q 467 520 428 493 q 519 601 507 547 q 532 746 532 656 l 532 922 l 642 922 l 642 746 q 623 578 642 646 q 559 469 604 510 q 437 410 514 428 q 244 393 360 393 l 244 271 q 283 128 244 182 q 415 75 322 75 q 541 125 501 75 q 581 263 581 175 l 689 263 q 616 54 688 125 q 414 -17 544 -17 m 74 644 l 74 728 l 826 728 l 826 644 l 74 644 m 74 888 l 74 972 l 826 972 l 826 888 l 74 888 z "},"£":{"ha":840,"x_min":65,"x_max":754,"o":"m 124 0 l 124 75 q 184 150 158 114 q 224 230 210 186 q 239 333 239 274 q 226 423 239 381 q 197 508 214 465 q 167 598 179 550 q 154 704 154 646 q 192 854 154 790 q 296 953 229 918 q 450 989 363 989 q 613 950 549 989 q 713 847 678 911 q 751 704 747 782 l 644 704 q 591 838 640 785 q 450 892 542 892 q 359 872 401 892 q 291 809 317 851 q 265 699 265 767 q 278 605 265 650 q 307 515 290 560 q 336 426 324 471 q 349 336 349 382 q 324 208 349 268 q 247 96 300 149 l 754 96 l 754 0 l 124 0 m 65 431 l 65 513 l 575 513 l 575 431 l 65 431 z "},"¥":{"ha":838,"x_min":44,"x_max":793,"o":"m 83 250 l 83 335 l 756 335 l 756 250 l 83 250 m 379 468 l 83 468 l 83 551 l 365 551 l 379 468 m 479 468 l 493 551 l 756 551 l 756 468 l 479 468 m 361 0 l 361 369 l 44 972 l 176 972 l 419 481 l 419 481 l 663 972 l 793 972 l 478 369 l 478 0 l 361 0 z "},"∕":{"ha":543,"x_min":40,"x_max":504,"o":"m 40 -132 l 389 1061 l 504 1061 l 156 -132 l 40 -132 z "},"+":{"ha":764,"x_min":64,"x_max":699,"o":"m 328 100 l 328 706 l 433 706 l 433 100 l 328 100 m 64 354 l 64 453 l 699 453 l 699 354 l 64 354 z "},"−":{"ha":764,"x_min":107,"x_max":657,"o":"m 107 382 l 107 481 l 657 481 l 657 382 l 107 382 z "},"×":{"ha":764,"x_min":125,"x_max":638,"o":"m 194 147 l 125 217 l 311 404 l 135 582 l 206 651 l 382 474 l 568 661 l 638 593 l 451 404 l 629 228 l 558 158 l 381 335 l 194 147 z "},"÷":{"ha":764,"x_min":106,"x_max":658,"o":"m 106 354 l 106 453 l 658 453 l 658 354 l 106 354 m 382 124 q 326 147 349 124 q 303 203 303 169 q 326 259 303 236 q 382 282 349 282 q 440 259 418 282 q 461 203 461 236 q 440 147 461 169 q 382 124 418 124 m 382 526 q 326 549 349 526 q 303 606 303 572 q 326 662 303 639 q 382 685 349 685 q 440 662 418 685 q 461 606 461 639 q 440 549 461 572 q 382 526 418 526 z "},"=":{"ha":764,"x_min":104,"x_max":658,"o":"m 104 499 l 104 599 l 658 599 l 658 499 l 104 499 m 104 210 l 104 308 l 658 308 l 658 210 l 104 210 z "},"≠":{"ha":764,"x_min":106,"x_max":660,"o":"m 163 117 l 467 690 l 572 690 l 267 117 l 163 117 m 106 499 l 106 599 l 660 599 l 660 499 l 106 499 m 106 210 l 106 308 l 660 308 l 660 210 l 106 210 z "},">":{"ha":764,"x_min":138,"x_max":626,"o":"m 138 90 l 479 410 l 138 731 l 288 731 l 626 410 l 626 410 l 288 90 l 138 90 z "},"<":{"ha":764,"x_min":138,"x_max":626,"o":"m 626 90 l 476 90 l 138 410 l 138 410 l 476 731 l 626 731 l 285 410 l 626 90 z "},"≥":{"ha":764,"x_min":135,"x_max":629,"o":"m 136 172 l 474 440 l 136 707 l 288 707 l 629 439 l 629 439 l 288 172 l 136 172 m 135 0 l 135 89 l 619 89 l 619 0 l 135 0 z "},"≤":{"ha":764,"x_min":135,"x_max":629,"o":"m 628 172 l 476 172 l 135 439 l 135 439 l 476 707 l 628 707 l 290 440 l 628 172 m 629 0 l 144 0 l 144 89 l 629 89 l 629 0 z "},"±":{"ha":764,"x_min":51,"x_max":711,"o":"m 51 0 l 51 89 l 711 89 l 711 0 l 51 0 m 329 174 l 329 664 l 433 664 l 433 174 l 329 174 m 51 369 l 51 468 l 711 468 l 711 369 l 51 369 z "},"≈":{"ha":764,"x_min":81,"x_max":683,"o":"m 497 153 q 427 167 458 153 q 369 202 396 182 q 317 237 343 222 q 260 251 290 251 q 200 224 221 251 q 172 157 179 197 l 81 157 q 114 267 89 224 q 178 333 139 311 q 267 356 217 356 q 338 341 307 356 q 397 307 369 326 q 449 273 424 288 q 504 258 475 258 q 566 285 544 258 q 592 353 588 311 l 683 353 q 651 242 676 286 q 588 175 626 197 q 497 153 549 153 m 497 440 q 427 455 458 440 q 369 490 396 469 q 317 524 343 510 q 260 539 290 539 q 200 512 221 539 q 172 444 179 485 l 81 444 q 114 555 89 511 q 178 621 139 599 q 267 643 217 643 q 338 628 307 643 q 397 594 369 614 q 449 560 424 575 q 504 546 475 546 q 566 572 544 546 q 592 640 588 599 l 683 640 q 651 529 676 574 q 588 463 626 485 q 497 440 549 440 z "},"~":{"ha":764,"x_min":81,"x_max":683,"o":"m 497 343 q 427 358 458 343 q 369 392 396 372 q 317 427 343 413 q 260 442 290 442 q 200 415 221 442 q 172 347 179 388 l 81 347 q 114 458 89 414 q 178 524 139 501 q 267 546 217 546 q 338 531 307 546 q 397 497 369 517 q 449 463 424 478 q 504 449 475 449 q 566 475 544 449 q 592 543 588 501 l 683 543 q 651 432 676 476 q 588 365 626 388 q 497 343 549 343 z "},"¬":{"ha":764,"x_min":-14,"x_max":778,"o":"m 661 310 l 661 507 l -14 507 l -14 600 l 778 600 l 778 310 l 661 310 z "},"^":{"ha":874,"x_min":58,"x_max":817,"o":"m 58 422 l 383 972 l 490 972 l 817 422 l 699 422 l 438 850 l 438 850 l 176 422 l 58 422 z "},"∞":{"ha":936,"x_min":51,"x_max":885,"o":"m 247 196 q 108 249 164 196 q 51 397 51 301 q 78 508 51 463 q 150 578 106 554 q 249 603 194 603 q 348 579 306 603 q 423 519 390 556 q 484 441 456 482 q 540 363 513 400 q 601 303 568 326 q 676 279 635 279 q 760 312 729 279 q 792 400 792 344 q 762 487 792 456 q 682 518 732 518 q 573 473 621 518 q 499 358 525 428 l 444 399 q 492 497 460 450 q 574 574 525 543 q 688 603 624 604 q 828 550 772 603 q 885 401 885 497 q 858 290 885 336 q 785 220 831 244 q 682 196 739 196 q 584 219 626 196 q 508 280 542 243 q 444 358 474 317 q 387 435 415 399 q 326 496 358 472 q 253 519 294 519 q 175 487 206 519 q 144 397 144 454 q 174 312 144 343 q 254 281 204 281 q 363 326 315 281 q 436 440 411 372 l 492 400 q 443 303 476 350 q 361 226 410 256 q 247 196 313 196 z "},"∫":{"ha":358,"x_min":-53,"x_max":424,"o":"m -53 -265 l -43 -168 l -14 -168 q 41 -148 25 -168 q 63 -75 57 -128 l 192 1086 q 224 1194 199 1153 q 292 1253 249 1235 q 393 1271 335 1271 l 424 1271 l 414 1172 l 388 1172 q 333 1154 353 1172 q 308 1086 314 1136 l 179 -75 q 149 -184 172 -142 q 83 -246 125 -226 q -19 -265 42 -265 l -53 -265 z "},"Ω":{"ha":1096,"x_min":60,"x_max":1038,"o":"m 78 0 l 78 92 l 349 92 l 328 68 q 181 166 240 101 q 90 316 121 231 q 60 496 60 401 q 97 696 60 606 q 201 852 135 786 q 357 953 268 918 q 547 989 446 989 q 739 953 650 989 q 895 852 828 918 q 1000 696 963 786 q 1038 496 1038 606 q 1007 316 1038 401 q 916 166 976 231 q 767 68 856 101 l 746 92 l 1017 92 l 1017 0 l 636 0 l 636 96 q 782 170 718 117 q 883 305 846 224 q 919 489 919 386 q 891 652 919 579 q 813 776 863 725 q 694 856 763 828 q 547 883 626 883 q 399 855 467 883 q 282 774 332 826 q 204 650 232 722 q 176 489 176 578 q 213 305 176 386 q 314 170 250 224 q 460 96 378 117 l 460 0 l 78 0 z "},"∆":{"ha":967,"x_min":43,"x_max":925,"o":"m 43 0 l 43 90 l 435 972 l 532 972 l 925 90 l 925 0 l 43 0 m 161 90 l 807 90 l 483 839 l 161 90 z "},"∏":{"ha":1007,"x_min":51,"x_max":956,"o":"m 163 0 l 163 881 l 51 881 l 51 972 l 956 972 l 956 881 l 846 881 l 846 0 l 729 0 l 729 881 l 279 881 l 279 0 l 163 0 z "},"∑":{"ha":625,"x_min":57,"x_max":599,"o":"m 57 -68 l 57 65 l 421 453 l 57 839 l 57 972 l 599 972 l 599 882 l 151 882 l 526 500 l 526 410 l 153 22 l 599 22 l 599 -68 l 57 -68 z "},"√":{"ha":989,"x_min":25,"x_max":1053,"o":"m 25 249 l 214 358 l 371 82 l 969 1201 l 1053 1201 l 376 -61 l 319 -61 l 150 238 l 61 188 l 25 249 z "},"µ":{"ha":815,"x_min":99,"x_max":717,"o":"m 99 -306 l 99 689 l 215 689 l 215 299 q 260 138 215 192 q 393 83 306 83 q 499 113 453 83 q 573 197 546 142 q 600 332 600 253 l 600 689 l 717 689 l 717 0 l 611 0 l 604 122 l 604 122 q 508 21 571 58 q 365 -17 444 -17 q 284 -6 322 -17 q 215 28 246 6 l 215 -306 l 99 -306 z "},"∂":{"ha":788,"x_min":54,"x_max":733,"o":"m 325 -14 q 190 21 251 -14 q 91 126 128 56 q 54 307 54 197 q 81 483 54 399 q 156 632 107 567 q 274 735 206 697 q 424 774 342 774 q 506 760 468 774 q 573 712 544 746 q 617 617 601 678 q 593 791 615 714 q 522 913 571 868 q 390 957 474 957 q 337 952 364 957 q 279 939 310 947 l 279 1008 q 347 1024 315 1019 q 411 1028 379 1028 q 585 976 514 1028 q 695 822 657 924 q 733 574 733 721 q 680 261 733 393 q 534 58 626 129 q 325 -14 442 -14 m 336 86 q 443 116 394 86 q 526 197 492 146 q 580 314 561 247 q 599 453 599 381 q 553 621 599 567 q 431 675 508 675 q 326 647 374 675 q 244 569 279 619 q 191 451 210 518 q 172 307 172 385 q 220 140 172 193 q 336 86 268 86 z "},"%":{"ha":1144,"x_min":63,"x_max":1083,"o":"m 228 0 l 793 972 l 910 972 l 344 0 l 228 0 m 863 -17 q 750 12 800 -17 q 670 93 700 40 q 640 217 640 146 q 670 341 640 289 q 750 422 700 393 q 863 450 800 450 q 976 422 926 450 q 1054 341 1025 393 q 1083 217 1083 289 q 1054 93 1083 146 q 975 12 1025 40 q 863 -17 925 -17 m 861 74 q 922 90 894 74 q 967 138 950 106 q 985 217 985 169 q 968 297 985 265 q 924 345 951 329 q 863 361 896 361 q 802 345 831 361 q 756 297 774 329 q 739 217 739 265 q 756 138 739 169 q 801 90 774 106 q 861 74 829 74 m 285 521 q 172 549 222 521 q 92 631 122 578 q 63 754 63 683 q 92 878 63 826 q 173 959 122 931 q 286 988 224 988 q 399 959 349 988 q 478 878 449 931 q 507 754 507 826 q 478 631 507 683 q 398 549 449 578 q 285 521 347 521 m 285 611 q 346 627 318 611 q 390 675 374 643 q 407 754 407 707 q 390 835 407 803 q 346 884 374 868 q 286 900 318 900 q 225 884 254 900 q 178 835 196 868 q 161 754 161 803 q 178 675 161 707 q 224 627 196 643 q 285 611 253 611 z "},"‰":{"ha":1629,"x_min":63,"x_max":1568,"o":"m 1346 -17 q 1233 12 1283 -17 q 1153 93 1183 40 q 1124 217 1124 146 q 1153 341 1124 289 q 1234 422 1183 393 q 1347 450 1285 450 q 1460 422 1410 450 q 1539 341 1510 393 q 1568 217 1568 289 q 1539 93 1568 146 q 1459 12 1510 40 q 1346 -17 1408 -17 m 1346 71 q 1408 88 1379 71 q 1453 137 1436 104 q 1471 217 1471 169 q 1454 299 1471 267 q 1409 348 1438 332 q 1347 364 1381 364 q 1285 348 1314 364 q 1238 299 1256 332 q 1221 217 1221 267 q 1238 137 1221 169 q 1285 88 1256 104 q 1346 71 1314 71 m 228 0 l 793 972 l 910 972 l 344 0 l 228 0 m 863 -17 q 750 12 800 -17 q 670 93 700 40 q 640 217 640 146 q 670 341 640 289 q 750 422 700 393 q 863 450 800 450 q 976 422 926 450 q 1054 341 1025 393 q 1083 217 1083 289 q 1054 93 1083 146 q 975 12 1025 40 q 863 -17 925 -17 m 861 74 q 922 90 894 74 q 967 138 950 106 q 985 217 985 169 q 968 297 985 265 q 924 345 951 329 q 863 361 896 361 q 802 345 831 361 q 756 297 774 329 q 739 217 739 265 q 756 138 739 169 q 801 90 774 106 q 861 74 829 74 m 285 521 q 172 549 222 521 q 92 631 122 578 q 63 754 63 683 q 92 878 63 826 q 173 959 122 931 q 286 988 224 988 q 399 959 349 988 q 478 878 449 931 q 507 754 507 826 q 478 631 507 683 q 398 549 449 578 q 285 521 347 521 m 285 611 q 346 627 318 611 q 390 675 374 643 q 407 754 407 707 q 390 835 407 803 q 346 884 374 868 q 286 900 318 900 q 225 884 254 900 q 178 835 196 868 q 161 754 161 803 q 178 675 161 707 q 224 627 196 643 q 285 611 253 611 z "},"↑":{"ha":1190,"x_min":56,"x_max":1135,"o":"m 56 472 l 564 972 l 626 972 l 1135 472 l 1060 397 l 653 801 l 653 0 l 539 0 l 539 804 l 131 399 l 56 472 z "},"↗":{"ha":874,"x_min":56,"x_max":818,"o":"m 143 101 l 65 179 l 642 754 l 56 754 l 56 858 l 774 858 l 818 815 l 818 94 l 714 94 l 714 672 l 143 101 z "},"→":{"ha":1083,"x_min":56,"x_max":1028,"o":"m 56 419 l 56 529 l 860 529 l 454 913 l 528 988 l 1028 507 l 1028 446 l 528 -36 l 453 40 l 856 419 l 56 419 z "},"↘":{"ha":874,"x_min":56,"x_max":818,"o":"m 143 849 l 714 278 l 714 856 l 818 856 l 818 135 l 774 92 l 56 92 l 56 196 l 642 196 l 65 771 l 143 849 z "},"↓":{"ha":1190,"x_min":56,"x_max":1135,"o":"m 56 500 l 131 574 l 539 168 l 539 972 l 653 972 l 653 171 l 1060 575 l 1135 500 l 626 0 l 564 0 l 56 500 z "},"↙":{"ha":874,"x_min":56,"x_max":818,"o":"m 731 849 l 808 771 l 232 196 l 818 196 l 818 92 l 100 92 l 56 135 l 56 856 l 160 856 l 160 278 l 731 849 z "},"←":{"ha":1083,"x_min":56,"x_max":1028,"o":"m 1028 419 l 228 419 l 631 40 l 556 -36 l 56 446 l 56 507 l 556 988 l 629 913 l 224 529 l 1028 529 l 1028 419 z "},"↖":{"ha":874,"x_min":56,"x_max":818,"o":"m 731 85 l 160 656 l 160 78 l 56 78 l 56 799 l 100 842 l 818 842 l 818 738 l 232 738 l 808 163 l 731 85 z "},"↔":{"ha":1388,"x_min":56,"x_max":1332,"o":"m 56 446 l 56 507 l 524 988 l 603 918 l 218 528 l 1169 528 l 785 918 l 864 988 l 1332 507 l 1332 446 l 864 -36 l 785 33 l 1167 422 l 221 422 l 603 33 l 524 -36 l 56 446 z "},"↕":{"ha":1164,"x_min":56,"x_max":1108,"o":"m 56 335 l 121 413 l 525 144 l 525 828 l 121 560 l 56 638 l 550 972 l 613 972 l 1108 638 l 1043 560 l 639 828 l 639 144 l 1043 413 l 1108 335 l 613 0 l 550 0 l 56 335 z "},"◊":{"ha":768,"x_min":51,"x_max":717,"o":"m 383 153 l 51 486 l 385 818 l 717 486 l 383 153 m 383 275 l 593 486 l 385 696 l 176 486 l 383 275 z "},"̈":{"ha":0,"x_min":0,"x_max":360,"o":"m 69 822 q 20 842 40 822 q 0 892 0 863 q 20 940 0 919 q 69 961 40 961 q 118 940 97 961 q 139 892 139 919 q 118 842 139 863 q 69 822 97 822 m 292 822 q 242 842 263 822 q 222 892 222 863 q 242 940 222 919 q 292 961 263 961 q 340 940 319 961 q 360 892 360 919 q 340 842 360 863 q 292 822 319 822 z "},"̇":{"ha":0,"x_min":0,"x_max":139,"o":"m 69 824 q 21 844 42 824 q 0 893 0 865 q 21 942 0 921 q 69 963 42 963 q 118 942 97 963 q 139 893 139 921 q 118 844 139 865 q 69 824 97 824 z "},"̀":{"ha":0,"x_min":0,"x_max":310,"o":"m 260 790 l 0 949 l 67 1043 l 67 1043 l 310 865 l 260 790 z "},"́":{"ha":0,"x_min":0,"x_max":310,"o":"m 50 790 l 0 865 l 243 1043 l 243 1043 l 310 949 l 50 790 z "},"̋":{"ha":0,"x_min":0,"x_max":404,"o":"m 203 763 l 303 969 l 404 969 l 281 763 l 203 763 m 0 763 l 92 969 l 193 969 l 79 763 l 0 763 z "},"̂":{"ha":0,"x_min":0,"x_max":381,"o":"m 0 794 l 0 886 l 190 999 l 381 886 l 381 794 l 190 911 l 0 794 z "},"̌":{"ha":0,"x_min":0,"x_max":381,"o":"m 190 813 l 0 926 l 0 1017 l 190 900 l 381 1017 l 381 926 l 190 813 z "},"̆":{"ha":0,"x_min":0,"x_max":390,"o":"m 194 813 q 88 837 131 813 q 22 902 44 861 q 0 993 0 943 l 0 1013 l 69 1013 q 99 933 69 961 q 194 904 128 904 q 290 933 261 904 q 319 1013 319 961 l 390 1013 l 390 993 q 367 902 390 943 q 301 837 344 861 q 194 813 258 813 z "},"̊":{"ha":0,"x_min":0,"x_max":292,"o":"m 146 822 q 43 860 86 822 q 0 965 0 899 q 43 1070 0 1032 q 146 1108 86 1108 q 249 1070 207 1108 q 292 965 292 1032 q 249 860 292 899 q 146 822 207 822 m 146 882 q 202 905 179 882 q 225 965 225 928 q 202 1026 225 1004 q 146 1047 179 1047 q 90 1026 114 1047 q 67 965 67 1004 q 90 905 67 928 q 146 882 114 882 z "},"̃":{"ha":0,"x_min":0,"x_max":419,"o":"m 286 822 q 224 839 249 822 q 177 872 199 856 q 126 888 156 888 q 88 872 104 888 q 68 825 72 857 l 0 825 q 45 930 10 894 q 132 965 81 965 q 194 949 169 965 q 240 917 218 933 q 292 900 263 900 q 331 916 315 900 q 351 963 347 932 l 419 963 q 375 858 411 894 q 286 822 339 822 z "},"̄":{"ha":0,"x_min":0,"x_max":482,"o":"m 0 856 l 0 943 l 482 943 l 482 856 l 0 856 z "},"̒":{"ha":0,"x_min":0,"x_max":138,"o":"m 138 1069 l 138 1014 q 87 1001 103 1014 q 71 961 71 988 l 71 932 l 138 932 l 138 817 l 15 817 q 4 880 8 853 q 0 933 0 907 q 36 1038 0 1006 q 138 1069 72 1069 z "},"̦":{"ha":0,"x_min":0,"x_max":133,"o":"m 0 -331 l 0 -275 q 49 -255 35 -275 q 64 -196 64 -235 l 64 -176 l 1 -176 l 1 -69 l 121 -69 q 131 -124 128 -97 q 133 -172 133 -150 q 99 -293 133 -256 q 0 -331 64 -331 z "},"̧":{"ha":0,"x_min":0,"x_max":317,"o":"m 0 -360 l 0 -286 l 128 -286 q 199 -269 176 -286 q 222 -219 222 -253 q 199 -173 222 -189 q 128 -157 176 -157 l 60 -157 l 60 10 l 138 10 l 138 -87 q 231 -101 190 -86 q 294 -146 271 -115 q 317 -221 317 -176 q 295 -295 317 -264 q 235 -343 274 -326 q 149 -360 197 -360 l 0 -360 z "},"̨":{"ha":0,"x_min":0,"x_max":268,"o":"m 164 -282 q 85 -269 122 -282 q 24 -226 47 -256 q 0 -150 0 -197 q 15 -87 0 -117 q 66 -28 31 -57 q 161 28 101 1 l 235 60 l 264 0 l 183 -39 q 115 -87 135 -62 q 94 -139 94 -112 q 117 -189 94 -171 q 178 -207 140 -207 q 222 -201 197 -207 q 268 -186 246 -196 l 268 -264 q 219 -277 246 -272 q 164 -282 192 -282 z "},"¨":{"ha":360,"x_min":0,"x_max":360,"o":"m 292 793 q 242 813 263 793 q 222 863 222 833 q 242 911 222 890 q 292 932 263 932 q 340 911 319 932 q 360 863 360 890 q 340 813 360 833 q 292 793 319 793 m 69 793 q 20 813 40 793 q 0 863 0 833 q 20 911 0 890 q 69 932 40 932 q 118 911 97 932 q 139 863 139 890 q 118 813 139 833 q 69 793 97 793 z "},"˙":{"ha":139,"x_min":0,"x_max":139,"o":"m 69 781 q 21 801 42 781 q 0 850 0 822 q 21 899 0 878 q 69 919 42 919 q 118 899 97 919 q 139 850 139 878 q 118 801 139 822 q 69 781 97 781 z "},"`":{"ha":310,"x_min":0,"x_max":310,"o":"m 260 790 l 0 949 l 67 1043 l 67 1043 l 310 865 l 260 790 z "},"´":{"ha":310,"x_min":0,"x_max":310,"o":"m 50 790 l 0 865 l 243 1043 l 243 1043 l 310 949 l 50 790 z "},"˝":{"ha":404,"x_min":0,"x_max":404,"o":"m 203 763 l 303 969 l 404 969 l 281 763 l 203 763 m 0 763 l 92 969 l 193 969 l 79 763 l 0 763 z "},"ˆ":{"ha":381,"x_min":0,"x_max":381,"o":"m 0 765 l 0 857 l 190 969 l 381 857 l 381 765 l 190 882 l 0 765 z "},"ˇ":{"ha":381,"x_min":0,"x_max":381,"o":"m 190 764 l 0 878 l 0 968 l 190 851 l 381 968 l 381 878 l 190 764 z "},"˘":{"ha":390,"x_min":0,"x_max":390,"o":"m 194 768 q 88 792 131 768 q 22 858 44 817 q 0 949 0 899 l 0 968 l 69 968 q 99 888 69 917 q 194 860 128 860 q 290 888 261 860 q 319 968 319 917 l 390 968 l 390 949 q 367 858 390 899 q 301 792 344 817 q 194 768 258 768 z "},"˚":{"ha":292,"x_min":0,"x_max":292,"o":"m 146 774 q 43 812 86 774 q 0 917 0 850 q 43 1022 0 983 q 146 1060 86 1060 q 249 1022 207 1060 q 292 917 292 983 q 249 812 292 850 q 146 774 207 774 m 146 833 q 202 856 179 833 q 225 917 225 879 q 202 977 225 956 q 146 999 179 999 q 90 977 114 999 q 67 917 67 956 q 90 856 67 879 q 146 833 114 833 z "},"˜":{"ha":419,"x_min":0,"x_max":419,"o":"m 286 767 q 224 783 249 767 q 177 816 199 800 q 126 832 156 832 q 88 817 104 832 q 68 769 72 801 l 0 769 q 45 874 10 839 q 132 910 81 910 q 194 894 169 910 q 240 861 218 878 q 292 844 263 844 q 331 860 315 844 q 351 907 347 876 l 419 907 q 375 803 411 839 q 286 767 339 767 z "},"¯":{"ha":482,"x_min":0,"x_max":482,"o":"m 0 822 l 0 910 l 482 910 l 482 822 l 0 822 z "},"¸":{"ha":317,"x_min":0,"x_max":317,"o":"m 0 -360 l 0 -286 l 128 -286 q 199 -269 176 -286 q 222 -219 222 -253 q 199 -173 222 -189 q 128 -157 176 -157 l 60 -157 l 60 10 l 138 10 l 138 -87 q 231 -101 190 -86 q 294 -146 271 -115 q 317 -221 317 -176 q 295 -295 317 -264 q 235 -343 274 -326 q 149 -360 197 -360 l 0 -360 z "},"˛":{"ha":268,"x_min":0,"x_max":268,"o":"m 164 -282 q 85 -269 122 -282 q 24 -226 47 -256 q 0 -150 0 -197 q 15 -87 0 -117 q 66 -28 31 -57 q 161 28 101 1 l 235 60 l 264 0 l 183 -39 q 115 -87 135 -62 q 94 -139 94 -112 q 117 -189 94 -171 q 178 -207 140 -207 q 222 -201 197 -207 q 268 -186 246 -196 l 268 -264 q 219 -277 246 -272 q 164 -282 192 -282 z "}}}
